<svg xmlns="http://www.w3.org/2000/svg" width="48" height="48" viewBox="0 0 48 48"><title>chess-knight</title><g><path d="M41,46.989H7a1,1,0,0,1-1-1V40a3,3,0,0,1,3-3H39a3,3,0,0,1,3,3v5.989A1,1,0,0,1,41,46.989Z" fill="#444"></path><path d="M39,22.989A21.966,21.966,0,0,0,18.047,1.013a1,1,0,0,0-1.047,1V3.989L9.45,12.483A1,1,0,0,0,9.3,13.594l1.321,2.642a1,1,0,0,0,1.182.511L21,13.989c2.1,5.258-.211,8.02-2.893,11.219-1.93,2.3-4.077,4.878-4.825,8.781h-.005a15.9,15.9,0,0,0-.277,3H33.971a22.193,22.193,0,0,0,2.083-3h-.021A22.09,22.09,0,0,0,39,22.989Z" fill="#444"></path><path d="M9,37H39a3,3,0,0,1,3,3v1a0,0,0,0,1,0,0H6a0,0,0,0,1,0,0V40A3,3,0,0,1,9,37Z" fill="#636363"></path></g></svg>
