<svg xmlns="http://www.w3.org/2000/svg" width="48" height="48" viewBox="0 0 48 48"><title>penguin</title><g><path d="M39,20l-1-7.5,6.177,2.7a1,1,0,0,1,.1,1.784Z" fill="#ea9860"></path> <path d="M24,1A15,15,0,0,0,9,16V39a6,6,0,0,1-6,6,1,1,0,0,0,0,2H24V38A15,15,0,0,1,39,23V16A15,15,0,0,0,24,1Z" fill="#444"></path> <path d="M24,38v9A15,15,0,0,0,39,32V23A15,15,0,0,0,24,38Z" fill="#e6e6e6"></path> <path d="M28,23a7,7,0,1,1,7-7,7.009,7.009,0,0,1-7,7" fill="#fff"></path> <path d="M28,19a3,3,0,1,1,3-3,3,3,0,0,1-3,3" fill="#444"></path></g></svg>
