<?xml version="1.0" encoding="utf-8"?>
<!-- Generator: Adobe Illustrator 22.0.1, SVG Export Plug-In . SVG Version: 6.00 Build 0)  -->
<svg version="1.1" id="Layer_1" xmlns="http://www.w3.org/2000/svg" xmlns:xlink="http://www.w3.org/1999/xlink" x="0px" y="0px"
	 viewBox="0 0 161.4 184.7" style="enable-background:new 0 0 161.4 184.7;" xml:space="preserve">
<g>
	<path d="M77.3,93.8c2-0.5,2-0.5,2.4,1.5c0.2,1,0.3,1.9,0.5,2.9c0.1,0.5-0.1,0.7-0.6,0.6c-0.9-0.1-1.6-0.5-2.2-1.2
		c-0.2-0.2-0.4-0.5-0.7-0.4c-0.4,0.2-0.2,0.5-0.1,0.8c0,0.2,0.1,0.4,0.1,0.6c0.3,2.2,0.3,2.2,2.5,2.1c1-0.1,1.5,0.1,1.4,1.2
		c0,0.2,0,0.3,0.1,0.5c0.3,0.2,0.9-0.1,1-0.3c0.1-0.2,0.2-0.4,0.1-0.6c-0.3-1.3,0.5-1.6,1.4-1.8c0.2,0,0.3-0.1,0.5-0.2
		c0.7-0.2,1.3-0.8,1.9-0.6c0.6,0.2,0.4,1.2,0.6,1.8c0.1,0.2,0.1,0.5,0.4,0.5c0.3,0,0.5-0.2,0.6-0.5c0-0.1,0.1-0.3,0-0.4
		c-0.6-1.6,0.1-2.6,1.2-3.8c1.5-1.5,1.8-3.5,0.9-5.5c-0.8-1.9-1.9-2.6-3.8-2c-0.7,0.2-0.9,0-1-0.6c-0.1-0.5-0.2-0.9-0.4-1.4
		c-0.1-0.3-0.3-0.7,0-0.9c0.3-0.2,0.7,0,1,0.2c0.3,0.2,0.5,0.5,0.7,0.8c0.1,0.2,0.3,0.3,0.5,0.2c0.2-0.1,0.3-0.3,0.2-0.5
		c-0.1-0.6-0.3-1.3-0.5-1.9c-0.2-0.5-0.5-0.6-1-0.3c-1,0.5-1.8,0.6-2.1-0.8c-0.1-0.4-0.4-0.8-0.9-0.5c-0.5,0.2-0.5,0.7-0.2,1.1
		c0.7,1,0.2,1.4-0.7,1.7c-0.7,0.3-1.3,0.6-2,0.9c-0.7,0.4-1,0.1-1.2-0.5c-0.1-0.3-0.3-0.6-0.4-0.9c-0.1-0.3-0.3-0.5-0.7-0.3
		c-0.3,0.1-0.3,0.4-0.3,0.7c0,0,0,0.1,0,0.1c1.3,1.7,0.1,2.6-1.1,3.5c-0.8,0.7-1.4,1.6-1,2.7C75,93.6,76,94.1,77.3,93.8z M85.5,90.9
		c0.3-0.2,0.6-0.1,0.8,0.1c0.7,0.9,1.4,1.8,1.5,2.9c0,0.3-0.1,0.5-0.1,0.7c-0.2,0.6-0.2,1.4-0.9,1.4c-0.6,0-0.4-0.9-0.5-1.3
		c-0.3-1-0.6-2.1-0.8-3.1C85.3,91.4,85.2,91.1,85.5,90.9z M84.2,91.5c0.1,0,0.1,0.2,0.1,0.3c0.5,1.7,0.9,3.3,1.1,5.1
		c0.1,0.4-0.1,0.6-0.4,0.8c-0.9,0.7-2,0.8-3,1c-0.5,0.1-0.7-0.3-0.7-0.7c-0.2-1.6-0.4-3.2-0.8-4.8c-0.2-0.9,0.6-1,1.1-1.1
		C82.4,91.7,83.2,91.1,84.2,91.5z M79.5,88.2c0.9-0.4,1.8-0.8,2.7-1.2c0.2-0.1,0.5-0.2,0.6,0.1c0.3,0.9,0.5,1.8,0.7,2.6
		c0.1,0.4-0.1,0.5-0.3,0.6c-0.3,0.1-0.5,0.2-0.8,0.3c-2.6,1.2-2.6,1.2-3.4-1.4C79,88.7,79,88.4,79.5,88.2z M77.7,89.2
		c0.2,0,0.3,0.2,0.4,0.4c0.2,0.4,0.4,0.9,0.5,1.3c0.1,0.4,0.5,0.8,0.1,1.1c-0.3,0.3-0.8,0.4-1.3,0.2c-0.5-0.3-0.8-0.6-0.9-1.2
		C76.6,90.5,77.3,89.2,77.7,89.2z"/>
	<path d="M11.4,72.3c-0.1,0-0.2,0-0.2,0c-0.4,0.2-0.6,0-0.7-0.3c0-0.1-0.1-0.1-0.1-0.1c-0.1-0.2-0.4-0.4-0.4-0.6
		c0-0.2,0.4-0.2,0.5-0.4c0.1,0,0.2-0.1,0.1-0.2c0-0.1-0.1-0.1-0.2-0.2c0,0-0.1,0-0.1,0c-0.5,0.3-0.9,0.2-1.4,0
		c-0.7-0.3-1.3-0.2-1.9,0.3c-0.5,0.4-0.7,0.9-0.3,1.5c0.1,0.2,0.1,0.3-0.1,0.4c-0.1,0.1-0.3,0.2-0.4,0.3C6.1,73,6,73.1,5.9,73
		c-0.1-0.1-0.1-0.2,0-0.3c0-0.1,0.1-0.2,0.2-0.3c0-0.1,0.1-0.1,0-0.2c-0.1-0.1-0.1,0-0.2,0c-0.2,0.1-0.4,0.2-0.6,0.4
		c-0.1,0.1-0.1,0.2,0,0.4c0.3,0.3,0.4,0.5-0.1,0.8C5.1,73.7,5,73.9,5.2,74c0.1,0.1,0.3,0.1,0.4,0C5.8,73.7,6,73.8,6.2,74
		c0.2,0.2,0.3,0.4,0.5,0.6c0.2,0.2,0.1,0.3-0.1,0.5c-0.1,0.1-0.2,0.2-0.3,0.2c-0.1,0.1-0.1,0.2,0,0.2c0.1,0.1,0.2,0.1,0.3,0
		c0,0,0,0,0,0c0.4-0.6,0.8-0.3,1.3,0c0.3,0.2,0.7,0.3,1,0c0.4-0.3,0.5-0.6,0.2-1.1c-0.4-0.6-0.4-0.6,0.3-0.9
		c0.3-0.2,0.6-0.3,0.9-0.5c0.2-0.1,0.2,0,0.3,0.1c0.1,0.3,0,0.6-0.2,0.9c0,0.1-0.1,0.2-0.1,0.3c0.1,0.1,0.2,0,0.3,0
		c0.1,0,0.1-0.1,0.2-0.1c0.7-0.3,0.7-0.3,0.4-1c-0.1-0.3-0.1-0.5,0.3-0.6c0.1,0,0.1,0,0.1-0.1C11.6,72.5,11.4,72.3,11.4,72.3z
		 M7.3,71.9c0.2-0.3,0.5-0.6,0.8-0.8c0.1,0,0.2,0,0.2,0c0.2,0,0.5-0.1,0.6,0.2c0.1,0.2-0.2,0.2-0.4,0.3c-0.3,0.2-0.6,0.4-0.9,0.6
		c-0.1,0.1-0.2,0.1-0.3,0C7.2,72.1,7.2,72,7.3,71.9z M7,74.4c-0.2-0.3-0.5-0.5-0.7-0.8c-0.1-0.1-0.1-0.2,0-0.2
		c0.3-0.2,0.5-0.4,0.8-0.5c0.1-0.1,0.2,0,0.2,0c0.1,0.1,0.1,0.1,0.2,0.2c0.7,0.7,0.7,0.7-0.1,1.3C7.3,74.5,7.1,74.5,7,74.4z
		 M8.6,74.6c0,0.2-0.1,0.3-0.3,0.4c-0.2,0.1-0.7,0-0.7-0.2c0-0.1,0-0.1,0.1-0.2c0.1-0.1,0.2-0.2,0.4-0.3c0.1-0.1,0.2-0.3,0.4-0.2
		C8.5,74.3,8.6,74.4,8.6,74.6z M10,72.8c-0.5,0.2-1,0.5-1.5,0.8c-0.3,0.2-0.4-0.1-0.5-0.2c-0.2-0.2-0.5-0.4-0.5-0.8
		c0,0,0.1,0,0.1-0.1c0.5-0.3,1-0.6,1.6-0.9c0.1-0.1,0.2,0,0.3,0.1c0.3,0.2,0.5,0.6,0.6,0.9C10.3,72.7,10.2,72.8,10,72.8z"/>
	<path d="M23.4,67.8c-0.5,0.1-0.5-0.2-0.6-0.6c0-0.1,0-0.1,0-0.2c0-0.2-0.2-0.5-0.1-0.7c0.1-0.2,0.4-0.1,0.6-0.1
		c0.1,0,0.2,0,0.2-0.1c0-0.1,0-0.2-0.1-0.2c0,0-0.1,0-0.1,0c-0.6,0.1-0.9-0.1-1.2-0.6c-0.5-0.6-1.1-0.8-1.8-0.6
		c-0.7,0.2-1,0.5-0.8,1.2c0,0.2,0,0.3-0.2,0.3c-0.2,0-0.3,0-0.5,0.1c-0.1,0-0.2,0.1-0.3,0c-0.1-0.1,0-0.2,0.1-0.3
		c0.1-0.1,0.2-0.1,0.3-0.2c0.1,0,0.1-0.1,0.1-0.2c0-0.1-0.1-0.1-0.2-0.1c-0.2,0-0.5,0-0.7,0.1c-0.2,0-0.2,0.2-0.2,0.3
		c0.1,0.4,0.1,0.6-0.4,0.7c-0.1,0-0.3,0.1-0.2,0.3c0.1,0.2,0.2,0.2,0.4,0.1c0.4-0.2,0.5,0,0.6,0.3c0.1,0.2,0.1,0.5,0.2,0.7
		c0.1,0.2,0,0.4-0.2,0.4c-0.1,0-0.2,0.1-0.3,0.1c-0.1,0-0.2,0.1-0.1,0.2c0,0.1,0.1,0.1,0.2,0.1c0,0,0,0,0,0c0.6-0.4,0.9,0.1,1.2,0.5
		c0.2,0.3,0.5,0.5,0.9,0.5c0.5-0.1,0.7-0.4,0.6-0.9c-0.1-0.7-0.1-0.7,0.6-0.8c0.3,0,0.7,0,1,0c0.2,0,0.2,0.1,0.2,0.2
		c-0.1,0.3-0.2,0.5-0.5,0.7c-0.1,0.1-0.2,0.1-0.2,0.2c0,0.1,0.2,0.1,0.3,0.1c0.1,0,0.1,0,0.2,0c0.8,0,0.8,0,0.8-0.7
		c0-0.3,0.1-0.5,0.5-0.4c0.1,0,0.1,0,0.2,0c0.1-0.1,0-0.3,0-0.3C23.6,67.8,23.5,67.8,23.4,67.8z M20,65.8c0.3-0.2,0.7-0.4,1.1-0.4
		c0.1,0,0.2,0,0.2,0.1c0.2,0.1,0.5,0.1,0.4,0.4c0,0.2-0.3,0.1-0.5,0.1c-0.4,0.1-0.7,0.1-1.1,0.2c-0.1,0-0.2,0-0.2-0.1
		C19.9,66,19.9,65.9,20,65.8z M18.8,68c-0.1-0.3-0.2-0.7-0.3-1c0-0.1,0-0.2,0.1-0.2c0.3-0.1,0.6-0.1,0.9-0.1c0.1,0,0.2,0,0.2,0.1
		c0,0.1,0.1,0.2,0.1,0.3C20,68,20,68,19.1,68.2C18.9,68.2,18.8,68.2,18.8,68z M20.1,68.8c-0.1,0.2-0.3,0.3-0.4,0.3
		c-0.2,0-0.6-0.3-0.6-0.4c0-0.1,0.1-0.1,0.2-0.1c0.2,0,0.3-0.1,0.5-0.1c0.1,0,0.3-0.2,0.4,0C20.2,68.5,20.2,68.7,20.1,68.8z
		 M22.2,67.8c-0.6,0-1.1,0-1.7,0.1c-0.3,0-0.3-0.3-0.3-0.4c-0.1-0.3-0.3-0.6-0.1-0.9c0,0,0.1,0,0.1,0c0.6-0.1,1.2-0.2,1.8-0.2
		c0.1,0,0.2,0.1,0.3,0.2c0.2,0.3,0.2,0.7,0.2,1.1C22.5,67.8,22.3,67.8,22.2,67.8z"/>
	<path d="M161.4,169.3c0.2-1.3-0.5-2-1.5-2.5c-1.1-0.5-2-1.2-2.9-2c-2.2-2-4.2-4.1-6.1-6.4c-0.3-0.4-0.3-0.7-0.2-1.2
		c0.3-2.6,1-5.1,1.7-7.6c0.5-1.9,0.9-3.9,1.7-5.7c1.4-3.2,2.1-6.6,2.5-10.1c0.2-2-0.5-3.7-1.6-5.2c-2.3-3-5-5.6-7.7-8.2
		c-4.7-4.5-9.7-8.7-15.1-12.3c-1.7-1.1-2.5-2.3-2.5-4.4c0-3.5-0.6-7-1.2-10.4c-0.5-2.7-1.1-5.5-2-8.1c-0.3-0.7-0.1-1.1,0.6-1.5
		c2.2-1.5,4.4-2.9,6.3-4.7c2.3-2.1,4.7-4,6.7-6.4c2.6-3.1,4.9-6.5,6.9-10c1.1-2,2.1-4,2.8-6.2c0.9-3.1-0.2-6-1.2-8.8
		c-1.3-3.5-2.9-6.8-4.4-10.2c-2.2-5.2-5-10.1-8.1-14.9c-0.9-1.4-1.9-1.9-3.4-1.2c-0.7,0.3-1.2,0.2-1.6-0.4c-0.6-0.8-1.5-1.4-2.2-2.1
		c-0.5-0.5-1.2-0.8-1.8-0.4c-1,0.6-1.5,0.1-2-0.6c-0.4-0.5-0.7-1-1-1.6c-1-1.8-2.1-3.5-3.6-5c-3.6-3.7-6-4-10-2.4
		c-1.2,0.5-2.3,1.3-3.6,1.2c-3.5-0.2-7-0.3-10.3-1.7c-0.4-0.2-0.9-0.3-1.3,0c-0.5,0.4-0.3,0.9-0.2,1.3c0.5,1.6,1.4,3,2.7,4.3
		c-1.8,0.8-3.4,0.1-5.1,0c-0.4,0-0.4-0.4-0.4-0.7c-0.4-3.5-1.4-6.8-3.2-9.9c-1.2-2-2.8-2.3-4.6-0.9c-0.2,0.2-0.5,0.4-0.7,0.6
		c-2.7,2.3-5.8,3.5-9.4,3.1C72.8,6,71.6,6,70.3,5.7c-1.6-0.4-2.8,0.5-4,1.4c-0.6,0.4-1.1,0.8-1.9,0.7c-2.3-0.3-4.5-0.8-6.7-1.6
		c-4-1.5-7.7-3.5-11.2-5.8c-0.4-0.3-0.9-0.6-1.5-0.3c-0.8,0.3-1.6,0.6-2.3,1.1c-4.9,3.4-8.4,7.9-10.5,13.5C31,18.3,30.3,22,30,25.8
		c-0.3,3.7-0.4,7.4,0.4,11.1c0.7,3.4,2.1,6.5,3.6,9.6c0.7,1.4,1.7,2.8,3.1,3.7c0.6,0.4,1.2,0.5,2,0.3c3.8-1.2,7.7-1.2,11.6-0.1
		c0.6,0.2,0.8,0.4,1,1c0.4,1.5,1,3,2.2,4.1c0.5,0.5,0.4,0.7-0.1,1c-1.1,0.9-1.7,2.2-2.4,3.3c-0.3,0.5-0.6,0.8-1.2,0.9
		c-0.9,0.2-1.9,0.1-2.7,0.9c-1.9,1.9-2.2,4.8-0.7,7.1c0.7,1,1,2.1,1,3.3c0,0.6,0,1.1,0,1.7c0,1.5,0.7,2.4,2.3,2.6
		c0.5,0.1,1,0.1,1.5,0c0.2,0,0.6-0.2,0.8,0.1c0.2,0.3-0.2,0.5-0.4,0.6c-4.1,4.4-6.9,9.6-8.9,15.2c-0.1,0.4-0.2,0.8-0.1,1.2
		c0.9,3.1,1.9,6.2,3.3,9.1c2.5,5.3,5.7,10.1,9.8,14.2c0.6,0.6,0.6,1.1,0,1.7c-1.1,1.1-2.3,1.8-3.8,2c-0.8,0.1-1.7,0.1-2,1
		c-0.3,1,0.7,1.4,1.3,1.9c2.5,2.1,5.5,3.3,8.5,4.5c3.5,1.4,7.1,2.2,10.7,2.9c0.7,0.1,0.9,0.5,0.6,1.1c-0.5,1.4-1,2.7-1.4,4.1
		c-0.3,0.9-0.7,1.3-1.7,0.9c-0.6-0.3-1,0-1.1,0.6c-0.1,0.3-0.1,0.6-0.1,0.9c0.1,0.7-0.2,0.9-0.8,1.1c-2.1,0.5-4.2,0.7-6.3,1.1
		c-1.5,0.3-3,0.1-4.4,0.6c-0.5,0.2-0.8,0.4-1,1c-0.4,1.4-0.5,1.5-2.1,1.4c-1.5-0.2-1.7-0.1-2,1.3c-1,3.8-2.2,7.6-2.8,11.5
		c-0.2,1.7-0.3,1.7,1.4,2.2c0.3,0.1,0.5,0.2,0.8,0.2c0.6,0.1,0.7,0.4,0.6,1c-0.8,2.9-1.6,5.9-2.2,8.9c-0.8,4-0.8,8-0.7,12
		c0.1,3-0.1,3.3,3.7,3.8c0.9,0.1,1.5-0.2,1.9-1c2.4-4.6,5.2-9,8.7-12.9c0.3-0.3,0.6-0.6,1.1-0.7c3-0.4,6-0.8,8.9-1.3
		c4.7-0.8,9.3-1.8,13.8-3.2c2.5-0.8,4.8-1.8,7.3-2.8c2.1-0.8,3.9-1.8,5.3-3.7c2.2-3.2,4.4-6.4,6.3-9.8c1.6-2.7,3.2-5.4,4.8-8.1
		c0.1-0.2,0.3-0.5,0.6-0.4c0.6,0.2,1.3,0.1,1.9,0.3c1.8,0.5,3.6,1,5.4,1.5c1,0.3,1.7,0.7,1.7,1.9c0,0.6,0.3,1.2,1,1.2
		c0.5,0,0.7,0.3,0.5,0.8c0,0.2-0.1,0.5,0,0.6c0.8,0.6,0.4,1.3,0.1,1.9c-0.6,1-0.5,1.9,0.4,2.6c0.2,0.2,0.3,0.4,0.5,0.5
		c0.8,0.5,0.7,1.2,0.4,1.9c-0.9,2.1-1.3,4.3-1.5,6.6c-0.1,0.6,0,1,0.6,1.4c3.5,2.8,7.6,4.3,11.8,5.7c0.7,0.2,1.4,0.1,1.5-0.8
		c0.2-1,0.6-0.8,1.3-0.4c1.3,0.8,2.6,1.5,3.9,2.2c3.5,1.9,7.3,3.2,11.2,4c2.9,0.6,5.8,0.8,8.8,0.2c2.1-0.5,2.3-0.7,2.3-2.9
		C161.4,169.7,161.4,169.5,161.4,169.3z M126.4,22.6c-0.2,0-0.4-0.1-0.4-0.3c0-0.5,0.4-0.7,0.8-0.8c0.2,0,0.4-0.1,0.4,0.3
		C127.1,22.2,126.9,22.5,126.4,22.6z M125.8,20.1c1.7-1.2,1.9-1.1,3.2,0.4c0,0,0,0.1,0.1,0.1c1.2,1.3,1.2,1.3-0.5,1.9
		c-0.4,0.2-0.8,0.4-1.4,0.6c0.3-0.8,1.3-1.4,0.5-2.3c-0.4-0.5-1.1-0.3-1.6-0.1c-0.9,0.4-1.2,1.2-1.1,2.1c0,0.7,0.7,0.7,1.5,0.6
		c-1.6,1-2.9,2-4.1,3c-2,1.6-4.1,3.1-5.9,4.9c-0.6,0.6-0.8,0.4-1.2-0.2c-0.5-0.9-0.3-1.5,0.4-2.2C118.7,25.6,122.1,22.7,125.8,20.1z
		 M99.6,98.7c-0.1-4.8-0.8-9.6-2.1-14.3c0-0.2,0-0.3-0.1-0.7c0.7,0.6,1.2,1,1.8,1.4c0.6,0.4,1.1,0.3,1.6-0.4c1.9-3,4-5.8,6.7-8.2
		c0.4-0.3,0.8-0.4,1.2-0.4c3,0.3,6,1.2,8.9,1.9c0.8,0.2,1.1,0,1.2-0.7c0.1-0.6,0.2-1.2,0.3-2c0.8,1.5,1.2,3,1.6,4.4
		c1.4,5.1,2.4,10.3,3.2,15.5c0.5,3.8,0.7,7.7,0.8,11.6c0.1,3.4-0.1,6.8-0.3,10.2c-0.1,1.3-0.2,1.4-1.3,0.8c-1.9-1-3.9-1.9-6-2.4
		c-0.5-0.1-0.8,0-1.1,0.3c-1.1,0.8-2,1.8-2.8,2.9c-1.5,2-3.2,3.7-4.8,5.5c-0.3,0.4-0.7,0.4-1.1,0.3c-3.3-1-6.4-2.2-9.3-4.2
		c-0.4-0.3-0.6-0.6-0.4-1.1c0.8-3.3,1.3-6.7,1.8-10C99.9,105.6,99.7,102.1,99.6,98.7z M90.1,112.4c0.4,0.6,0.9,0.1,1.3-0.1
		c0.9-0.5,1.7-1,2.5-1.5c0.1-0.1,0.4-0.2,0.5-0.1c0.2,0.1,0.1,0.4,0.1,0.6c-0.4,1.6-1.5,2.6-2.7,3.5c-1.6,1.3-3.3,2.3-5.2,2.9
		c-0.3,0.1-0.5,0.2-0.4,0.5c0.1,0.4,0.4,0.3,0.7,0.2c0.9-0.1,1.7-0.6,2.6-0.8c-1.1,2.3-3.1,2.7-5.3,2.8c-2.7,0.1-5.3,0-8-0.2
		c-2.6-0.2-2.4-0.4-2.4-2.8c0-3.7,1-7.3,2.3-10.8c0.5-1.5,1.4-2.1,3.9-2.1c2,0,4.1,0.2,6.1-0.4c0.9-0.3,1.8-0.6,2.7-1.1
		c0.2-0.1,0.4-0.3,0.5-0.1c0.1,0.1,0,0.3,0,0.5c-0.3,0.8-0.7,1.5-1.3,2.1c-0.3,0.3-0.7,0.6-0.5,1c0.2,0.4,0.7,0.2,1,0.2
		c2-0.2,3.9-0.6,5.6-1.8c0.9-0.7,1.7-1.6,2.2-2.7c1.3,2.2,0.7,5.2-1.5,6.8c-1.2,0.9-2.4,1.8-3.8,2.4
		C90.5,111.6,89.7,111.8,90.1,112.4z M92.3,73.9c-0.4-1-0.3-1,0.7-1c1,0,2,0,3,0c3.7,0.2,7.3-0.3,10.7-1.5c2-0.7,3.3-2.2,4.9-3.5
		c1-0.8,1.7-1.9,2.4-2.9c0.6-0.8,0.9-0.6,1.3,0.1c1.1,1.9,1.6,3.9,2,6c0.3,1.5,0.6,3,0.4,4.5c-0.1,0.7-0.1,1-1,0.7
		c-2.8-0.8-5.6-1.6-8.5-1.7c-0.6,0-1,0.1-1.5,0.6c-2.3,2.4-4.4,4.9-6.4,7.5c-0.5,0.6-0.9,0.8-1.5,0.2C96.2,80.2,93.8,77.4,92.3,73.9
		z M119.4,49.9c2.3,3.3,1.6,6.9-1.7,9.1C118.8,56.2,119.4,53.3,119.4,49.9z M96.5,10.4c-0.2-0.3-0.3-0.7,0.2-0.6
		c2.3,0.5,4.5,1.1,7,1.7c-0.7,0.1-1.1,0.3-1.5,0.3c-0.8,0-1.4,0.2-1.5,1c-0.1,0.7,0.4,1.3,1.1,1.6c1.4,0.6,2.8,1,4.3,1.1
		c2,0.1,3.9,0,5.8-0.4c0.6-0.1,0.8,0.1,0.8,0.6c0.1,1.1,0.6,2,1.2,3c0.2,0.3,0.6,0.7,0.9,0.5c0.4-0.3,0-0.7-0.2-1
		c-0.7-1-1-2.1-1.2-3.3c-0.1-0.8-0.5-1.1-1.3-0.9c-2.6,0.6-5.2,0.7-7.8,0.2c-0.9-0.2-1.7-0.4-2.6-1.2c1.8-0.2,3.3-0.4,4.8-0.9
		c1.4-0.5,2.8-1.1,4.2-1.8c2.1-1.1,4.1-1.1,6.1,0.1c2,1.2,3.2,3,4.4,4.9c0.8,1.3,1.7,2.6,2.6,3.9c0.4,0.6,0.3,0.9-0.2,1.4
		c-2.6,2.3-5.3,4.5-7.7,7c-0.5,0.5-1,1-1.5,1.6c-0.9-1.6-1.9-3.1-2.9-4.6c1.3-0.2,1.6-0.9,1-1.9c-1.1-1.7-2.5-2.7-4.6-2.5
		c-0.2,0-0.4,0-0.6-0.1c-2.5-2.1-5.5-3.4-8.5-4.8c-0.1,0-0.1-0.1-0.2-0.2c0.5-0.4,1-0.1,1.4,0.1c1.6,0.7,3.2,1.6,5,2
		c0.2,0.1,0.4,0.1,0.6,0.2c0.3,0,0.6,0.2,0.7-0.2c0.1-0.3-0.3-0.5-0.5-0.6c-0.6-0.3-1.2-0.5-1.8-0.8c-2.1-0.9-4-2-5.8-3.5
		C97.5,11.8,97,11.1,96.5,10.4z M100.3,18c1.5,0.9,3.1,1.7,4.5,2.7c0.6,0.4,0.6,0.7,0.1,1.2c-1.3,1.2-2.3,2.6-2.9,4.2
		c-0.3,0.7-0.3,1.2,0.5,1.6c0.7,0.4,1.1-0.1,1.4-0.6c0.7-1.3,1.2-2.8,2.3-3.9c0.6-0.6,1-0.7,1.6,0c1.9,2.2,3.8,4.4,5.1,7
		c0.9,1.7,2.1,3.2,2.5,5.1c0.3,1.3,0.8,2.6,1.2,3.9c0.2,0.7,0,1.1-0.6,1.5c-1.7,1.1-3.6,1-5.5,0.9c-0.6-0.1-1.2-0.2-1.8-0.3
		c-0.3-0.1-0.7,0-0.7,0.4c-0.1,0.4,0.3,0.4,0.6,0.4c0.7,0.1,1.4,0.3,2,0.4c3.5,0.7,6.5-0.2,9-3.1c0.2,0.8,0.3,1.4,0.2,2.1
		c-0.5,3-2,5.5-3.9,7.7c-1.4,1.6-3.5,2.1-5.7,2c-0.6,0-0.9,0.2-1.1,0.8c-1.6,4.4-4.3,7.8-8.7,9.7c-3.8,1.6-7.8,1.9-11.8,0.9
		c-1.9-0.5-3.6-1.3-5.2-2.6c1.6-0.4,3-1.1,4.4-1.7c2.7-1.2,4.6-3.3,6.5-5.4c1.2-1.4,2.1-3.1,3.1-4.6c0.1-0.2,0.2-0.4,0.3-0.5
		c0.1-0.3,0.3-0.8-0.1-0.9c-0.4-0.2-0.5,0.3-0.7,0.6c-3,4.8-6.6,9-12,11.2c-1.8,0.7-3.3,0.1-4.8-0.7c-0.4-0.2-0.7-0.8-1.1-0.3
		c-0.3,0.4,0.3,0.8,0.5,1.1c4.4,5,10.1,6.6,16.6,6c1-0.1,2-0.1,3,0.2c1.4,0.6,2.6,0.1,3.8-0.7c1-0.7,2-1.5,3-2.2
		c0.7-0.5,1.6-0.8,2.5-0.8c1.3,0,1.8-0.8,2-1.8c0.3-1.9,0.5-3.7,0.2-5.6c-0.1-0.9,0-1.2,1-1.2c2.2-0.1,4.1-0.8,5.6-2.5
		c0.2-0.2,0.3-0.6,0.8-0.7c0.4,1,0.1,2.1,0,3c-0.9,4.8-2.7,9.3-5.8,13.1c-3,3.7-6.7,5.9-11.7,5.9c-4.3-0.1-8.6-0.2-12.8-1.2
		c-3.7-0.9-6.9-2.6-9.6-5.3c-2.6-2.5-4.8-5.3-6.2-8.7c-0.3-0.6-0.3-1.1,0.1-1.6c0.2-0.2,0.3-0.6,0.3-0.9c0.1-0.2,0-0.4-0.1-0.6
		c-0.2-0.2-0.5-0.1-0.7,0.1c-1.6,1.6-2.7,0.9-3.8-0.3c-2.5-2.5-4.2-5.5-4.2-9.2c0-1.1,0.4-2.2,0.9-3.2c0.5-0.9,1.4-1.3,2.5-1.1
		c1.5,0.2,2.7,1,3.7,1.9c0.2,0.2,0.5,0.7,0.9,0.3c0.4-0.4-0.1-0.7-0.3-0.9c-1.1-1.1-2.4-2-4-2.3c-0.5-0.1-0.6-0.2-0.6-0.7
		c0.1-1.3,0.4-2.6,0.6-3.9c0-0.2,0.1-0.4,0.4-0.3c2.2,0.5,4.6,0.4,6.7,1.7c0.4,0.3,0.9,0.2,1.2-0.2c0.4-0.5-0.1-0.9-0.4-1.1
		c-1.9-1.4-4.1-1.9-6.5-1.7c-0.8,0.1-0.9-0.1-0.7-0.8c1.2-4.2,3.3-7.8,6.6-10.8c2.1-2,4.4-3.3,7.1-4.1c2.8-0.8,5.7-1.2,8.6-1.3
		C93.8,15.1,97.1,16.2,100.3,18z M72.1,61.2c-1.3,0.6-2.5,1.2-3.7,1.8c-0.4,0.2-0.7,0.2-1-0.1c-0.6-0.6-1.3-1.2-1.9-1.8
		c2-0.2,3.8-0.8,5.4-1.8c0.5-0.3,0.8-0.3,1,0.3c0.1,0.3,0.3,0.6,0.5,0.9C72.6,60.7,72.6,61,72.1,61.2z M47.3,47.9
		c-0.8,0-1.7,0-2.5,0c-2,0.1-3.9,0.3-5.8,0.9c-0.8,0.3-1.2-0.2-1.6-0.7c-0.4-0.5,0.2-0.6,0.5-0.6c2.1-0.5,4.3-0.9,6.4-0.9
		c0.8,0,1.7,0,2.5,0c0.4,0,0.7,0.1,0.9,0.5C47.9,47.6,48,47.9,47.3,47.9z M46.9,34.8c0-3.9,0.2-7.7,1.4-11.3c0.2-0.5,0-0.6-0.5-0.8
		c-4.5-1.6-9.1-2.9-13.8-3.7c-1.6-0.3-1.6-0.3-1.1-1.8c1.5-4.4,3.5-8.4,7-11.7c1.1-1,1.1-1,2.2-0.1c3.1,2.6,6.5,4.7,10.2,6.4
		c0.9,0.4,1.5,0.3,2.1-0.5c0.6-0.8,1.3-1.5,2.3-1.9C51,17,48.2,25.6,46.9,34.8z M51,23.8c-0.3-0.2-0.1-0.6,0-0.9
		c1.2-3.1,2.5-6.1,4.1-8.9c0.4-0.6,0.7-0.9,1.5-0.7c0.7,0.3,1.4,0.5,2.2,0.7c0.8,0.2,0.7,0.5,0.4,1c-1.4,2-2.4,4.3-3.5,6.5
		c-0.5,1-0.8,2-1.3,3.1c-0.1,0.3-0.2,0.7-0.8,0.6C52.8,24.8,51.9,24.4,51,23.8z M52.9,49.8c-0.4-2.1-0.7-4.2-0.6-6.3
		c0.1-4.1,0.6-8.2,1.5-12.2C55,26,57,21,59.8,16.4c1.9-3.1,4.5-5.7,7.3-8c1.2-1,2.4-1.2,4-1c4,0.5,7.9,0.4,11.4-2.1
		c0.8-0.6,1.6-1.1,2.4-1.7c1.4-1.1,2.5-0.2,3.2,0.7c0.6,0.7,0.8,1.6,1.1,2.4c0.7,2,1.5,4,1.4,6.3c0,0.7-0.2,0.9-0.9,1
		c-1.3,0.1-2.6,0.2-3.9,0.4c-0.5,0.1-0.9-0.2-1.2-0.4c-2.6-1.7-5.4-1.7-8.3-0.8c-4.7,1.4-7.6,4.6-9.8,8.7c-1,1.8-2.1,3.7-2.9,5.6
		c-1.5,3.6-2.5,7.2-2.9,11.1c-0.4,3.4-0.5,6.9,0.4,10.2c0.4,1.6,1.1,3.1,3,3.4c0.9,0.2,1.4,1,2,1.6c1,1,2.2,1.8,3.6,2
		c0.8,0.1,0.7,0.8,1,1.3c0.3,0.5-0.2,0.8-0.5,1c-1.8,1.3-3.9,1.8-6.1,1.3c-0.4-0.1-0.7-0.3-1-0.6c-1.7-1.2-3.4-2.5-5.4-3.4
		c-0.6-0.2-1.2-0.5-1.8-0.3c-0.5,0.1-0.6-0.2-0.9-0.4C53.5,53.4,53.3,51.5,52.9,49.8z M54.2,74.9c-1.1,0.3-2.2,0.4-3.4,0.6
		c-1.7,0.2-2.3-0.4-1.8-2c0.6-1.9,0.2-3.5-0.7-5.2c-0.4-0.6-0.8-1.2-1.1-1.9c-1.1-2,0.1-4.2,2.4-4.4c1.9-0.2,3.8,0.1,5.7,0.5
		c1.5,0.3,3.1,0.5,4.6,1.1c-0.3-0.5-0.8-0.6-1.3-0.7c-1.8-0.4-3.6-0.8-5.4-1.2c-1.2-0.2-1.2-0.3-0.6-1.4c0.6-1.1,1.2-2.1,2-3
		c0.9-1.1,1.8-1.3,3.1-0.6c3.2,1.8,6.2,3.9,8.7,6.7c0.6,0.6,1.3,1.1,1.9,1.7c0.2,0.2,0.7,0.4,0.4,0.8c-0.2,0.3-0.6,0.6-1.1,0.3
		c-0.1-0.1-0.3-0.1-0.6-0.2c0.6,1.3-0.9,2.8-3.1,3.2c0.9,0.4,0.8,0.4,0.4,1.3c-0.6,1.4-1.5,2.1-3.2,2.2C58.6,73,56.5,74.4,54.2,74.9
		z M64.5,90.3c-1.8-1.6-1.8-3.5-1.2-5.6c0.3-1,0.7-2,1.1-2.9c1-2.2,1.6-4.5,1.4-6.9c-0.1-1.3,0.2-2.5,0.9-3.6
		c0.3-0.5,0.5-0.4,0.9-0.1c0.8,0.7,1,1.8,1.4,2.7c0.2,0.4,0.3,0.8,0.4,1.2c0.2,0.4,0.4,0.8,0.9,0.6c0.5-0.2,0.4-0.7,0.3-1.1
		c-0.4-1.1-0.9-2.2-1.6-3.1c-0.2-0.3-0.4-0.6-0.6-0.8c-0.5-0.5-0.8-1,0-1.6c0.9-0.7,1.4-0.7,2,0.1c0.4,0.5,0.7,1.1,1.3,1.4
		c0.3,0.1,0.5,0.2,0.8,0c0.3-0.3,0.1-0.5,0-0.8c-0.3-0.7-1.1-1.1-1.6-1.7c0.5-0.3,0.8-0.1,1.1,0.1c3.5,2.4,7.1,4.7,10.5,7.3
		c4,3.1,7.5,6.7,9.6,11.3c1.9,4.1,3,8.5,3.3,13c0.2,2.2-1.4,3.5-3,4.7c-0.6,0.4-1.2,0.8-1.9,1c-0.3,0.1-0.6,0.2-0.8,0
		c-0.2-0.2,0-0.5,0.1-0.7c0.5-1.1,0.7-2.2,1-3.4c0.1-0.3,0.2-0.8-0.1-1c-0.3-0.2-0.5,0.2-0.7,0.4c-2.4,1.7-5,2.6-7.9,2.2
		c-0.2,0-2.9,0.1-3.5,0.2c-0.1,0-0.3,0.1-0.4,0c-0.7-0.9-1.8-1-2.9-1.3c-0.4-0.1-0.4-0.4-0.4-0.6c-0.1-0.9-0.5-1.5-1.2-1.9
		c-3.2-1.9-5.7-4.5-7.9-7.4C65.4,91.3,65,90.7,64.5,90.3z M69.2,124.2c-0.6-0.1-0.5-0.9-0.7-1.4c-0.1-0.3,0.1-0.3,0.4-0.3
		c0.3,0.2,1,0.2,1.1,0.8C70.1,123.7,69.7,124.3,69.2,124.2z M69.1,121.6c-0.7-0.2-0.9-0.8-0.9-1.4c-0.1-0.8-0.1-1.5-0.1-2.5
		c0.3-4.7,0.9-9.6,2.6-14.3c0.5-1.5,0.5-1.5,2-1c1,0.4,2.1,0.7,3.2,0.9c0.4,0.1,0.8,0.1,0.5,0.7c-1.8,2.7-2.1,5.9-2.9,8.9
		c-0.5,2.2-0.5,4.3-0.5,6.5c0,0.5,0.1,1,0.2,1.4c0.4,1,0.2,1.2-0.9,1.3C71.2,122.2,70.1,121.9,69.1,121.6z M59.8,170.3
		c-3,3.7-5.3,7.8-7.5,11.9c-0.3,0.6-0.6,0.7-1.3,0.6c-2.3-0.5-2.3-0.5-2.4-2.9c0-0.6,0-1.3,0-1.9c0.1-4.9,0.9-9.6,2.3-14.2
		c0.4-1.5,1.1-2.9,1.7-4.3c0.3-0.7,0-1.1-0.6-1.3c-0.7-0.3-1.4-0.5-2.1-0.6c-0.5-0.1-0.6-0.4-0.6-0.9c0.4-3.7,1.2-7.3,2.4-10.7
		c0.3-1,0.9-0.8,1.6-0.8c0.8,0.1,0.7,0.6,0.7,1.1c0,2.3-0.2,4.6,0,6.9c0.6,5.7,2,11.1,5.8,15.6C60.2,169.4,60.2,169.7,59.8,170.3z
		 M122.9,145.7c-0.5,0-0.5-0.4-0.3-0.8c0.3-0.7,0-1.1-0.8-1c-1,0.1-1.3-0.6-1.3-1.4c0-0.5-0.2-0.6-0.6-0.8c-3-1.1-6.1-1.8-9.1-2.6
		c-0.8-0.2-0.9-0.5-0.6-1.2c0.8-1.7,1.4-3.5,1.9-5.3c0.1-0.4,0.4-1-0.1-1.2c-0.6-0.2-0.6,0.4-0.8,0.8c-1.7,3.5-3.5,7-5.4,10.4
		c-2.5,4.5-5.3,8.7-7.8,13.1c-1.9,3.4-5,5.2-8.4,6.3c-7.6,2.5-15.2,4.7-23.2,5.8c-1,0.1-2,0.3-3,0.5c-1.6,0.3-2.2,0-3.1-1.4
		c-2-3.2-3.3-6.6-4.1-10.3c-0.9-4-0.9-7.9-0.2-11.9c0.1-0.6,0.4-1.1,0.5-1.7c0.1-0.5,0.5-0.4,0.8-0.5c2-0.2,3.9-0.4,5.9-0.5
		c1.6-0.1,3.1-0.7,4.7-1c0.6-0.1,0.5-0.6,0.5-1.1c0.1-1.2,0.2-1.3,1.3-1c0.5,0.1,0.7-0.1,0.9-0.5c0.9-2.1,1.9-4.1,2.5-6.3
		c0.2-0.6,0.5-0.8,1.1-0.7c4.4,0.6,8.8,0.8,13.3,0.1c2.3-0.4,4.3-1.3,6-2.7c1.3-1,1.9-2.7,2.4-4.3c0.3-1,0.6-2,0.9-3
		c0.2-0.6,0.4-0.8,0.9-0.4c3,1.8,6.4,3,9.6,4.4c0.5,0.2,0.9,0,1.2-0.3c1-1.3,2.1-2.6,3.1-3.9c1.4-1.6,2.8-3.2,4.4-4.6
		c0.4-0.4,0.8-0.5,1.4-0.3c2.2,0.6,4.3,1.4,6.3,2.7c0.4,0.2,0.7,0.6,1.2,0.4c0.5-0.3,0.1-0.7,0.2-1c0.1-0.7,0-1.4,0-2.1
		c0.1-2.9,0.6-5.7,0.4-8.6c-0.1-0.9,0.4-0.7,0.9-0.4c3,1.5,5.9,3.4,8.7,5.3c6.3,4.4,11.9,9.7,17.1,15.4c0.8,0.9,1.6,1.9,2.1,3
		c0.7,1.5,0.5,3.2,0.2,4.8c-0.7,3.6-1.8,7-3.2,10.3c-1.5,3.5-2.7,7.1-3.2,10.9c-0.1,0.7-0.4,1-1,1.1c-1.9,0.3-3.8,0.2-5.7,0
		c-6.3-0.7-12.1-2.6-17.3-6.2c-0.1-0.1-0.2-0.2-0.3-0.2c-1.8-1.4-1.8-1.4-1-3.6c0.2-0.5,0.4-1,0.5-1.5
		C123.6,146.2,123.9,145.6,122.9,145.7z M159.4,170.8c-0.1,0.8-0.9,0.5-1.5,0.6c-0.2,0-0.5,0-0.7,0.1c-2.5,0-5-0.7-7.5-1.1
		c-5.2-0.7-9.3-3.7-13.6-6.3c-0.6-0.4-1-0.9-1.6-1.3c-0.5-0.4-0.8-0.2-1.1,0.4c-0.9,1.9-0.9,1.9-2.9,1.3c-2.6-0.8-4.9-2.1-7.3-3.4
		c-0.7-0.4-1-0.9-0.9-1.7c0.2-1.6,0.6-3.2,1.1-4.8c0.2-0.8,0.7-0.5,1.1-0.2c1.9,1.3,4,2.2,6.1,3.1c4.2,1.7,8.6,2.6,13.2,2.7
		c1.7,0,3.3,0.1,4.9-0.4c0.4-0.1,0.8,0.1,1.1,0.4c1.9,1.9,3.8,3.7,5.6,5.5c1,1,2.1,1.7,3.2,2.4C160,169,159.5,170,159.4,170.8z"/>
	<path d="M26.9,70.7c0.2-1.9,0.6-3.8,0.4-5.7c0-1,0-1.9,0-2.9c0-0.9-0.5-1.1-1.2-1.1c-4.7,0.3-9.2,1-13.6,2.9
		C8.8,65.6,5,67.5,1.3,69.7c-1.6,1-1.6,1-1,2.7c1.3,3.7,3.2,7.1,4.2,11c0.1,0.4,0.1,0.9,0.6,1c0.5,0,0.7-0.4,0.9-0.7
		c1.1-1.7,2.6-3.1,4.2-4.3c4.5-3.6,9.7-5.9,15.3-7.2C26.3,71.9,26.8,71.5,26.9,70.7z M24.9,70.8c-7.2,2-13.6,5.6-18.9,10.9
		c-0.5,0.5-0.7,0.5-0.9-0.2c-1.2-3.3-2.4-6.6-3.6-9.9c-0.2-0.5,0.1-0.7,0.4-0.8c1.2-0.8,2.4-1.6,3.7-2.3c5.5-3.1,11.3-5.3,17.7-6.1
		c0.4-0.1,0.8-0.1,0.9-0.1c1.9,0,2,0,2,1.5c0,2.1-0.2,4.2-0.5,6.3C25.6,70.5,25.4,70.7,24.9,70.8z"/>
	<path d="M28.1,87.4c0,0,0.1-0.1,0.1-0.1c0-0.1-0.2-0.2-0.2-0.2c-0.1,0-0.1,0-0.1,0.1c-0.2,0.3-0.4,0.2-0.6,0c0,0-0.1-0.1-0.1-0.1
		c-0.2-0.1-0.4-0.1-0.5-0.3c-0.1-0.2,0.2-0.3,0.3-0.4c0-0.1,0.1-0.1,0-0.2c-0.1-0.1-0.1-0.1-0.2,0c0,0-0.1,0-0.1,0.1
		c-0.2,0.4-0.6,0.4-1,0.4c-0.6-0.1-1,0.2-1.3,0.8c-0.3,0.5-0.2,0.8,0.3,1.2c0.2,0.1,0.2,0.2,0.1,0.3c-0.1,0.1-0.2,0.2-0.2,0.3
		c-0.1,0.1-0.1,0.2-0.2,0.1c-0.1,0-0.1-0.1-0.1-0.2c0-0.1,0-0.2,0-0.3c0-0.1,0-0.1,0-0.1c-0.1,0-0.1,0-0.1,0
		c-0.1,0.1-0.2,0.3-0.3,0.4c-0.1,0.1,0,0.2,0.1,0.3c0.3,0.1,0.4,0.3,0.2,0.6c-0.1,0.1-0.1,0.2,0,0.3c0.1,0.1,0.2,0,0.3-0.1
		c0.1-0.3,0.3-0.3,0.5-0.2c0.2,0.1,0.4,0.2,0.5,0.3c0.2,0.1,0.2,0.2,0.1,0.4c0,0.1-0.1,0.2-0.1,0.3c0,0.1,0,0.2,0,0.2
		c0.1,0,0.1,0,0.2-0.1c0,0,0,0,0,0c0.1-0.6,0.5-0.5,0.9-0.4c0.3,0.1,0.6,0,0.7-0.3c0.2-0.3,0.1-0.6-0.2-0.8
		c-0.5-0.3-0.5-0.3-0.1-0.8c0.2-0.2,0.3-0.4,0.5-0.6c0.1-0.1,0.2-0.1,0.2,0c0.1,0.2,0.2,0.4,0.1,0.7c0,0.1,0,0.2,0,0.2
		c0.1,0,0.1-0.1,0.2-0.1c0,0,0.1-0.1,0.1-0.1c0.4-0.4,0.4-0.4,0-0.9C27.9,87.7,27.8,87.6,28.1,87.4z M24.8,88.1
		c0.1-0.3,0.1-0.6,0.4-0.8c0.1,0,0.1-0.1,0.2-0.1c0.2-0.1,0.3-0.2,0.5,0c0.1,0.1-0.1,0.2-0.2,0.3c-0.2,0.2-0.3,0.5-0.5,0.7
		c0,0.1-0.1,0.1-0.2,0.1C24.8,88.2,24.7,88.2,24.8,88.1z M25.3,90c-0.2-0.1-0.5-0.2-0.7-0.4c-0.1,0-0.1-0.1-0.1-0.2
		c0.1-0.2,0.3-0.4,0.4-0.6c0.1-0.1,0.1-0.1,0.2-0.1c0.1,0,0.1,0.1,0.2,0.1c0.7,0.3,0.7,0.3,0.3,1C25.5,90,25.5,90.1,25.3,90z
		 M26.5,89.7c0,0.1,0,0.3-0.1,0.4c-0.1,0.1-0.5,0.2-0.6,0.1c0-0.1,0-0.1,0-0.2c0.1-0.1,0.1-0.2,0.2-0.3c0.1-0.1,0.1-0.3,0.2-0.2
		C26.4,89.5,26.5,89.6,26.5,89.7z M27.1,87.9c-0.3,0.3-0.6,0.6-0.9,1c-0.1,0.2-0.3,0-0.4,0c-0.2-0.1-0.5-0.2-0.6-0.5c0,0,0,0,0-0.1
		c0.3-0.4,0.5-0.8,0.9-1.1c0.1-0.1,0.2-0.1,0.2-0.1c0.3,0.1,0.5,0.3,0.7,0.5C27.2,87.8,27.2,87.9,27.1,87.9z"/>
	<path d="M35.6,80.2c-0.1,0-0.1,0-0.2,0c-0.3,0.2-0.5,0-0.6-0.3c0,0-0.1-0.1-0.1-0.1c-0.1-0.2-0.3-0.3-0.3-0.5
		c0-0.2,0.3-0.2,0.4-0.3c0.1,0,0.1-0.1,0.1-0.1c0-0.1-0.1-0.1-0.2-0.1c0,0-0.1,0-0.1,0c-0.4,0.3-0.7,0.2-1.1-0.1
		c-0.5-0.3-1.1-0.2-1.5,0.1c-0.4,0.3-0.5,0.7-0.2,1.2c0.1,0.2,0.1,0.2-0.1,0.3c-0.1,0.1-0.2,0.1-0.3,0.2c-0.1,0-0.2,0.1-0.2,0.1
		c-0.1-0.1-0.1-0.2,0-0.3c0-0.1,0.1-0.2,0.2-0.2c0,0,0.1-0.1,0-0.2c0-0.1-0.1,0-0.2,0c-0.2,0.1-0.3,0.2-0.5,0.3
		c-0.1,0.1-0.1,0.2,0,0.3c0.2,0.2,0.3,0.4-0.1,0.6c-0.1,0.1-0.2,0.2-0.1,0.3c0.1,0.1,0.2,0.1,0.3,0c0.2-0.2,0.3-0.1,0.5,0.1
		c0.1,0.2,0.2,0.3,0.4,0.5c0.1,0.2,0.1,0.3-0.1,0.4c-0.1,0.1-0.1,0.1-0.2,0.2c-0.1,0.1-0.1,0.1,0,0.2c0.1,0.1,0.1,0.1,0.2,0
		c0,0,0,0,0,0c0.4-0.5,0.7-0.2,1,0c0.2,0.2,0.5,0.3,0.8,0.1c0.3-0.2,0.4-0.5,0.2-0.8c-0.3-0.5-0.3-0.5,0.2-0.7
		c0.2-0.1,0.5-0.2,0.7-0.3c0.1-0.1,0.2,0,0.2,0.1c0,0.2,0,0.5-0.1,0.7c0,0.1-0.1,0.1-0.1,0.2c0.1,0.1,0.2,0,0.2,0
		c0.1,0,0.1,0,0.2-0.1c0.6-0.2,0.6-0.2,0.4-0.8c-0.1-0.3-0.1-0.4,0.2-0.4c0,0,0.1,0,0.1-0.1C35.8,80.4,35.7,80.2,35.6,80.2z
		 M32.3,79.8c0.2-0.3,0.4-0.5,0.7-0.6c0.1,0,0.1,0,0.2,0c0.2,0,0.4,0,0.4,0.1c0,0.2-0.2,0.2-0.3,0.2c-0.2,0.2-0.5,0.3-0.8,0.4
		c-0.1,0-0.1,0.1-0.2,0C32.3,79.9,32.3,79.9,32.3,79.8z M32.1,81.8c-0.2-0.2-0.3-0.4-0.5-0.6c0-0.1-0.1-0.1,0-0.2
		c0.2-0.1,0.4-0.3,0.6-0.4c0.1,0,0.1,0,0.2,0c0,0.1,0.1,0.1,0.1,0.2c0.5,0.6,0.5,0.6-0.1,1C32.3,81.9,32.2,81.9,32.1,81.8z M33.3,82
		c0,0.1-0.1,0.3-0.3,0.3c-0.2,0.1-0.6,0-0.6-0.1c0-0.1,0-0.1,0.1-0.1c0.1-0.1,0.2-0.2,0.3-0.2c0.1-0.1,0.2-0.2,0.3-0.1
		C33.3,81.8,33.3,81.9,33.3,82z M34.5,80.6c-0.4,0.2-0.8,0.3-1.2,0.6c-0.2,0.1-0.3-0.1-0.4-0.2c-0.1-0.2-0.4-0.4-0.3-0.7
		c0,0,0,0,0.1,0c0.4-0.2,0.8-0.5,1.3-0.7c0.1-0.1,0.2,0,0.2,0.1c0.2,0.2,0.4,0.5,0.5,0.7C34.7,80.5,34.6,80.6,34.5,80.6z"/>
	<path d="M37.5,77c-0.3-0.7-0.6-1.4-0.9-2.1c-0.2-0.7-0.7-0.7-1.2-0.4C32.1,76,29,78,26.4,80.6c-2.4,2.4-4.6,4.9-6.6,7.6
		c-0.9,1.2-0.9,1.2,0.1,2.3c2,2.4,4.5,4.3,6.4,6.8c0.2,0.2,0.4,0.6,0.8,0.5c0.3-0.1,0.4-0.5,0.5-0.8c0.3-1.6,1-3,1.8-4.4
		c2.2-4,5.4-7.3,9.1-9.9c0.5-0.3,0.7-0.8,0.6-1.3C38.5,79.9,38.2,78.4,37.5,77z M37.5,82c-4.7,3.6-8.3,8.2-10.7,13.7
		c-0.2,0.6-0.4,0.6-0.7,0.1c-1.9-2.1-3.7-4.1-5.6-6.2c-0.3-0.3-0.1-0.5,0-0.7c0.7-1,1.3-1.9,2-2.8c3.1-3.9,6.8-7.3,11.2-9.8
		c0.3-0.2,0.6-0.3,0.7-0.3c1.4-0.6,1.5-0.6,1.9,0.5c0.7,1.5,1.1,3.2,1.5,4.8C37.9,81.6,37.8,81.8,37.5,82z"/>
	<path d="M18.9,52.5C18.9,52.5,18.9,52.5,18.9,52.5c0.5-0.1,0.6,0.2,0.6,0.5c0.1,0.2,0.2,0.4,0.5,0.5c0.3,0,0.5-0.1,0.6-0.4
		c0.1-0.5,0.1-0.5,0.5-0.4c0.2,0.1,0.4,0.1,0.6,0.2c0.1,0,0.1,0.1,0.1,0.2c-0.1,0.2-0.3,0.3-0.4,0.4c-0.1,0-0.1,0-0.1,0.1
		c0,0.1,0.1,0.1,0.2,0.1c0,0,0.1,0,0.1,0c0.5,0.1,0.5,0.2,0.7-0.3c0.1-0.2,0.2-0.3,0.4-0.2c0,0,0.1,0,0.1,0c0.1,0,0.1-0.2,0-0.2
		c0,0-0.1-0.1-0.1-0.1c-0.3,0-0.3-0.2-0.2-0.5c0,0,0-0.1,0-0.1c0-0.2,0-0.4,0.1-0.5c0.1-0.1,0.3,0,0.4,0c0.1,0,0.1,0,0.1,0
		c0-0.1,0-0.1,0-0.2c0,0-0.1,0-0.1,0c-0.4,0-0.5-0.3-0.7-0.6c-0.2-0.5-0.6-0.7-1.1-0.7c-0.5,0-0.7,0.1-0.8,0.6
		c0,0.2-0.1,0.2-0.2,0.2c-0.1,0-0.2,0-0.3-0.1c-0.1,0-0.2,0-0.2-0.1c0-0.1,0.1-0.1,0.1-0.2c0.1,0,0.1-0.1,0.2-0.1c0,0,0.1,0,0.1-0.1
		c0-0.1,0-0.1-0.1-0.1c-0.1,0-0.3-0.1-0.4-0.1c-0.1,0-0.2,0.1-0.2,0.2c0,0.3-0.1,0.4-0.4,0.4c-0.1,0-0.2,0-0.2,0.1
		c0,0.1,0.1,0.2,0.2,0.1c0.3,0,0.3,0.1,0.3,0.3c0,0.2,0,0.3,0,0.5c0,0.2-0.1,0.2-0.2,0.2c-0.1,0-0.2,0-0.2,0c-0.1,0-0.1,0-0.1,0.1
		C18.7,52.5,18.8,52.5,18.9,52.5z M20.8,51c0.2-0.1,0.5-0.1,0.7,0c0.1,0,0.1,0.1,0.1,0.1c0.1,0.1,0.3,0.2,0.2,0.3
		c-0.1,0.1-0.2,0-0.3,0c-0.2,0-0.5-0.1-0.7-0.1c-0.1,0-0.1,0-0.1-0.1C20.7,51.1,20.7,51,20.8,51z M20.6,52c0-0.2,0-0.4,0.1-0.6
		c0,0,0,0,0.1,0c0.4,0.1,0.8,0.1,1.2,0.2c0.1,0,0.1,0.1,0.1,0.2c0.1,0.2,0,0.5-0.1,0.7c0,0.1-0.1,0.1-0.2,0.1
		c-0.3-0.1-0.7-0.2-1.1-0.3C20.5,52.3,20.6,52.2,20.6,52z M20.3,52.9C20.2,53,20,53,19.9,53c-0.1,0-0.3-0.3-0.3-0.4c0,0,0.1,0,0.1,0
		c0.1,0,0.2,0,0.3,0c0.1,0,0.2,0,0.2,0.1C20.4,52.7,20.4,52.8,20.3,52.9z M19.6,51.4c0-0.1,0-0.1,0.1-0.1c0.2,0,0.4,0.1,0.6,0.1
		c0.1,0,0.1,0.1,0.1,0.1c0,0.1,0,0.1,0,0.2c0,0.6,0,0.6-0.6,0.6c-0.1,0-0.2,0-0.2-0.2C19.6,51.9,19.6,51.7,19.6,51.4z"/>
	<path d="M27.4,54.1C27.4,54.1,27.4,54.2,27.4,54.1c0.5,0.1,0.4,0.4,0.4,0.8c0,0.2,0,0.5,0.2,0.6c0.3,0.2,0.5,0.1,0.7-0.2
		c0.3-0.4,0.3-0.4,0.6-0.1c0.2,0.1,0.3,0.3,0.5,0.4c0.1,0.1,0.1,0.1,0,0.2C29.6,56,29.4,56,29.2,56c-0.1,0-0.1,0-0.2,0
		c0,0.1,0,0.1,0.1,0.2c0,0,0.1,0.1,0.1,0.1c0.4,0.3,0.4,0.3,0.7,0c0.2-0.2,0.3-0.2,0.4,0c0,0,0.1,0,0.1,0.1c0.1,0,0.1-0.2,0.1-0.2
		c0,0,0-0.1-0.1-0.1c-0.3-0.2-0.2-0.3,0-0.5c0,0,0-0.1,0.1-0.1c0.1-0.1,0.1-0.3,0.2-0.4c0.1,0,0.2,0.1,0.4,0.2c0,0,0.1,0.1,0.1,0
		c0.1,0,0.1-0.1,0-0.2c0,0,0-0.1-0.1-0.1c-0.3-0.2-0.4-0.5-0.4-0.8c0-0.5-0.2-0.9-0.7-1.1c-0.4-0.2-0.7-0.2-0.9,0.2
		c-0.1,0.1-0.1,0.1-0.3,0.1c-0.1-0.1-0.2-0.1-0.3-0.2c-0.1,0-0.1-0.1-0.1-0.2c0-0.1,0.1-0.1,0.2-0.1c0.1,0,0.2,0,0.2,0
		c0,0,0.1,0,0.1,0c0-0.1,0-0.1,0-0.1c-0.1-0.1-0.2-0.2-0.4-0.3c-0.1-0.1-0.2,0-0.2,0.1c-0.1,0.2-0.2,0.4-0.5,0.2
		c-0.1-0.1-0.2-0.1-0.2,0c0,0.1,0,0.2,0.1,0.2c0.3,0.1,0.2,0.2,0.1,0.4c-0.1,0.1-0.1,0.3-0.2,0.5c-0.1,0.2-0.2,0.2-0.3,0.1
		c-0.1,0-0.1-0.1-0.2-0.1c-0.1,0-0.1,0-0.2,0C27.3,54,27.3,54.1,27.4,54.1z M29.6,53.7c0-0.1,0.1-0.1,0.1-0.1c0.3,0,0.5,0.1,0.7,0.3
		c0,0.1,0.1,0.1,0.1,0.1c0,0.1,0.2,0.3,0.1,0.4c-0.1,0.1-0.2-0.1-0.3-0.1c-0.2-0.1-0.4-0.3-0.6-0.4C29.6,53.8,29.6,53.7,29.6,53.7z
		 M29.5,53.9C29.5,53.9,29.5,54,29.5,53.9c0.4,0.2,0.7,0.5,1,0.7c0.1,0,0.1,0.1,0,0.2c0,0.2-0.2,0.4-0.4,0.6c-0.1,0.1-0.2,0-0.2,0
		c-0.3-0.3-0.6-0.5-0.9-0.7c-0.2-0.1,0-0.3,0-0.4C29.2,54.3,29.2,54,29.5,53.9z M28.2,54.1c0.1-0.2,0.2-0.4,0.3-0.6
		c0-0.1,0.1-0.1,0.1-0.1c0.2,0.1,0.4,0.2,0.5,0.3c0.1,0.1,0.1,0.1,0,0.1c0,0.1-0.1,0.1-0.1,0.2c-0.3,0.6-0.2,0.6-0.8,0.3
		C28.2,54.3,28.1,54.2,28.2,54.1z M28,54.5c0,0,0.1,0,0.1,0c0.1,0,0.2,0.1,0.3,0.1c0.1,0,0.2,0.1,0.2,0.2c0,0.1-0.1,0.2-0.2,0.2
		c-0.1,0-0.2,0-0.3-0.1C28,54.9,28,54.6,28,54.5z"/>
	<path d="M15.2,56.3c1.3-0.4,2.6-0.4,3.9-0.3c3.8,0.2,7.4,1.3,10.7,3.1c0.4,0.2,0.8,0.3,1.2-0.1c0.9-0.8,1.9-1.6,2.7-2.6
		c0.4-0.5,0.8-1,1.3-1.4c0.4-0.4,0.3-0.8-0.1-1c-2.4-1.9-5-3.5-8-4.5c-2.6-0.9-5.3-1.6-8.1-2.1c-1.2-0.2-1.2-0.2-1.7,0.9
		c-1,2.4-1.5,4.9-2.7,7.3c-0.1,0.2-0.3,0.5-0.1,0.8C14.6,56.4,14.9,56.4,15.2,56.3z M15.5,54.8c0.9-2.1,1.7-4.3,2.5-6.4
		c0.1-0.3,0.3-0.3,0.5-0.3c0.9,0.1,1.9,0.3,2.8,0.5c4.1,0.9,7.9,2.3,11.4,4.7c0.2,0.2,0.4,0.3,0.5,0.4c1,0.8,1,0.9,0.3,1.6
		c-0.9,1.1-1.9,2-3,2.9c-0.2,0.2-0.4,0.2-0.7,0c-4.4-2.2-9.1-3.2-14.1-2.9C15.4,55.3,15.4,55.2,15.5,54.8z"/>
	<path d="M84.7,24.6c-1.7,1.3-3.2,2.7-4.2,4.7c-0.3,0.5-0.4,1.1,0.3,1.5c0.7,0.3,1-0.2,1.3-0.7c0.4-0.8,0.8-1.6,1.3-2.3
		c1.9-2.5,5.1-2.6,7-0.2c0.4,0.5,0.8,0.4,1.1,0c0.3-0.4,0.4-0.8,0.2-1.3c-0.7-1.6-1.6-2.8-4-2.9C86.6,23.3,85.6,23.9,84.7,24.6z"/>
	<path d="M103,39.5c1,1.2,2.1,2.3,3,3.5c1.2,1.7,1.7,3.8-0.3,5.1c-0.3,0.2-0.4,0.5-0.2,0.7c0.2,0.3,0.4,0.1,0.7,0
		c1.3-0.4,2.3-2,2.3-3.5c0-0.6-0.2-1.2-0.5-1.8c-1-2.1-3-3.2-4.5-4.6c-0.2-0.2-0.5-0.6-0.9-0.3C102.4,39.1,102.8,39.3,103,39.5z"/>
	<path d="M75.3,38.7c-0.7-0.8-1.7-0.9-2.6-1.3c-1.3-0.6-2.7-1.1-4.2-1.2c-0.6,0-1.3-0.1-1.4,0.7c0,0.7,0.7,0.6,1.2,0.7
		c1.4,0.1,2.7,0.6,4,1.2c0.7,0.4,1.5,0.7,2.3,1.1c0.4,0.2,0.8,0.2,1-0.2C75.8,39.1,75.5,38.9,75.3,38.7z"/>
	<path d="M83.8,37c-1,0.1-1,0.8-1.1,1.6c0,0.8,0.4,1.5,0.9,2.2c0.5,0.6,1.4,0.3,1.8-0.4c0.3-0.7,0.2-1.5-0.1-2.2
		C85,37.5,84.7,36.9,83.8,37z"/>
	<path d="M101.6,37.7c0.8-0.1,0.8-0.8,0.8-1.5c0-0.9-0.2-1.7-0.9-2.4c-0.3-0.3-0.6-0.6-1-0.4c-0.4,0.1-0.5,0.6-0.6,0.9
		c-0.2,0.8,0.1,1.6,0.3,2.3C100.5,37.4,100.9,37.8,101.6,37.7z"/>
	<path d="M115,107.2c0.1,0.7,0.1,1.5,1.1,1.6c0.8,0.1,1.6-1,1.6-2.1c0-0.9-0.6-1.7-1.2-1.7C115.8,105.1,115,106.2,115,107.2z"/>
	<path d="M111.8,85.6c0.8,0,1.3-0.6,1.2-1.6c0-1-0.7-1.8-1.5-1.8c-0.7,0-1.1,0.7-1.1,1.7C110.4,85,111,85.6,111.8,85.6z"/>
	<path d="M114.4,96.4c0.9,0.1,1.3-0.4,1.3-1.5c0-1-0.6-1.8-1.3-1.7c-0.9,0.1-1.2,0.8-1.2,1.6C113.3,95.4,113.4,96.2,114.4,96.4z"/>
	<path d="M70.1,118.7c-0.9,0-0.9,0.7-0.9,1.4c0,0.6,0.1,1.2,1,1.2c0.8,0,1.2-0.5,1.2-1.3C71.4,119.3,71,118.7,70.1,118.7z
		 M70.3,120.6c-0.4,0-0.5-0.3-0.5-0.6c0-0.3,0.1-0.5,0.4-0.5c0.4,0,0.6,0.2,0.5,0.6C70.7,120.4,70.6,120.6,70.3,120.6z"/>
</g>
</svg>
