<?xml version="1.0" encoding="utf-8"?>
<!-- Generator: Adobe Illustrator 22.0.1, SVG Export Plug-In . SVG Version: 6.00 Build 0)  -->
<svg version="1.1" id="Layer_1" xmlns="http://www.w3.org/2000/svg" xmlns:xlink="http://www.w3.org/1999/xlink" x="0px" y="0px"
	 viewBox="0 0 140.1 185.7" style="enable-background:new 0 0 140.1 185.7;" xml:space="preserve">
<g>
	<path d="M96.9,38.1c-6.4-2.5-13.1-3.1-19.8-2.7c-6,0.3-11.9,1.3-17.6,2.9c-1.8,0.5-1.7-0.7-2-1.7c-0.3-1.1-0.6-2,1.1-2.4
		c7.4-1.5,14.8-2.8,22.4-2.9c1.5,0,2.2-0.5,2.1-2.1c-0.2-6.7-1-13.4-1.8-20c-0.2-1.3-1-1.8-2.2-2.1c-6.6-1.5-13.3-1.7-20-1.1
		c-3.7,0.3-7.4,1.1-11,2.1c-2.2,0.6-2.2,0.6-1.4,2.7c3.1,8.9,6,17.8,7.8,27.1c0.3,1.4,0,2-1.3,2.4c-4.6,1.6-9.2,3.4-13.4,5.8
		c-6.1,3.5-11.7,7.7-17,12.2c-0.4,0.4-0.8,1.1-1.5,0.8c-0.7-0.3-0.5-1-0.6-1.6c-1.1-9.4-3.8-18.3-7.7-26.9c-0.6-1.3,1.3-4.5,2.7-4.5
		c0.7,0,0.6,0.7,0.8,1.1c2.9,6.2,5.5,12.6,7.7,19.1c0,0.1,0,0.1,0,0.2c1.3,4,1.3,3.9,4.2,1c0.7-0.7,0.8-1.3,0.4-2.2
		c-3.1-7.9-6.2-15.7-9.3-23.6c-0.4-1.2-0.9-1.2-1.8-0.4c-2.2,1.9-4.5,3.6-6.5,5.9C10.7,26,10.1,25,9.5,24c-0.7-1.2,0.1-1.9,0.7-2.7
		c2.7-3.4,6.1-6,9.8-8.3c9.5-5.9,19.9-9.1,30.7-11.3c7.7-1.6,15.5-2.2,23.4-1.4c8.5,0.8,16.6,2.9,24.1,7.2c0.9,0.5,1.4,1.1,1.3,2.2
		c-1.6,13.3,1.6,25.9,5.7,38.4c0.5,1.7,1,3.3,1.7,5c0.6,1.6,0.2,2.4-1.5,2.9c-2.5,0.8-5,0.7-7.5,0.3c-3.7-0.6-7.4-1.2-11.1-1.7
		c-1.2-0.2-1.8-0.8-2.1-1.9c-1-4.2-1.6-8.5-2.1-12.9c-0.1-1.3,0.5-1.8,1.7-1.7c3.6,0,7.1,0,10.7,0C95.5,38.1,96.2,38.1,96.9,38.1z"
		/>
	<path d="M109,144.8c-7.2-0.1-13.2-2.1-18.8-5.7c-0.9-0.6-1.4-0.6-2.3,0.2c-2.6,2.3-6.2,2.4-8.7,0c-0.9-0.8-1.4-0.7-2.3-0.2
		c-4.3,2.8-8.9,4.5-13.9,5.3c-10.7,1.7-19.2-2.3-25.9-10.4c-3.8-4.5-6.5-9.7-9.6-14.7c-0.5-0.8-1.3-1.9-0.5-2.6
		c0.8-0.6,1.6,0.5,2.3,1c1,0.7,1.8,1.6,2.8,2.3c5.5,4.2,11.5,4.1,17.8,2c4.6-1.5,8.6-4,12.7-6.4c3.9-2.4,8-2.8,12.4-1.7
		c1.5,0.3,2.5,1,2.2,2.7c-0.2,1.3-1.5,1.9-3.2,1.5c-4-1-7.5-0.1-10.8,2.1c-5.5,3.6-11.4,6.4-18,7.3c-2.1,0.3-4.2,0.2-6.3-0.1
		c-0.3,0-0.8-0.2-1,0.2c-0.2,0.4,0.1,0.7,0.3,1c7.4,9.9,15.8,14.4,28.2,10.7c6-1.8,11-5.2,15.1-9.8c1.3-1.5,2.5-1.3,4.2,0.5
		c5.5,5.9,12.2,9.6,20.3,10.5c6.9,0.8,12.7-1.6,17.6-6.3c1.8-1.7,3.4-3.4,4.9-5.4c0.2-0.3,0.7-0.6,0.4-1.1c-0.2-0.4-0.7-0.2-1-0.2
		c-8.1,1-15-2-21.8-5.8c-2.7-1.5-5.1-3.7-8.4-3.9c-1.8-0.2-3.6-0.1-5.4,0.5c-3.1,1-6.4,1.4-9.6,1.3c-0.7,0-1.3-0.1-1.9-0.3
		c-0.8-0.3-1.4-0.9-1.4-1.7c0.1-1,1-0.7,1.6-0.7c5-0.2,6.5-4.3,5-8.6c-0.7-2.1-1.8-3.9-3.2-5.6c-0.5-0.7-1.5-1.5-0.5-2.3
		c0.9-0.9,1.8-0.1,2.5,0.5c3.5,3.2,5.6,7.1,5.8,11.9c0,1.3,0.3,1.6,1.5,1.3c5-1.2,9.5-0.2,13.8,2.6c4.7,3.1,9.7,5.6,15.4,6.6
		c5.1,0.9,9.6-0.3,13.7-3.2c1.2-0.8,2.3-1.5,3.6-2.1c0.4-0.2,0.8-0.5,1.2,0c0.3,0.3,0.2,0.7,0.1,1c-0.2,0.6-0.4,1.3-0.8,1.8
		c-3.1,4.1-5.4,8.8-8.6,12.7c-4.9,5.8-10.8,10-18.4,11.2C110.9,144.8,109.7,144.8,109,144.8z"/>
	<path d="M58.2,54.7c9.5-0.2,18.3,0.9,27.1,2.8c8.9,1.9,17.6,1.9,26.2-1c4.4-1.5,8.2-4,12-6.6c1.8-1.2,3.5-2.4,5.3-3.4
		c2-1.2,4.2-1.2,5.1-0.2c0.9,1,0.8,3.5-0.3,5.3c-1.3,2.3-3.3,3.8-5.4,5.3c-10.5,7.5-22.2,10.2-35,8.5c-7.8-1.1-15.4-2.9-23.2-3.8
		c-13.4-1.6-26.6-1.3-39.4,3.7c-6.1,2.4-12.1,5-16.9,9.6c-7.9,7.7-9.1,16.9-5.8,27c0.5,1.4,0.5,2.4-1,3c-0.7,0.3-1.3,0.9-1.9,1.4
		c-1.4,1.1-1.8,1.1-2.4-0.6C-0.5,97.6-1,89.4,2.2,81.3c2.6-6.5,7.4-11.1,13.4-14.5c9.5-5.5,19.6-9.4,30.4-11.2
		C50.2,54.9,54.4,54.6,58.2,54.7z"/>
	<path d="M23.1,124.2c-1.1,1.2-0.8,2.4-0.3,3.7c4.6,12.2,13.1,20.7,24.7,26.2C63,161.4,79,161.9,95,156c4.1-1.5,8.2-3.5,11.4-6.6
		c2.7-2.5,5.8-2.5,9.4-2.9c-1.9,2.4-3.9,4.2-6,5.8c-9,7-19.2,10.7-30.5,11.8c-13.2,1.3-25.6-1.1-37.2-7.4c-10.9-6-19.3-14.5-24-26.2
		c-0.4-0.9-1-1-1.8-1.1c-3.5-0.3-6.9-0.9-9.5-3.4c-3.7-3.5-5.3-9.9-3.4-14.4c2.2-5.3,6.7-7.2,12-7.5c4.5-0.3,8.2,1.3,10.5,5.3
		c0.4,0.6,0.9,1.4,0.4,2c-0.6,0.8-1.4,0.3-2.1-0.1c-3.6-1.9-7.4-2.9-11.5-1.9c-3.3,0.8-5.1,2.9-5.2,5.9c-0.2,4.1,1.5,7.3,4.5,8.5
		c2.6,1,5.2,0.9,7.8,0.4C20.9,124.1,21.9,124,23.1,124.2z"/>
	<path d="M54.9,65.3c3.1,0,6.2,0.1,9.2,0.8c0.6,0.2,1.6,0.3,1.6,1c0,0.9-1,0.6-1.6,0.7c-7.4,0.9-14.3,3.2-21.1,6.3
		c-5,2.3-9.9,4.8-14.1,8.4c-5.3,4.6-8.1,10.4-8.6,17.4c-0.2,2.4-0.2,2.5-2.6,2.1c-1.6-0.2-3.2-0.1-4.7,0.2c-1.3,0.3-1.7-0.1-1.8-1.4
		c-0.7-6.6,1.4-12.3,5.1-17.5c6.4-9,15.5-14,26-16.6C46.4,65.7,50.6,65.2,54.9,65.3z"/>
	<path d="M90,178.2c0.4-2.3,0.1-4.6,0.2-6.8c0-1,0.2-2.1,0.1-3.1c-0.3-2,0.4-2.4,2.3-2.3c2.8,0.2,2.8,0.1,2.8,3c0,4.5,0,8.9,0,13.4
		c0,3.1-1.9,4.2-4.5,2.6c-4.2-2.6-8.3-5.1-12.4-7.8c-1.4-0.9-2.5-0.9-3.9,0c-4,2.6-8,5.1-12.1,7.7c-1.1,0.7-2.2,1.3-3.5,0.6
		c-1.3-0.7-1.3-1.9-1.3-3.1c0-4.8,0-9.6,0-14.3c0-1.5,0.4-2,2-1.9c3.2,0.3,3.2,0.2,3.2,3.4c0,2.5,0,5,0,7.4c0,0.4-0.3,1,0.3,1.3
		c0.4,0.2,0.8-0.3,1.1-0.5c3.3-2.1,6.7-4.1,9.9-6.3c1.7-1.1,3-1.1,4.6,0c3.2,2.1,6.5,4.1,9.8,6.2C89,177.7,89.4,177.9,90,178.2z"/>
	<path d="M128,114.6c-0.1,1.8-0.2,3.6-0.4,5.4c-0.2,1.5-1.8,2.3-3.8,2c-1.6-0.2-1.2-1.4-1.1-2.4c1-11.9-0.8-23.4-4.2-34.8
		c-1.6-5.6-4-11-7.3-15.9c-0.8-1.3-0.4-1.9,0.8-2.2c0.5-0.1,1.1-0.2,1.6-0.4c1.3-0.5,2,0,2.6,1.1c3.5,6.5,5.8,13.3,7.6,20.4
		c1.1,4.4,2,8.8,2.7,13.3C127.3,105.5,127.9,110,128,114.6z"/>
	<path d="M59,107.4c-1.4,0.2-2.5,0.1-2.2-1.8c0.1-0.8-0.5-0.9-0.9-1.1c-1-0.5-1.7-1.2-2.1-2.1c-1.5-2.9-0.7-4.1,2.6-4.2
		c0.7,0,1,0.3,1.1,0.9c0.2,0.8,0.5,1.5,1.5,1.6c0.9,0.1,1.8,0,2.1-1c0.3-1-0.5-1.4-1.3-1.7c-1.2-0.5-2.4-0.9-3.5-1.4
		c-1.8-0.9-2.9-2.4-2.8-4.5c0-2.1,0.7-3.9,2.7-4.9c0.6-0.3,1-0.6,0.9-1.3c-0.2-1.4,0.7-1.7,1.8-1.5c1.1,0.2,3-0.9,2.9,1.5
		c0,0.7,0.3,1.1,0.9,1.4c0.9,0.4,1.7,1,2.1,1.9c0.5,1,1.2,2.1,0.6,3.1c-0.7,1-2.2,0.8-3.3,1.1c-0.5,0.1-0.7-0.4-0.8-0.8
		c-0.2-0.6-0.5-1.1-1.1-1.4c-0.8-0.3-1.5-0.3-1.9,0.5c-0.4,0.7,0.1,1.3,0.8,1.5c1.2,0.5,2.5,0.9,3.7,1.5c2.8,1.4,3.9,3.8,3,6.6
		c-0.5,1.6-1.8,2.5-3.2,3.3c-0.4,0.2-1.1,0.1-1,0.8C61.8,107.6,60.5,107.6,59,107.4z"/>
	<path d="M103.1,107.4c-1.4,0.2-2.6,0.2-2.3-1.8c0.1-0.7-0.4-0.8-0.8-1c-1-0.5-1.8-1.2-2.3-2.2c-0.4-1-1.1-2.2-0.5-3.1
		c0.7-1,2.2-0.7,3.4-1c0.6-0.1,0.8,0.4,0.8,0.9c0.2,1.1,0.9,1.5,1.9,1.5c0.7,0,1.5-0.1,1.7-1c0.2-0.8-0.3-1.3-1-1.5
		c-1-0.4-2-0.7-3.1-1.1c-2.1-0.8-3.4-2.3-3.6-4.6c-0.2-2.3,0.7-4.1,2.8-5.2c0.5-0.3,1-0.4,0.9-1.1c-0.2-2.6,1.8-1.4,2.9-1.6
		c1.2-0.3,2,0.2,1.7,1.7c-0.1,0.7,0.3,0.9,0.9,1.2c0.8,0.3,1.4,0.9,1.9,1.6c0.7,1,1.5,2.2,0.8,3.3c-0.6,1-2.2,0.9-3.3,1.2
		c-0.6,0.2-0.8-0.4-0.9-0.9c-0.2-0.7-0.6-1.1-1.3-1.3c-0.6-0.2-1.2-0.1-1.6,0.5c-0.4,0.7,0.1,1.2,0.6,1.5c1.1,0.6,2.3,1.1,3.5,1.5
		c2.3,0.9,3.7,2.5,3.7,4.9c0,2.4-1.2,4.1-3.4,5.1c-0.5,0.2-1.2,0.2-1.1,1C105.8,107.8,104.4,107.5,103.1,107.4z"/>
	<path d="M25.2,59.6c3.7-3.6,7.6-6.4,11.7-9c5.2-3.3,10.8-5.9,16.7-7.6c1.1-0.3,1.8-0.2,2.1,1c0.5,2.2,0.9,4.4,1.3,6.6
		c0.2,1.1-0.2,1.7-1.5,1.7c-9.8,0.2-19,2.9-28,6.7C27,59.3,26.4,59.7,25.2,59.6z"/>
	<path d="M139.1,105.7c0.1,5.3-3,10.2-7.7,12.1c-0.6,0.2-1.2,0.4-1.6-0.2c-0.8-1.1,0-4.4,1.2-5.1c2.6-1.6,4.3-3.7,3.8-7
		c-0.5-3.2-2.1-5.5-5.2-6.5c-1.4-0.4-2.4-3.1-1.7-4.4c0.4-0.8,1.1-0.5,1.8-0.4C135.1,95.1,139,99.8,139.1,105.7z"/>
	<path d="M67.8,81.8c0,1.7-1,2.5-2.4,1.9c-1.3-0.5-2.6-1.2-3.9-2c-5.4-3.2-8.9-2.3-12.1,3c-0.2,0.4-0.4,0.7-0.7,1.1
		c-0.3,0.4-0.4,1.4-1.2,1.1c-0.8-0.3-0.5-1.1-0.4-1.7c0.8-5.5,7.5-10.6,12.9-9.7c3,0.5,5.4,2.4,7.1,4.9
		C67.6,80.8,67.7,81.5,67.8,81.8z"/>
	<path d="M100.8,75.2c4.8,0.4,8,3.3,10.3,7.3c0.6,1,1.1,2,1.2,3.2c0,0.5,0.1,1.2-0.6,1.3c-0.6,0.1-0.8-0.5-1-0.9
		c-0.9-1.8-2-3.5-3.5-4.8c-2.2-1.9-4.6-2-7.1-0.8c-1.8,0.9-3.5,1.9-5.3,2.8c-0.9,0.5-2,1-2.8,0.1c-0.8-0.9-0.6-2.1,0.1-3
		C94.2,77.5,97,75.5,100.8,75.2z"/>
	<path d="M37.7,96.8c-0.2,0.8-0.7,1.5-1.5,1.8c-2.6,1.1-5.2,2.1-7.9,3.1c-1,0.4-1.8-0.2-2.1-1.1c-0.4-1.3,0.4-2.2,1.5-2.5
		c2.2-0.5,4.2-1.5,6.3-2.2c0.9-0.3,1.8-0.3,2.7-0.2C37.3,95.9,37.6,96.2,37.7,96.8z"/>
	<path d="M34.2,90.6c0.9,0.1,1.9,0.1,2,1.1c0.1,0.8-0.4,1.6-1.2,1.9c-2.8,1-5.6,2-8.4,2.9c-0.9,0.3-1.7-0.3-2-1.1
		c-0.4-0.9,0-1.9,0.8-2.1C28.5,92.2,31.3,91.1,34.2,90.6z"/>
</g>
</svg>
