<?xml version="1.0" encoding="utf-8"?>
<!-- Generator: Adobe Illustrator 22.0.1, SVG Export Plug-In . SVG Version: 6.00 Build 0)  -->
<svg version="1.1" id="Layer_1" xmlns="http://www.w3.org/2000/svg" xmlns:xlink="http://www.w3.org/1999/xlink" x="0px" y="0px"
	 viewBox="0 0 123.6 178.6" style="enable-background:new 0 0 123.6 178.6;" xml:space="preserve">
<g>
	<path d="M123,72.7c-1.2-4.6-4.5-7.7-8.5-9.9c-3.9-2.2-8.2-3.5-12.6-4.4c-7.7-1.6-15.4-2-23.2-1.8c-1.5,0-1.5,0-0.8-1.2
		c0.8-1.6,1.5-3.3,1.9-5.1c0.5-2.3,0.8-4.5,0.1-7c-1.2,1-2.4,1.5-3.8,1.8C76,44.9,76,44.9,76,44.8c-0.4-7.4-3.5-13.7-8.4-19.2
		c-0.5-0.6-0.4-0.9-0.1-1.4c1.3-1.7,2.4-3.6,3.2-5.6c0.6-1.4,0.9-2.9,0.9-4.5c-0.1-2.2-1.5-3.5-3.3-4.4c-1.1-0.5-2.1,0.5-3,1
		c-1,0.6-2,1.3-2.9,2c-1.8,1.4-3.6,2.8-5.4,4.3c-0.4,0.3-0.7,0.6-1.2,0.1c-4.3-4.3-8.4-8.7-11.6-14c-1.2-2-3.1-3.2-5.6-3.1
		c-4.4,0.2-8.6,1.3-12.6,3.2C17.8,7.3,12,13.9,7.6,21.9C7.2,22.5,7,23.2,6.9,24c-0.2,2.2-0.4,4.4-0.6,6.6c-0.1,0.8,0.2,1.3,0.8,1.7
		c2.4,1.8,4.8,3.6,7,5.7c0.6,0.6,0.7,1.2,0.3,2c-1.6,3.1-2.7,6.4-3.1,10c-0.5,5.1,2,8.8,7,10.1c1.9,0.5,3.9,0.6,5.8,0.5
		c0.6,0,1.2,0.1,1.7,0.5c1.5,1.4,3.2,2,5.2,1.7c0.8-0.1,1.3,0.2,1.8,0.9c1.9,2.5,3.9,5,6.4,6.9c1,0.7,1.1,1.4,0.7,2.4
		c-3.4,9.9-8.4,18.8-16.3,25.7c-1.2,0.9-2.4,1.7-2.5,1.8c-3.6,2.6-7.2,5.2-10.8,7.8c-0.6,0.5-1.2,0.7-2,0.7c-2.3-0.1-4.6-0.1-7-0.1
		c-0.4,0-1-0.2-1.1,0.5c-0.3,1.2-0.5,2.4,0.3,3.5c0.9,1.2,2.1,2,3.5,2.5c0.9,0.3,2.2-0.2,2.5,0.6c0.2,0.8-0.3,1.9-0.7,2.8
		c-1.9,4.8-1.8,9.8-1.8,14.8c0,2.5,1.6,4.5,3.7,4.6c1.8,0.1,3.7,0.2,5.5-0.1c6.5-1,12.2-3.8,17.4-7.7c3.2-2.4,6.1-5.2,8.7-8.4
		c0.9-1.1,1.3-1.1,2.1-0.1c0.2,0.2,0.4,0.2,0.7,0.2c1.2,0.1,1.8-0.6,2.5-1.6c-0.1,2.6-0.6,4.2-1.7,6.1c-1.1,1.8-2.1,3.6-3,5.5
		c-0.6,1.4-1.2,2.9-1.4,4.4c-0.1,0.8,0.1,0.9,0.8,0.7c1.3-0.3,2.4-0.9,3.4-1.8c0.7-0.6,1.3-1.3,1.9-2c0.1,0,0.3,0.1,0.4,0.1
		c0.3,10-2.9,19.5-5,29.1c0.4,0.2,0.9,0.1,1.3,0.1c5.5,0,11,0,16.5,0c0.9,0,1.3,0.2,1.1,1.1c-0.2,1.3-0.8,2.4-0.6,3.8
		c0.1,0.4-0.4,0.5-0.7,0.4c-1.8,0-3.6-0.1-5.4-0.1c-0.4,0-0.7-0.1-0.7-0.6c0-0.9-0.5-0.8-1.1-0.6c-1.5,0.5-3,1.3-4.5,1.3
		c-4.3,0.2-8.6,0.2-12.8,0.2c-0.3,0-0.7,0.1-0.7-0.4c0-0.4,0.4-0.3,0.7-0.4c1.8-0.3,3.6-0.8,5.2-1.8c1-0.6,2-1.2,2.6-2.4
		c-3.9,1.4-7.7,2.9-11.5,4.3c0.4,1.3,1.2,1.9,2.6,1.8c2.4-0.1,4.9,0,7.3,0c3.5,0,7,0.3,10.3-1.5c0.5-0.3,0.9-0.1,0.8,0.5
		c-0.1,0.8,0.3,0.9,1,0.9c2.5,0,5,0,7.5,0c0.8,0,1-0.3,1-1c0-0.6,0-1.3,0-2c0-0.2,0-0.5,0.4-0.5c0.2,0,0.3,0.3,0.3,0.5
		c0,0.6,0.1,1.1,0,1.7c-0.1,0.9,0.2,1.3,1.2,1.3c2.6-0.1,5.1,0,7.7,0c0.8,0,1.2-0.2,1.1-1.1c-0.1-0.9,0.2-0.9,1-0.6
		c2,0.7,4.1,1.2,6.2,1.1c2.2-0.1,4.3,0,6.5,0c1,0,1.3,0.1,1,1.2c-0.7,2.1-1.2,4.2-1.9,6.3c-0.3,0.9-0.1,1.3,0.9,1.4
		c1.1,0.2,2.1,0.5,3.2,0.8c0.7,0.2,1,0,1.2-0.7c0.8-2.8,1.6-5.6,2.4-8.5c0.5-1.8,1-3.5,2.5-4.7c0.5-0.4,0.6-1,0.1-1.2
		c-0.9-0.5-0.5-1.1-0.3-1.7c3.4-12.2,6.8-24.3,10.1-36.5c1.5-5.3,3.5-10.5,2.8-16.1c0-0.3,0.1-0.6,0.2-0.8c1.4-2.6,2.1-5.9,5.9-6.4
		c0.1,0,0.3-0.2,0.4-0.2c1.6-1.1,2.2-2.3,1.8-4.3c-0.2-0.9,0.3-1.8,1.2-2c0.5-0.1,0.8-0.3,1.1-0.7c2.4-3.6,4.5-7.3,5.9-11.3
		C123.5,79.9,124,76.3,123,72.7z M105.4,71c0.4,0,0.9,0,1.3,0c0,0,0,0,0,0c0.5,0,1,0.1,1.5,0.1c0.5,0,0.8,0.2,0.8,0.8
		c0,0.5,0,0.8-0.6,1c-2.2,0.4-3.7,1.8-4.9,3.6c-1.2,1.7-2,3.6-2.6,5.6c-0.3,0.8-1.9,1.4-2.6,0.9c-0.3-0.2-0.2-0.4-0.1-0.6
		c1.5-3.5,3-7,5.8-9.7c0.4-0.4,0.9-0.6,0.8-1.3C104.8,70.9,105.1,71,105.4,71z M86.8,71.3c0.1-0.5,0.5-0.2,0.8-0.2
		c2.9,0.5,5.8,1,8.6,1.6c0.7,0.1,1.2,0.1,1.6-0.7c1-2,4.5-3.2,6.6-2.5c0.3,0.1,0.4,0.4,0.5,0.6c0.1,0.3-0.3,0.4-0.5,0.4
		c-2.3,0.8-4,2.4-5.3,4.3c-0.2,0.3-0.4,0.6-1,0.4c-3.1-0.4-6.4-0.8-9.6-1.5C87.7,73.6,86.6,71.9,86.8,71.3z M97.9,78.3
		c-0.1,1-0.2,2-0.9,2.8c-0.4,0.5-0.8,0.5-1.1-0.1c-0.7-1.3-1.5-2.6-2.2-3.9c-0.1-0.2-0.4-0.5-0.3-0.8c0.2-0.4,0.6-0.1,0.7-0.1
		c1.4-0.1,2.4,0.7,3.4,1.1C97.9,77.6,97.9,78,97.9,78.3z M78.4,72.9c5.5,4.6,10.1,9.9,12.7,16.7c0.4,0.9,0.4,1.5-0.5,2.2
		c-1.2,0.9-2.3,1.9-3.2,3c-0.3,0.4-0.6,0.5-1,0.3c0,0-0.1,0-0.1,0c-1-0.3-2.1-1.1-2.8-0.8c-0.9,0.3-1.4,1.5-2.1,2.3
		c-1.6,1.9-3.2,3.9-4.8,5.9c-0.5,0.6-0.8,0.7-1.5,0.3c-3.1-1.6-6.2-3.3-9.5-4.5c-0.6-0.2-0.5-0.6-0.5-1.1c0-3.3-0.1-16.4-0.2-19.7
		c0-0.8,0.1-1.3,0.9-1.8c1.9-1.3,3-3.3,4.2-5.2c0.4-0.7,0.8-0.9,1.6-0.6c1.9,0.9,3.8,1.6,5.8,2.4C77.7,72.4,78.1,72.6,78.4,72.9z
		 M87.7,106.2c1,1,1.9,2.1,2.8,3.1c0.3,0.3,0.3,0.7,0.2,1c-0.2,1.6-0.4,3.2-0.6,4.9c0,0.2,0,0.6-0.3,0.6c-1,0.2-2,0.3-3-0.1
		c-0.8-0.3-0.8-1-0.9-1.8c-0.1-2,0.3-4,0.8-5.9C86.9,107.3,87.2,106.7,87.7,106.2z M64.4,73.7c-1-1.3-2.1-2.7-3.2-4.1
		c2.7-0.5,5.2-1.1,7.6-2.1c0.3,0.5,0,0.8-0.1,1.1c-0.9,1.8-2.1,3.4-3.4,5C65,73.9,64.8,74.2,64.4,73.7z M69.2,67.4
		c1.5-0.8,2.7-1.6,4-2.3c0.6-0.4,1.1,0,1.5,0.4c1.2,1.4,1.9,3,2.8,5C74.5,69.5,71.9,68.5,69.2,67.4z M78.4,46c0.3,0.8,0,1.4-0.2,2.1
		c-1,4-2.7,7.5-6.4,9.8c-2.8,1.7-6.3,1.5-8.7-0.7c-0.6-0.6-0.8-0.2-1,0.2c-1.6,2.6-3.7,4.6-6.2,6.3c-0.7,0.4-1.4,0.7-2.2,0.7
		c-3.5,0-7-0.3-10.3-1.6c-1.2-0.5-2.3-1.1-3.4-2.2c1,0.1,1.7,0.1,2.5,0.2c2.2,0.4,3.7-0.6,5.1-2.2c2-2.4,3.9-4.9,5.6-7.5
		c1.1-1.6,1.6-1.7,3.1-0.6c2.2,1.7,5.9,0.4,6.9-2.4c0.7-1.8,0.6-1.8,2.3-0.6c2.5,1.6,5.2,1.9,7.9,0.8C75.1,47.6,76.7,46.8,78.4,46z
		 M52.3,16.8c0.7,0.9,1.4,1.7,2.2,2.6c-9.7,3.5-19.5,6.5-29,11c1-1.7,2.2-2.9,3.5-4c3-2.5,6.3-4.4,9.9-5.9c3.9-1.7,8-3,12.1-4.1
		C51.5,16.2,51.9,16.3,52.3,16.8z M9.4,31.4c-0.5-0.4-0.6-0.9-0.7-1.5c-0.3-3.2,0.6-6.1,2-8.9c4.7-9,11.9-15.1,21.5-18.4
		c1.6-0.5,3.2-0.1,4.7-0.3c2.8-0.4,4.6,0.6,6.2,2.9c2.3,3.3,4.9,6.3,7.4,9.5c-0.7,0.4-1.5,0.5-2.3,0.7c-12.6,3.8-23.4,10.5-31.7,21
		c-0.6,0.7-0.9,0.7-1.5,0.1C13.3,34.7,11.3,33,9.4,31.4z M21.6,54.5c0.3,1.1,0.6,2.1,0.9,3.2c0.2,0.5,0.1,0.6-0.4,0.7
		c-2.5,0.3-4.7-0.3-6.5-2c-1.3-1.2-2-2.6-2-4.5c-0.3-10.2,6-15.9,13.9-20.5c2.7-1.6,5.9-2,8.8-3.2c6.1-2.5,12.2-4.8,18.3-7.2
		c1-0.4,1.9-0.9,2.8-1.5c2.9-2.2,5.8-4.4,8.6-6.6c1.5-1.2,3-0.6,3.3,1.3c0.5,3.8-1,7-3.1,10c-0.3,0.4-0.5,0.4-0.9,0.1
		c-0.9-0.6-1.5-1.3-1.3-2.5c0.1-0.9,0.1-1.8,0.5-2.8c-1.7,0.5-3.1,1.1-4.3,2c-3.4,2.5-7.4,3.9-11.3,5.4c-4.4,1.6-8.7,3.4-13.1,5.1
		c-2.2,0.9-4.3,2-6.3,3.1C22.3,38.6,19.4,45.9,21.6,54.5z M31.5,61c-0.4-0.5-0.8-0.5-1.3-0.4c-2.1,0.4-3.5-1-4.8-2.1
		c-1.3-1.1-0.4-4.1,1.3-4.9c0.8-0.4,1.6-0.4,2.5-0.4c-0.5-1.3-1.5-1.7-2.9-1c-1.2,0.6-1.6,0-1.9-0.9c-1-2.5-0.7-4.9,0.3-7.2
		c1.2-2.7,3.1-4.8,5.3-6.8c2-1.8,4.2-3.3,6.8-4.2c7.9-2.9,15.7-5.8,23.4-9.3c0.6-0.3,0.9,0,1.3,0.2c6.2,3.1,9.1,8.7,11.1,15
		c0.7,2.1,0.9,4.2,1,6.4c0,0.8-0.2,1.1-1,1.1c-3.1,0-6.1-0.9-9.1-1.6c-0.4-0.1-0.5-0.5-0.7-0.8c-0.4-0.8-0.8-1.5-1.4-2.1
		c-1.4-1.4-2.9-1.3-4.4,0.1c0.7,0.1,1.4,0.1,2,0.3c2,0.4,2.9,1.7,2.9,4c0,1.6-1,2.5-2.9,2.9c-1.8,0.4-3.6,0-5.4-0.2
		c-1.3-0.1-2.2,0.2-3.1,1.1c-1,1-1.7,2.2-2.2,3.5c-1,3.2-3.5,4.3-6.5,4.8c-1.2,0.2-2.5,0.3-3.8,0.1c-0.9-0.1-1.1,0.3-0.9,1
		c0.2,1.3,0.9,2.4,1.9,3.2c2.9,2.4,6.1,3.9,9.8,4.2c2.8,0.2,5.5,0.1,8.2-0.7c1.3-0.4,2.4-1,3.3-2.1c0.4-0.5,0.7-0.4,1.2-0.2
		c1.5,0.6,2.4,0.3,3.1-1.2c0.3-0.7,0.7-0.9,1.4-0.8c1,0,2,0,3,0c0,0.6-0.4,0.7-0.7,0.9c-2.9,2.6-6.1,4.8-9.2,7.1
		c-0.9,0.7-2.2,0.7-3.3,0.8c-3.1,0.3-6.2,0.5-9.3,0.6c-0.6,0-1-0.2-1.5-0.4C40,68.6,35.1,65.7,31.5,61z M58.1,91.6
		c-0.2,2.6-0.9,5.2-1,7.9c0,0.9-0.5,1.7-0.9,2.5c-2.8,5.7-6.4,10.9-9.9,16.1c-0.1,0.1-0.2,0.1-0.3,0.2c-0.3-0.7-0.3-1.4,0-2.1
		c1.1-2.2,2.2-4.5,3.5-6.6c4.8-7.8,7.5-16.3,8.2-25.4c0-0.3-0.1-0.6,0.3-1C58.7,86.1,58.3,88.9,58.1,91.6z M12.3,136.8
		c-0.9,0.1-1.9,0.2-2.7,0.2c-1.1,0.2-1.3-0.2-0.8-1c2.1-4.6,4.3-9.2,6.4-13.9c0.2-0.5,0.4-0.8,1.1-0.6c1.6,0.4,3.2,1.1,4.7,1.7
		c0.5,0.2,0.5,0.5,0.2,0.9c-2.1,3.7-4.2,7.5-6.4,11.2C14.2,136.2,13.3,136.6,12.3,136.8z M18.7,135.1c-0.5-0.1-0.8-0.1-1-0.1
		c-0.6-0.1-0.7-0.3-0.4-0.9c1.9-3.3,3.8-6.7,5.6-10c0.2-0.3,0.3-0.6,0.7-0.5c1,0.3,2,0.5,2.9,0.8c0.5,0.1,0.4,0.4,0.2,0.7
		c-2.2,3.3-4.1,6.8-7,9.5C19.3,135,18.9,135.2,18.7,135.1z M36.2,123.3c-3.3,3.4-7.1,6.1-11.2,8.4c-0.2,0.1-0.3,0.1-0.5,0.2
		c0-0.1-0.1-0.1-0.1-0.2c2-2.5,3.9-5,5.9-7.6c-6.4-1.3-12.4-3.2-18.4-5.5c0.5,0.7,0.9,1.5,1.5,2.2c0.4,0.5,0.5,1,0.1,1.6
		c-2.2,3.8-4.3,7.6-6.5,11.4c-0.1,0.3-0.2,0.7-0.6,0.7c-0.3,0-0.4-0.5-0.6-0.8c-0.8-2.2-0.5-4.4-0.1-6.6c0.5-3.4,1.4-6.8,2.4-10.1
		c0.1-0.2,0.2-0.5,0.2-0.7c0.3-1.6-0.1-2.2-1.6-2.6c-0.9-0.2-1.9-0.4-2.9-0.7c-0.5-0.1-0.9-0.3-1.2-0.8c-0.4-0.8-0.2-1.2,0.7-1.3
		c2.4-0.1,4.7,0,7.1-0.4c0.6-0.1,1.1-0.3,1.6-0.7c2.9-2.5,5.8-5,9.1-7c0.9-0.6,1.9-0.9,3-0.9c2.4,0.1,4.9,0,7.3,0
		c6.6,0,11.5,6.4,9.8,12.8C40.4,118.2,38.6,120.9,36.2,123.3z M40.8,120.8c-0.3,0.2-0.6,0.3-0.9,0c-0.3-0.3,0-0.6,0.2-0.9
		c1.2-1.9,2.2-3.8,2.6-6c0.6-3.3-0.1-6.2-2.2-8.7c-3.2-3.9-7.3-5.6-12.3-5.4c-2.2,0.1-4.3,0.5-6.5,1.1c0-0.3,1.2-1.2,2.4-2.1
		c6.4-2.1,12,0.3,17.3,3.9c2.6,1.8,4,4.5,4.6,7.7C46.7,114,44.2,119.1,40.8,120.8z M42.6,121.7c-0.3,0-0.7,0.2-0.8-0.2
		c-0.1-0.3,0.1-0.5,0.3-0.7c1.1-0.9,2.1-1.8,3.2-2.8C45.3,119.2,43.6,121.6,42.6,121.7z M59.1,160.4c-0.5,0.9-1.3,1-2.1,1.1
		c-3.7,0.5-7.3,0.2-11-0.1c-1.8-0.2-1.8-0.2-0.9-1.8c1.9-3.5,2.7-7.2,3.3-11.1c1.1-6.4,1.4-12.9,1.4-19.4c0-0.9,0.2-1.4,1-1.9
		c3.1-2.1,6.1-4.2,9.1-6.3c0.9-0.6,1.5-1.3,1.9-2.3c1.4-3.2,2-6.6,2.4-10.1c0.3-2.6,0.5-5.2,0.7-7.8c0.1-0.9,0.2-1,1-0.6
		c3.1,1.6,6.3,3.2,9.4,4.9c1.1,0.6,1.7,0.5,2.4-0.6c1.8-2.6,3.7-5.2,5.5-7.8c0.5-0.7,0.8-0.6,1.4-0.3c1.1,0.6,1.5,1.4,1.5,2.6
		c0,1.6-0.2,3.2,0.7,4.6c0.3,0.4,0.2,1.1-0.2,1.5c-1.4,1.5-1.7,3.5-1.9,5.4c-0.1,1.3-0.1,2.6,0,3.9c0.1,1.3,1,2.3,2.4,2.7
		c1.4,0.3,2.6-0.1,3.6-1c0.3-0.2,0.2-0.6,0.2-0.9c0.1-1.3,0.2-2.7,0.4-4c0.1-1,0.6-1.2,1.4-0.7c1.3,1,2.8,1.3,4.4,1.2
		c1-0.1,1.2,0.3,1.1,1.2c-0.2,4.2-1.3,8.1-2.8,12c-3.8,9.9-9.2,18.9-14.9,27.7c-0.5,0.7-1.1,1.4-1.5,2.2c-1.5,3.1-4.2,3.9-7.3,4.2
		c-2.4,0.2-4.9,0.2-7.3,0c-0.3,0-0.8,0-0.9-0.2c-0.3-0.4,0.2-0.6,0.4-0.9c4.4-6.2,8.4-12.7,11.3-19.8c2.9-7.1,5-14.4,4.7-22.2
		c0-0.7,0.2-1.5-0.9-1.8c-0.1,6-2.6,11.3-4.9,16.5C69.9,141,64.6,150.7,59.1,160.4z M91.7,145.8c-1.5,5.4-3.1,10.8-4.6,16.2
		c-0.3,0.9-0.7,1.2-1.6,1.3c-2.6,0-4.6-1.2-6.5-2.7c-0.7-0.5-0.1-0.8,0.3-1.1c1.4-0.9,2.8-1.8,4.3-2.6c1.3-0.7,2.3-1.7,3.1-2.8
		c1.9-2.5,3.3-5.3,4.6-8.2c0.2-0.4,0.2-0.9,0.6-1.1C92,145.1,91.8,145.5,91.7,145.8z M83.5,167.7c-0.9,0.1-1.8,0.1-2.3,0.2
		c-3.5-0.1-6.7-0.6-9.8-1.4c-0.5-0.1-1-0.2-1.5-0.4c-1-0.3-1.5-0.1-1.3,1c0.1,0.8-0.1,1.2-1,1.1c-1.6-0.1-3.3-0.1-4.9,0
		c-0.7,0-1.1-0.2-0.9-1c0.1-0.7-0.1-1.4-0.5-1.9c-0.4-0.5-0.4-1-0.4-1.6c0-0.7,0.2-0.9,0.9-1c4.9-0.3,9.8-0.6,14.6-1
		c1.2-0.1,2.2,0.1,3.3,0.7c1.7,1.1,3.7,1.6,5.7,2c0.7,0.1,1.1,0.3,0.8,1.2C85.3,167.5,86,167.5,83.5,167.7z M104.8,111.6
		c-0.4,4.2-1.8,8.1-2.9,12.1c-4.8,17.4-9.6,34.8-14.4,52.3c-0.3,1-0.6,1.2-1.6,0.9c-2.2-0.7-2.2-0.6-1.6-2.8
		c2.8-9.8,5.6-19.6,8.3-29.4c0.1-0.3,0.3-0.7,0.2-0.9c-0.5-2,0.6-3.7,1.1-5.5c2.7-8.4,4.6-17,5.9-25.7c0.2-1.2,0.7-1.7,1.7-1.9
		c0.7-0.1,1.4-0.2,2.1-0.3C104.9,110.1,104.9,110.7,104.8,111.6z M108.3,97.6c0,0.2-0.1,0.4-0.2,0.8c-0.7-0.9-1.1-1.6-1.6-2.3
		c-0.1,0-0.1,0-0.2,0.1c0.1,0.9,0.3,1.9,0.4,2.8c0.2,2,0.3,4.1-0.4,6c-0.5,1.5-1.5,2.6-3.1,3.1c-0.8,0.2-1.2,0.1-1.4-0.9
		c-0.4-3.1-1-6.3-1.5-9.4c-0.1-0.4,0.1-1.1-0.5-1c-0.8,0-0.5,0.7-0.4,1.1c0.2,3.5,0.4,7.1,0.6,10.6c0,0.4,0.3,0.9-0.2,1.1
		c-0.5,0.2-1,0.1-1.4-0.4c-2.4-2.8-4.6-5.7-6-9.1c-0.2-0.4-0.2-0.8-0.6-1.1c0.2,3.4,1,6.5,3.3,9c0.4,0.5,0.9,0.9,0.5,1.6
		c-2.4-1-4.5-2.3-6.1-4.4c-0.7-0.9-1-1.8-1-2.9c0.1-1.2,0.1-2.4,0-3.5c-0.4-3.3,2.1-4.9,4.1-6.7c0.3-0.3,0.8-0.2,1.2-0.2
		c3,0,6,0,9,0C105.5,91.9,108.6,95.1,108.3,97.6z M113.3,94c-2.7-4.2-6.5-6.7-11.4-7.5c-1.2-0.2-2.3-0.2-3.5-0.2
		c-0.3,0-0.7,0.2-0.9-0.2c-0.2-0.3,0.2-0.6,0.3-0.9c0.3-0.6,0.7-0.8,1.3-0.9c6.3-0.5,11.1,2,14.2,7.5C114,92.8,114,92.8,113.3,94z"
		/>
	<path d="M39,35.5c1.5-1.2,3.2-1.5,5.2-1.4c-1.5-1.8-2.3-2-4.5-1.2c-3.4,1.3-4.7,4.1-3.2,7.3C37,38.3,37.6,36.7,39,35.5z"/>
	<path d="M65.4,28.4c-0.9-1.9-1.9-3.7-4.2-3.9c-2.1-0.2-3.6,1.1-5,2.6C59.5,26,62.5,26.6,65.4,28.4z"/>
	<path d="M31.4,44.3c-0.2,0-0.3,0-0.4,0c-2.5,0.1-4.2,1.3-5.5,3.2c-0.5,0.7,0,0.9,0.5,1.2c0.5,0.3,0.7,0.3,1-0.3
		c0.3-0.9,1.1-1.4,1.9-1.8c0.9-0.5,1.8-0.8,2.7-1c0.4-0.1,0.8-0.2,0.8-0.7C32.3,44.2,31.8,44.4,31.4,44.3z"/>
	<path d="M41.1,43.5c0,1,0.9,1.8,1.9,1.9c1.1,0,1.9-0.9,1.9-1.9c0-1-0.9-1.9-1.9-1.9C42,41.5,41.1,42.4,41.1,43.5z"/>
	<path d="M61.2,33.8c-1.1,0-1.9,0.8-1.9,1.9c0,1,0.8,1.8,1.9,1.8c1.1,0,1.9-0.8,1.9-1.9C63,34.6,62.2,33.8,61.2,33.8z"/>
	<path d="M31,42c-0.1-0.7-0.7-0.5-1.1-0.4c-2.1,0.3-3.5,1.5-4.6,3.6c1.9-0.8,3.3-1.8,5-2.2C30.9,42.8,31,42.6,31,42z"/>
	<path d="M72.6,74.6c-1.3,0-2.3,1-2.4,2.3c0,1.4,1,2.4,2.3,2.5c1.4,0,2.4-1,2.4-2.4C75,75.6,74,74.6,72.6,74.6z M72.8,78.9
		c-1.1,0.1-2.1-0.8-2.1-1.9C70.6,76,71.5,75,72.6,75c1.1,0,2,0.9,2,2C74.6,78,73.8,78.9,72.8,78.9z"/>
	<path d="M82,90.4c1.3,0,2.3-1.1,2.2-2.4c-0.1-1.2-1.1-2.2-2.3-2.2c-1.3,0-2.3,1.1-2.2,2.4C79.7,89.4,80.8,90.4,82,90.4z M82,86.2
		c1.1,0,1.9,0.9,1.9,1.9c0,1-0.8,1.8-1.8,1.9c-1.1,0-1.9-0.8-1.9-1.9C80.1,87,80.9,86.2,82,86.2z"/>
	<path d="M75.5,82.2c0,1.3,0.9,2.3,2.1,2.4c1.3,0.1,2.4-0.9,2.5-2.2c0.1-1.3-1-2.3-2.3-2.4C76.6,80,75.5,80.9,75.5,82.2z M77.8,80.4
		c1,0,1.8,0.9,1.9,1.9c0,1.1-0.9,2-1.9,1.9c-1,0-1.8-0.8-1.8-1.9C75.9,81.2,76.8,80.3,77.8,80.4z"/>
</g>
</svg>
