<?xml version="1.0" encoding="utf-8"?>
<!-- Generator: Adobe Illustrator 22.0.1, SVG Export Plug-In . SVG Version: 6.00 Build 0)  -->
<svg version="1.1" id="Layer_1" xmlns="http://www.w3.org/2000/svg" xmlns:xlink="http://www.w3.org/1999/xlink" x="0px" y="0px"
	 viewBox="0 0 143 175.7" style="enable-background:new 0 0 143 175.7;" xml:space="preserve">
<g>
	<path d="M59.1,39.5c0.5,0.3,0.9,0,1.3-0.3c0.5-0.5,0.9-1,1.4-1.4c1.7-1.7,3.5-1.5,4.6,0.7c0.1,0.2,0.2,0.4,0.3,0.5
		c0.4,0.7,0.4,1.7,1.2,2.2c-0.1-2.2-0.4-4.4-2.2-6c-0.8-0.7-1.9-1.1-3-0.6c-1.6,0.8-2.8,2-3.7,3.6C58.7,38.6,58.6,39.1,59.1,39.5z"
		/>
	<path d="M64.2,44.7c-1,0-1.9,0.8-1.9,1.8c0,1,0.7,1.8,1.8,1.8c0.9,0,1.8-0.8,1.9-1.7C66,45.7,65.2,44.8,64.2,44.7z"/>
	<path d="M83.8,49.5c0.9,0,1.8-0.9,1.8-1.8c0-0.9-0.9-1.8-1.8-1.8c-1,0-1.9,0.9-1.9,1.9C81.9,48.6,82.8,49.5,83.8,49.5z"/>
	<path d="M71.7,93.6c0.1-1.6-0.8-2.6-2.1-2.7c-1.2-0.1-2.1,0.8-2.2,2c0,1.2,1.2,2.5,2.4,2.5C70.7,95.5,71.6,94.6,71.7,93.6z
		 M68.1,93c0-0.8,0.5-1.3,1.3-1.3c0.9,0,1.4,0.5,1.4,1.4c0,0.8-0.5,1.3-1.3,1.3C68.8,94.4,68.1,93.7,68.1,93z"/>
	<path d="M70.4,99.1c-1.2,0-2.2,1-2.2,2.1c0,1.2,1.3,2.4,2.6,2.4c1.1,0,1.9-0.9,1.8-2C72.6,100.2,71.6,99.1,70.4,99.1z M70.4,102.6
		c-0.8,0-1.4-0.7-1.4-1.3c0-0.7,0.8-1.5,1.5-1.5c0.6,0,1.4,0.9,1.3,1.5C71.8,102.1,71.2,102.6,70.4,102.6z"/>
	<path d="M69.2,87.6c1,0,2-0.9,2-1.9c0-1.6-0.9-2.6-2.3-2.6c-1.1,0-2,0.9-2,2.1C66.8,86.3,68,87.5,69.2,87.6z M67.6,85.1
		c0.1-0.8,0.7-1.4,1.4-1.3c0.8,0.1,1.4,0.9,1.3,1.7c-0.1,0.6-0.8,1.2-1.4,1.1C68.1,86.5,67.5,85.8,67.6,85.1z"/>
	<path d="M142.7,138c-0.8-2.7-2.8-4.6-4.5-6.6c-2-2.4-4.2-4.5-6.2-6.9c-0.7-0.9-0.6-1,0.3-1.5c1.5-0.7,2.3-1.9,3.2-3.2
		c0.6-1,1.1-2,1.5-3.1c0.7-2,0.3-3.8-0.9-5.5c-0.7-0.9-1.7-1-2.6-0.2c-0.7,0.7-1.3,1.5-1.9,2.3c-0.7,1.1-1.4,2.1-2.4,3
		c-0.9,0.8-2,1.2-3.2,1.3c-0.2,0-0.5,0-0.6-0.2c-0.2-0.3-0.1-0.5,0.1-0.7c0.7-0.8,0.5-1.7,0.1-2.6c-0.5-1.1-1-2.3-1.5-3.4
		c-0.1-0.3-0.3-0.7-0.1-1.1c0.6-1.1,0.3-2.1-0.2-3c-1.3-2.9-3-5.6-4.6-8.4c-0.3-0.4-0.5-0.9-0.8-1.3c-0.6-1-0.6-2-0.3-3.2
		c0.2-0.7,0.4-1.4,0.5-2.1c0.3-2-0.8-3.8-2.6-4.6c-1.4-0.6-2.8-1.2-3.5-2.8c-0.3-0.7-0.4-1.3-0.1-2c1.1-2.1,1-4.4,0.9-6.7
		c-0.2-3.9-0.6-7.7-1.4-11.5c-0.2-1.1-0.6-2.3-1.2-3.3c-0.8-1.4-2.1-2-3.6-2.2c-2.5-0.3-4.9-0.8-7.3-0.9c-0.4,0-0.8-0.1-0.8-0.6
		c-0.1-0.5-0.4-0.6-0.9-0.4c-0.3,0.1-0.6,0.3-0.9,0.5c-0.3,0.1-0.6,0.4-0.9,0.1c-0.3-0.3,0-0.6,0.2-0.8c0.9-1.6,1.6-3.2,1.6-5
		c0-0.8-0.2-1.5-0.8-2c-0.6-0.5-1.2-0.8-2-0.7c-0.9,0.1-1.1,0-1-1c0-0.6,0-1.3,0-1.9c0-1.2,0.1-1.3,1.2-0.8c1.3,0.6,2.7,1.1,4.1,1.1
		c1.2,0,2.3-0.4,3-1.5c1-1.4,0.8-2.9-0.5-4c-1.4-1.3-3.1-2.1-4.9-2.8c-1.2-0.5-1.3-0.7-1-1.9c1-3.7,3.1-6.8,5.7-9.6
		c0.4-0.4,0.8-0.8,1.2-1.2l1.3-1c0.5-0.3,1-0.7,1.5-1c2.2-1.1,2.4-3.2,0.9-5.5c-1.6-2.3-3.7-4-6-5.6C95,8.1,89,4.8,82.6,2
		c-1.9-0.8-3.8-1.5-5.9-1.9C76.3,0,71.2,0,71,0.1c-1.2,0.4-1.8,1.3-2.2,2.5c-1.1,3.9-2.5,7.6-4.1,11.3c-1.1,2.7-2.4,5.3-4.1,7.6
		c-0.7,0.9-0.8,0.9-1.7,0.1c-1.8-1.6-3.2-3.5-4.5-5.5c-0.4-0.6-0.9-1.1-1.4-1.5c-1-0.7-2.3-0.3-2.8,0.8c-0.5,1.2-0.3,2.4-0.1,3.6
		c0.6,3.5,2.2,6.6,4.3,9.4c0.9,1.2,1.2,2,0.2,3.2c-0.5,0.6-0.9,1.2-1.3,1.8c-2.2,2.7-3.3,5.8-3.6,9.2c-0.1,0.7-0.3,1-1,0.9
		c-1.1-0.2-1.8,0.6-2.3,1.5c-1.4,2.5-1.7,5.3-1.3,8.1c0.2,1.2,0.5,2.4,1.2,3.5c0.5,0.8,0.4,1-0.6,1.2c-2.2,0.4-4.4,0.9-6.6,1.1
		c-2.8,0.3-4.7,1.6-5.6,4.4c-0.8,2.9-2.1,5.6-2.9,8.6c-0.5,1.9-0.3,3.6,0.7,5.3c1.1,1.8,1.4,3.7,1.3,5.8c-0.1,1.3-0.6,1.8-1.9,1.9
		c-1.3,0.1-2.1,0.7-2.6,2c-0.4,1.1-0.5,2.3-0.4,3.5c0.1,2-0.6,3.5-2.2,4.7c-2.3,1.7-3.7,4.2-5.4,6.3c-0.6,0.8-1.2,1.6-1.9,2.5
		c-0.3,0.4-0.5,0.8-0.2,1.3c0.3,0.5,0.1,0.9-0.3,1.2c-1,0.8-1.9,1.7-2.8,2.6c-0.8,0.9-1,1.8-0.6,2.9c0.3,0.7,0.1,1.1-0.6,1.5
		c-2.3,1.2-4.6,0.9-6.6-0.8c-1.2-1-2.3-2.2-3.7-3.1c-1.3-0.8-2.2-0.6-2.9,0.8c-0.1,0.3-0.2,0.5-0.5,0.6c0,1,0,2.1,0,3.1
		c0.8,0.7,0.9,1.7,1.6,2.5c0.9,1.1,1.9,2.1,2.9,3c0.7,0.6,1.6,1,2.6,1.2c0.9,0.2,1,0.4,0.6,1.2c-1.1,2.2-2.3,4.3-3.5,6.4
		c-1.2,2.2-2.5,4.5-3.4,6.9c-0.5,1.3-0.5,2.6-0.4,3.9c0.1,0.9,0.6,1.7,1.3,2.3c2.3,2,5,2.7,8.1,2.1c5-1,8.9-3.7,12.2-7.5
		c2.3-2.7,4.1-5.7,5.5-8.9c0.5-1.1,0.6-1.1,1.6-0.8c0.9,0.3,1.6,0,2.3-0.5c1.5-1.3,2.6-2.8,3.7-4.4c0.4-0.6,0.8-1.1,1.7-0.7
		c0.4,0.2,0.8-0.1,0.8-0.5c0.1-3.8,2.4-6.8,4.1-10c0.8-1.6,1.9-3.1,3-4.5c1.7-2.3,2.2-4.8,2.4-7.5c0-0.8,0-1.7,0-2.5
		c0-0.4,0-0.8,0.5-0.9c0.4-0.1,0.7,0.2,0.9,0.5c0.5,0.7,0.7,1.5,0.5,2.4c-1,4.3-2.8,8.4-4.5,12.4c-2.1,5.1-4.4,10.1-6.7,15.2
		c-0.9,2.1-2,4.2-3.6,5.9c-2.5,2.7-4.7,5.6-6.4,8.9c-1.1,2.3-2,4.6-1.6,7.2c0.7,4.9,6.4,7.4,10.4,4.5c0.2-0.2,0.5-0.4,0.8-0.3
		c0.4,0.2,0.3,0.5,0.3,0.8c0.1,4.5,0.6,8.9,2.1,13.1c0.2,0.4,0.4,0.8,0.5,1.3c0.2,0.6,0.5,0.9,1.1,0.9c0.3,0,0.6,0,0.7,0.4
		c0,0.3-0.3,0.5-0.5,0.6c-3.1,1.5-6.4,2.6-9.8,3.1c-0.8,0.1-1.4,0.4-1.6,1.3c-0.1,0.8,0.2,1.4,1.1,1.9c0.4,0.2,0.9,0.2,1.1,0.7
		c2.8,0,5.5,0,8.3,0c0.9-0.4,1.9-0.4,2.9-0.5c3-0.2,5.9-0.6,8.7-1.4c0.6-0.2,0.8,0,0.8,0.6c0,0.7,0.4,0.8,1,0.8c2.7,0,5.5,0,8.2,0
		c0.8,0,1.1-0.3,1-1.1c-0.2-2.3,0.5-4.6,0.7-6.8c0-0.5,0.3-0.7,0.7-0.9c0.7-0.2,1-0.7,1.1-1.4c0.4-2.5,0.6-5.1,0.9-7.6
		c0.5-5.1,1.2-10.1,2.4-15.1c0.5-2,1.1-3.9,1.9-5.8c0.1-0.3,0.2-0.7,0.6-0.6c0.3,0.1,0.3,0.5,0.3,0.8c0.5,7.8,1.2,15.6,1.9,23.3
		c0.1,1.5,0.4,2.9,0.5,4.4c0.1,1.2,0.7,1.9,1.8,2.3c0.9,0.3,1.3,0.8,1.4,1.8c0.1,1.9,0.7,3.8,0.5,5.7c-0.1,0.8,0.3,1,1.1,1
		c2.6,0,5.3,0,7.9,0c0.7,0,1.1-0.1,1.1-0.9c0-0.5,0.4-0.6,0.8-0.5c3.3,1,6.7,1.3,10.2,1.6c0.4,0,0.9,0,1.2,0.4c2.9,0,5.7,0,8.6,0
		c0.1-0.3,0.4-0.4,0.7-0.5c1-0.4,1.5-1,1.3-1.9c-0.1-0.9-0.5-1.2-1.7-1.4c-4.1-0.6-8-2-11.6-4.2c0,0-0.1,0-0.2-0.1
		c-0.3-0.2-0.8-0.3-0.6-0.8c0.1-0.4,0.6-0.3,0.9-0.3c0.7-0.1,1.3-0.1,2-0.2c0.7-0.1,1-0.4,1.1-1.1c0.7-5.2,1.2-10.5,1.6-15.7
		c0-0.4,0-0.7,0-1.1c0-0.2,0-0.5,0.3-0.6c0.3-0.1,0.5,0.1,0.6,0.4c0.5,0.9,1,1.8,1.5,2.7c0.5,0.8,1.1,1.5,1.8,2c1,0.6,2,0.7,2.9,0.2
		c3.7-2,6.9-6.3,5.4-11.6c-1.2-4-3.4-7.4-6-10.6c-0.6-0.8-1.2-1.5-1.9-2.2c-0.3-0.4-0.6-0.9-0.7-1.4c-1-2.9-1.8-5.9-3.1-8.7
		c-0.3-0.6-0.6-1.1-0.9-1.7c-0.1-0.2-0.2-0.4,0-0.5c0.2-0.1,0.3,0,0.5,0c1,0.2,1.7,0.7,2,1.7c0.4,1.2,1,2.4,1.7,3.5
		c0.5,0.8,1.3,1.4,2.3,1.6c0.9,0.2,1.2,0.6,1.2,1.5c0,2.4,1,4.5,2.2,6.5c3,4.8,6.8,8.9,11.8,11.7c3.7,2,7.5,3.2,11.8,2.8
		c3-0.3,5.2-1.8,6.9-4.2c0.2-0.2,0.3-0.5,0.6-0.6c0-0.9,0-1.7,0-2.6C142.9,138.2,142.7,138.1,142.7,138z M6.9,142
		c-0.2,0.3-0.4,0.7-1,0.7c-0.5-0.2-1.1-0.3-1.6-0.7c-0.3-0.2-0.2-0.5,0-0.8c2.3-3.7,4.6-7.4,6.8-11.1c0.5-0.8,0.6-0.8,1.4-0.2
		c0.2,0.2,0.4,0.3,0.6,0.5c0.5,0.3,0.5,0.6,0.3,1.1C11.2,134.9,9.1,138.4,6.9,142z M8.5,142.9c-0.2,0-0.4,0-0.5-0.2
		c-0.1-0.3,0-0.5,0.2-0.7c1.6-2.6,3.1-5.2,4.7-7.7c0.5-0.8,0.9-1.5,1.4-2.3c0.3-0.6,0.7-0.7,1.3-0.5c1.8,0.6,1.8,0.6,0.8,2.2
		c-1.5,2.5-3,5-4.4,7.6C11.2,142.4,10.3,142.9,8.5,142.9z M26.9,126.3c-2.1,4.9-5,9.4-9.3,12.7c-1.1,0.9-2.4,1.6-3.6,2.3
		c-0.2,0.1-0.4,0.3-0.6,0.1c-0.2-0.2,0-0.5,0.1-0.7c1.4-2.4,2.9-4.8,4.2-7.3c0.5-0.8,1-1.3,1.9-1.1c0.3,0,0.8,0.2,0.9-0.2
		c0.1-0.4-0.5-0.4-0.8-0.5c-2.3-0.8-4.6-1.6-6.7-2.8c-0.7-0.5-1.4-1-2-1.6c-0.2-0.2-0.4-0.5-0.9-0.5c0,0.5,0.2,0.8,0.5,1.2
		c0.4,0.4,0.3,0.8,0,1.2c-2.4,3.8-4.7,7.6-7,11.3c-0.5,0.8-0.8,0.8-1.4,0.1c-0.9-1.2-0.7-2.5-0.4-3.8c0.4-1.7,1.2-3.2,2-4.7
		c1.5-2.9,3.1-5.7,4.6-8.6c0.9-1.6,0.8-1.6,2.5-1c1.9,0.7,3.8,1.4,5.8,1.7c0.5,0.1,1,0.1,1.5,0.2c0.3,0,0.7,0.1,0.8-0.3
		c0-0.4-0.4-0.3-0.7-0.4c-2.1-0.7-4.3-1.1-6.2-2.2c-1.1-0.7-2.3-1.3-3.6-1.4c-3.2-0.3-4.9-2.5-6.6-4.8c-0.9-1.2-0.9-2.6-0.5-4
		c0.3-1,0.8-1.2,1.6-0.6c1.2,1,2.4,2.1,3.6,3.1c2.4,1.9,4.9,2.1,7.6,0.6c0.6-0.4,1-0.3,1.4,0.3c1.8,2.6,4.2,4.7,6.7,6.8
		c1.4,1.2,2.8,2.4,4.2,3.6C26.9,125.5,27.1,125.8,26.9,126.3z M34.7,120.7c-0.4,0.6-0.9,1.2-1.3,1.8c-0.1,0.2-0.3,0.3-0.5,0.3
		c-0.3-0.1-0.2-0.3-0.2-0.5c0.1-0.7-0.1-1.3-0.7-1.6c-0.7-0.3-1.3-0.2-1.9,0.2c-0.6,0.4-1,0.9-1.3,1.6c-0.6,1.3,0.1,2.4,1.6,2.4
		c0.2,0,0.6-0.2,0.6,0.2c0.1,0.3-0.3,0.5-0.5,0.6c-0.6,0.3-1.2,0.1-1.8-0.2c-0.9-0.5-1.6-1.1-2.3-1.7c-2.8-2.5-5.9-4.8-8.4-7.7
		c-1.1-1.3-2.1-2.6-2.7-4.2c-0.3-0.7-0.2-1.3,0.3-1.8c1.1-1.3,2.4-2.3,3.7-3.4c0.4-0.4,0.8-0.2,1.2,0.2c4.1,3.7,8.2,7.4,12.3,11.1
		c0.6,0.6,1.2,1.1,1.9,1.6C35,119.8,35.1,120.2,34.7,120.7z M43.5,124.7c-0.3,3.7-0.5,7.4-0.8,11.2c-0.3,3.2-0.5,6.3-1.4,9.4
		c-0.1,0.3-0.2,0.7-0.4,0.9c-1.6,1.7-3,3.6-4.9,4.9c-3.6,2.5-8.4,0.3-8.9-4.1c0-0.3,0-0.6-0.1-0.9c0.1-1.7,0.6-3.3,1.3-4.8
		c1.9-3.9,4.6-7.3,7.6-10.5c2.1-2.3,4.3-4.5,6.7-6.6c0.2-0.2,0.4-0.5,0.7-0.3C43.6,124.1,43.5,124.4,43.5,124.7z M74.6,23.6
		L74.6,23.6C74.6,23.6,74.6,23.6,74.6,23.6L74.6,23.6z M61.5,22.6c0-0.1,0.1-0.2,0.2-0.3l0.7-1.2c3.2,0.3,6.2,1.2,9.1,2.2
		c1.1,0.3,2.2,0.7,3.2,1.2c0.6,0.3,1.3,0.5,1.9,0.8c0,0,0,0,0,0c3.7,1.5,15.8,8,15.8,8c1.8,1.4,2.4,3.2,2.4,3.2s-2.6-0.3-4.3-0.9
		c-1.6-0.6-8.3-3.1-10.8-3.8c-1.9-0.5-4.6-1.3-7.5-2.4c-0.5,0-0.8-0.3-1.1-0.5c-0.6-0.2-1.2-0.5-1.7-0.8c0,0,0,0,0,0
		c-1-0.5-2.1-1-3.1-1.6c-2.9-1.6-5.2-3.3-5.2-3.3L61.5,22.6z M53.6,67c-1.1-2.1-2.2-4.2-2.7-6.6c-0.1-0.5-0.4-0.9-0.8-1.2
		c-3.4-2.2-4.3-5.5-4-9.3c0.1-1.4,0.4-2.7,1-3.9c0.6-1.6,1.4-1.7,2.7-0.7c0.2,0.2,0.3,0.3,0.6,0.2c0.4-0.2,0.3-0.5,0.3-0.8
		c0-3.4,0.7-6.7,2.7-9.5c1.7-2.4,3-5.1,5.3-7.1c0.3-0.3,0.6-0.5,0.9-0.8c0.5-0.5,1.1-0.5,1.7-0.2c5.1,2.3,10.2,4.6,15.4,6.9
		c2.1,0.9,4.2,1.7,6.4,2.6c0.3,0.1,0.7,0.1,0.7,0.5c0,0.4-0.4,0.5-0.6,0.6c-1,0.7-2,1.4-2.9,2.3c-0.3,0.3-0.6,0.5-0.7,1.1
		c0.9-0.3,1.5-0.8,2.2-1.2c0.7-0.4,1.4-0.7,2.2-0.9c1.8-0.5,3,0.2,3.4,2.1c0.1,0.6,0.2,1.1,0.3,1.7c0.1,0.5,0.3,1,1,0.9
		c0.5-0.1,0.6-0.6,0.7-1c0.2-0.9,0-1.8-0.3-2.7c-0.1-0.3-0.2-0.6,0.1-0.9c0.3-0.2,0.6,0,0.8,0.1c2.5,0.9,2.5,0.9,2.9,3.6
		c0.3,2.5,0.5,5,0,7.5c0,0.2-0.1,0.5,0.2,0.7c0.3,0.1,0.5-0.1,0.7-0.3c0.3-0.3,0.6-0.6,0.9-0.8c1.2-0.7,2.4,0,2.4,1.5
		c0,0.7-0.3,1.3-0.5,2c-0.7,1.6-1.6,3-2.6,4.4c-0.2,0.3-0.5,0.5-0.8,0.6c-2.3,0.8-4.6,0.9-6.8-0.6c-1.7-1.1-3.2-2.6-5.2-3.1
		c-1.4-0.3-2.4-0.7-2.3-2.4c0-0.8-0.6-1.5-1.2-2.2c-0.2-0.3-0.4-0.7-0.8-0.5c-0.4,0.2-0.2,0.6-0.2,0.9c0.4,2.1-0.5,4.1-2.2,5
		c-1,0.5-2,0.6-3.1,0.6c-0.6,0-1.3-0.1-1.8,0.4c-0.1,0.1-0.2,0.1-0.3,0.1c-2.6,0.1-3.9,2-5.1,4c-0.4,0.7-0.8,1.4-1.1,2.1
		c-0.9,2.1-2.4,3.4-4.6,4c-1.1,0.3-2.2,0.5-3.4,0.7C54.3,67.7,53.9,67.5,53.6,67z M59.4,76.8c-0.1-0.5-0.3-0.9-0.4-1.4
		C59,75.2,59,75,59.2,74.9c0.2-0.1,0.3,0,0.5,0.1c1.7,1.2,3.7,2,5.6,2.7c0,0,0.1,0.1,0.2,0.2c-0.8,0.2-1.4,0.1-2-0.1
		c-1.1-0.2-2.3-0.6-3.5-0.5C59.7,77.3,59.5,77.1,59.4,76.8z M82,113.5c-0.7,0.5-1.5,1-2.2,1.5c-1,0.7-1.1,0.7-1.8-0.3
		c-2-2.7-4-5.4-6-8.1c-0.4-0.5-0.8-1-1.1-1.5c-0.4-0.6-0.7-0.5-1.1,0c-1.7,2.6-3.4,5.3-5.2,7.9c-0.6,1-0.8,1-1.5,0.1
		c-0.8-1.1-1.6-2.2-2.4-3.3c-0.4-0.5-0.5-1-0.1-1.6c1.9-2.8,2.3-5.9,2.2-9.1c-0.3-6.3-1.3-12.5-2.7-18.6c-0.1-0.5-0.4-1.2,0.1-1.3
		c0.5-0.2,0.5,0.6,0.7,1c0.3,0.7,0.6,1.4,0.9,2.1c0.4,1,0.7,1.1,1.7,0.7c1.3-0.6,2.6-1.3,3.9-1.9c0.7-0.4,1.4-0.4,2.1,0
		c1.4,0.8,2.9,1.4,4.3,2.2c0.6,0.3,1,0.2,1.3-0.4c0.6-1.2,1.2-2.3,1.8-3.5c0.4-1-0.5-0.9-1.2-1.1c1-0.7,2.2-0.8,3.2-1
		c0.6-0.2,0.6,0.5,0.6,0.9c-0.2,2-0.4,4.1-0.7,6.1c-0.4,3.1-1.1,6.1-1.9,9.1c-0.6,2.7-1.3,5.3-0.1,8c0.6,1.5,1.4,2.9,1.8,4.5
		c0.3,1.2,0.5,2.3,0.9,3.5c0.4,1.5,1,2.8,2.5,3.4C82.5,112.8,82.5,113.1,82,113.5z M67.1,78.2c0.7-0.2,1.3-0.2,2.1,0.2
		C68.3,78.7,67.7,78.5,67.1,78.2z M87.3,68c-2.7,4.6-6.7,7.4-12,8.3c-1.6,0.3-3.2,0.5-4.3,0.5c-5,0.1-9-1.1-12.5-3.9
		c-0.1-0.1-0.3-0.2-0.4-0.3c-0.1-0.1-0.3-0.3-0.2-0.4c0.1-0.3,0.3-0.2,0.5-0.1c0.8,0.3,1.6,0.4,2.4,0.5c3.5,0.5,6.9,0.1,9.9-1.9
		c1.7-1.1,3-2.5,4.1-4.3c0.4-0.6,0.7-0.7,1.3-0.3c3.4,2.1,6.9,2.6,10.7,1.4c0.2-0.1,0.5-0.2,0.6,0C87.6,67.6,87.4,67.8,87.3,68z
		 M88.4,65.2c-1.8,0.8-3.7,1.3-5.3,1.3c-2.7,0-4.9-0.7-6.9-2C75,63.8,74.7,63.8,74,65c-3,4.8-7.4,6.7-13,6.1
		c-2.2-0.2-4.3-0.8-6.4-1.6c-0.2-0.1-0.6-0.1-0.5-0.5c0-0.4,0.4-0.4,0.7-0.4c0.9,0,1.8-0.2,2.7-0.4c3.1-0.6,5.4-2.3,6.6-5.3
		c0.5-1.3,1.3-2.5,2.2-3.6c0.9-1,1.9-1.6,3.3-1.5c1.1,0.1,2.2,0.1,3.2,0.4c2,0.5,3.6-0.1,4.8-1.8c0.6-0.9,1.4-1.1,2.4-0.8
		c1.4,0.4,2.7,0.9,3.7,1.9c3.4,3.1,7.1,3.3,11.1,1.5c0.4-0.2,0.9-0.6,1.2-0.2c0.3,0.5-0.3,0.8-0.6,1.1C93.3,62.1,91.1,64,88.4,65.2z
		 M95.2,107.6c-1.3-1.7-2.4-3.6-3.9-5.2c-0.4-0.5-0.5-0.9-0.3-1.5c0.2-0.5,0.3-1.1,0.2-1.7c-0.1-1.6,0.5-2.9,1.4-4
		c0.6-0.7,1.2-1.5,1.8-2.2c0.2-0.2,0.3-0.5,0.6-0.4c0.4,0.1,0.2,0.5,0.3,0.7c-0.2,1.6-0.4,3-0.4,4.6c0,0.8,0.2,1.6,0.7,2.3
		c0.6,1,0.8,2.1,1,3.2c0.3,1.6,1.1,2.9,1.8,4.3c1,2.2,1.6,4.5,2.5,6.8c0.1,0.2,0.2,0.4-0.1,0.5c-0.3,0.1-0.4-0.2-0.5-0.3
		C98.7,112.3,96.9,109.9,95.2,107.6z M112.7,139.1c0.4,0.9,0.7,1.8,1,2.8c1.2,4.4-0.5,7.4-4.2,10.1c-1.1,0.8-2.3,0.6-3.2-0.5
		c-0.8-0.9-1.3-1.9-1.9-2.9c-0.5-1-1.1-1.9-2-2.7c-1.2-1.1-1.6-2.5-1.9-4.1c-0.5-3.2-0.4-6.4-0.5-9.6c-0.1-2.6,0.1-5.3-0.1-7.9
		c0-0.3,0-0.5,0.2-0.7c0.2-0.1,0.4,0,0.6,0.2C105.3,128.4,109.8,133.1,112.7,139.1z M110.5,122.4c-0.1-0.3,0.1-0.4,0.3-0.6
		c0.7-0.5,0.7-1.2,0.4-1.9c-0.4-1-1.2-1.7-2.3-1.9c-1.2-0.2-2,0.7-1.7,1.9c0.2,0.5,0.4,1,0.8,1.4c0.2,0.2,0.5,0.4,0.5,0.9
		c-0.6,0-0.9-0.3-1.2-0.7c-0.8-1-1.3-2.2-1.8-3.4c-0.3-0.6,0-0.9,0.6-0.7c1.4,0.4,2.6,0.2,3.8-0.6c1.8-1.3,4-1.8,6-2.7
		c2.1-0.9,4.1-1.9,6-3.1c0.6-0.4,1-0.3,1.3,0.3c0.5,1.1,1,2.3,1.5,3.4c0.3,0.6,0.2,1.2-0.2,1.8c-0.7,0.9-1.6,1.5-2.6,2.1
		c-2.3,1.5-4.6,2.9-7.3,3.6c-1.1,0.3-2.2,0.5-3.4,0.5C110.9,122.7,110.6,122.7,110.5,122.4z M136.4,144.3c-0.1,0.3-0.4,0.3-0.7,0.4
		c-0.3,0-0.7,0-1.2,0.1c-0.9,0.2-1.6-0.3-2.3-1.1c-2.1-2.3-4.2-4.4-6.4-6.6c-0.7-0.7-0.7-0.9,0.2-1.4c0.2-0.1,0.4-0.2,0.5-0.3
		c0.6-0.5,1-0.4,1.6,0.1c2.7,2.8,5.4,5.5,8.1,8.2C136.2,143.9,136.5,144,136.4,144.3z M138.5,143.9c-0.5,0.3-0.8,0-1.2-0.4
		c-2.6-2.6-5.2-5.2-7.7-7.8c-0.1-0.1-0.2-0.2-0.4-0.4c-1.3-1.3-1.3-1.3,0-2.7c0.4-0.4,0.7-0.4,1,0c3.1,3.1,6.2,6.2,9.3,9.4
		c0.2,0.2,0.3,0.3,0.3,0.6C139.7,143.2,139.1,143.5,138.5,143.9z M141.8,140.3c-0.1,0.5-0.3,1-0.8,1.2c-0.5,0.2-0.7-0.3-1-0.6
		c-3.1-3-6.1-6.1-9.2-9.1c-0.4-0.4-0.6-0.9-0.4-1.5c0.1-0.1,0.1-0.3,0.2-0.4c0.1-0.3,0.4-0.7,0-0.9c-0.4-0.2-0.6,0.3-0.8,0.5
		c-0.7,1.1-1.5,2.1-2.5,3c-1.5,1.3-3,2.6-4.7,3.6c-0.4,0.2-0.8,0.5-1,1.1c0.6,0,1.1-0.2,1.6-0.4c0.5-0.1,0.9,0,1.2,0.3
		c2.1,2.2,4.1,4.3,6.2,6.5c0.2,0.2,0.5,0.4,0.3,0.7c-0.2,0.3-0.5,0.1-0.8,0c-5.8-1.4-10.3-4.8-14.1-9.2c-1.8-2.1-3.5-4.3-4.6-7
		c-0.5-1.1-0.7-2.3-0.8-3.5c0-0.5,0.2-0.9,0.7-1c3.4-0.1,6.3-1.5,9.2-3.2c0.1-0.1,0.3-0.2,0.4-0.3c1.6-1.1,3-1.9,5.2-1.7
		c2.3,0.2,4-1.4,5.3-3.2c0.8-1,1.4-2.2,2.3-3.1c0.8-0.9,1.2-0.8,1.8,0.2c0.7,1.3,0.8,2.6,0.3,4c-0.5,1.3-1.2,2.6-2,3.8
		c-0.7,1-1.5,1.7-2.7,2.1c-1.1,0.4-2.2,1-3,1.8c-1.8,1.8-3.9,2.9-6,4.1c-0.1,0.1-0.3,0.1-0.4,0.2c-0.2,0.1-0.5,0.3-0.4,0.5
		c0.1,0.3,0.4,0.2,0.6,0.1c1.2-0.3,2.3-0.8,3.4-1.4c1.5-0.8,2.9-1.7,4.2-2.8c0.4-0.4,0.8-0.5,1.2,0c1.7,2.2,3.6,4.1,5.4,6.1
		c1.6,1.8,3.3,3.6,4.6,5.8c0.6,0.9,0.8,2,0.9,3C141.9,139.9,141.9,140.1,141.8,140.3z"/>
</g>
</svg>
