<?xml version="1.0" encoding="utf-8"?>
<!-- Generator: Adobe Illustrator 22.0.1, SVG Export Plug-In . SVG Version: 6.00 Build 0)  -->
<svg version="1.1" id="Layer_1" xmlns="http://www.w3.org/2000/svg" xmlns:xlink="http://www.w3.org/1999/xlink" x="0px" y="0px"
	 viewBox="0 0 188.8 183.7" style="enable-background:new 0 0 188.8 183.7;" xml:space="preserve">
<g>
	<path d="M89.3,0c3.4,0,6.8,0,10.1,0c0.2,0,0.3,0.1,0.5,0.1c2.4,0.1,4.8,0.4,7.1,0.7c10.4,1.3,20.3,4.3,29.7,8.9
		c7.1,3.5,13.7,7.8,19.7,12.9c6.7,5.7,12.5,12.2,17.3,19.5c4.7,7.1,8.3,14.7,10.9,22.9c1.8,5.9,3,12,3.7,18.2
		c0.1,1.2,0.1,2.5,0.4,3.7c0,3.2,0,6.4,0,9.6c-0.2,0.3-0.1,0.6-0.2,0.9c-0.6,8.6-2.3,17-5.3,25.1c-3.8,10.2-9.2,19.5-16.3,27.8
		c-5.7,6.7-12.2,12.4-19.5,17.2c-6.1,4-12.6,7.3-19.4,9.9c-8.4,3.1-17.1,5-26.1,5.8c-1.4,0.1-2.8,0.1-4.1,0.4c-2.3,0-4.5,0-6.8,0
		c-0.2-0.1-0.4-0.1-0.7-0.2c-4.7-0.2-9.4-0.7-14-1.6c-9.9-1.8-19.2-5.2-28-10c-8.5-4.6-16.1-10.4-22.8-17.3
		c-7.2-7.5-13-15.9-17.3-25.3c-4.3-9.3-6.9-19.1-7.9-29.3c-0.1-1.2,0-2.3-0.4-3.5c0-3.2,0-6.4,0-9.6c0.2-0.4,0.2-0.8,0.2-1.2
		c0.3-4.7,1-9.4,2-14C4,64,6.8,56.5,10.6,49.4c3.4-6.3,7.4-12,12.1-17.4c8.6-9.7,18.7-17.3,30.4-22.8c10.4-4.9,21.3-7.8,32.7-8.9
		C87,0.3,88.2,0.3,89.3,0z M51.2,99.5c-1.1-1.8-1.3-3.7-1.3-5.6c0-0.7-0.2-1-0.8-1.3c-1.3-0.7-2.5-1.5-3.6-2.5
		c-1.6-1.4-3-3.1-3.6-5.2c-0.9-3-0.1-5.8,1.4-8.4c1.6-2.7,3.8-4.8,6.2-6.7c0.5-0.4,0.6-0.7,0.4-1.2c-1.7-5.3-3.5-10.4-6-15.3
		c-1.6-3.1-3.3-6.1-5.8-8.6c-0.4-0.4-0.4-0.8-0.1-1.2c2.3-4,5.1-7.6,8.4-10.8c4.5-4.5,9.7-8.2,15.5-10.8c5.4-2.5,11.1-3.9,17.1-4.4
		c4.2-0.4,8.4-0.2,12.6,0.3c3.6,0.4,7.1,1.1,10.5,2.1c0.5,0.1,0.7,0.3,0.7,0.8c0,0.7,0.1,1.3,0.2,2c1,8.1,2.8,16,5.3,23.8
		c1.6,5.2,4.6,9.7,7.5,14.3c0.2,0.3,0.5,0.5,0.9,0.4c0.5-0.1,1.1-0.1,1.6-0.2c0.4,0,0.6-0.2,0.4-0.6c-0.6-1.4-0.3-2.7,0.7-3.9
		c0.4-0.5,0.8-1,1.2-1.4c0.7-0.6,0.4-0.8-0.2-1c-2.5-1-4.9-2.1-7.3-3.3c-2.7-1.3-3.1-3.3-2.9-5.7c0-0.4,0.2-0.7,0.6-0.7
		c2-0.2,4-0.7,6.1-0.5c3.9,0.4,7.7,1,11.6,1.6c1.1,0.2,2.1,0.1,3-0.5c1.1-0.7,2.1-0.7,3.3-0.4c0.5,0.1,1,0.3,1.5,0.4
		c0.7,0.3,1.3,0.3,2,0.2c2.2-0.3,4.4-0.3,6.3,1.2c0.9,0.7,1.9,1.3,2.7,2c1.9,1.6,3.9,3,5.3,5c1.4,1.9,2.6,4,3.5,6.2
		c0.9,2.1,1.7,4.3,1.5,6.8c0,0.2,0,0.5,0.2,0.7c1.1,1.5,2.3,3,3.4,4.5c0.3,0.4,0.5,0.4,0.9,0c0.8-0.9,1.6-1.7,2.4-2.6
		c0.2-0.2,0.3-0.6,0.6-0.5c0.4,0.1,0.3,0.5,0.4,0.8c0.8,2.5,1.5,5,2.2,7.5c0.2,0.7,0.4,0.7,0.9,0.2c0.5-0.5,1-1,1.5-1.6
		c0.4-0.5,0.7-0.5,0.9,0.2c0.5,1.9,1,3.8,1.3,5.8c1.5,8.7,1.8,17.4,0.1,26.1c-1.2,5.9-3.4,11.4-6.9,16.4c-5,7-11.8,11.6-19.8,14.6
		c-6.6,2.4-13.5,3.5-20.5,3.9c-2.9,0.2-5.9,0.2-8.8,0.2c-0.3,0-0.6-0.1-0.8,0.2c-0.5,0.8,0,1.7,0.9,1.8c0.1,0,0.3,0.1,0.4,0.1
		c6.3,0.6,12,2.8,17.4,6c4.5,2.7,8.5,6,12.3,9.6c0.6,0.6,1,0.5,1.6,0c8.8-6.6,16.1-14.4,22-23.7c4-6.4,7.2-13.3,9.4-20.5
		c1.3-4.4,2.3-8.9,2.9-13.5c0.8-6.3,0.9-12.6,0.3-19c-0.7-7.1-2.2-14-4.7-20.6c-2.7-7.5-6.5-14.4-11.2-20.9
		c-4.9-6.8-10.7-12.7-17.3-17.8c-7.2-5.6-15.1-9.9-23.6-13.1c-9.1-3.4-18.6-5.2-28.3-5.6c-8-0.3-15.9,0.5-23.8,2.3
		c-10.3,2.4-19.8,6.4-28.6,12.1c-7.8,5-14.6,11.1-20.4,18.3C20.3,44,16.5,50,13.5,56.5c-3.4,7.3-5.6,14.9-6.9,22.7
		c-0.1,0.6,0,1,0.5,1.4c1.8,1.5,3.5,3.2,5.1,4.9c0.6,0.6,0.9,0.7,1.5,0c1.6-1.7,4.6-0.9,5.2,1.3c0.1,0.4,0.4,0.4,0.6,0.5
		c1,0.2,2.1,0.4,3.1,0.6c9.2,2,17.9,5.2,26,10.1C49.5,98.4,50.3,98.9,51.2,99.5z M86,69.4c-1.4,0-2.8,0.4-4.1,0.6
		c-4.4,0.9-8.9,1.6-13.3,3.1c-3.3,1.1-6.5,2.4-9.2,4.6c-1.9,1.6-3.3,3.4-3,6.1c0.1,0.8,0.3,1.4,1.3,1.4c1.1,0,2.3,0.1,3.4,0
		c0.4,0,0.9,0,1.3,0.2c1.3,0.8,2.4,1.7,3.4,2.9c0.4,0.5,0.5,1.1,0.2,1.7c-0.3,0.5-0.8,0.6-1.3,0.6c-0.8,0-1.6-0.1-2.1-0.8
		c-1.2-1.4-2.7-1.8-4.5-1.8c-2.8,0-4.2,1-5,3.6c-0.8,2.6-0.4,4.8,1.8,6.5c1.9,1.5,4.1,2.5,6.5,3c1.7,0.4,3.5,0.4,5.3,0.4
		c0.8,0,1.2,0.5,1.2,1.2c0,0.7-0.3,1-1,1c-0.2,0-0.3,0.1-0.5,0.1c-0.4,0.1-1,0.1-1.1,0.6c-0.1,0.6,0.3,0.8,0.6,1.1
		c3.7,3.2,7.2,6.7,10.2,10.6c4.3,5.6,7.9,11.6,9.9,18.4c0.2,0.6,0.4,0.7,0.9,0.6c0.3-0.1,0.6-0.1,0.8-0.2c2.4-0.9,4.5-2.3,6.6-3.8
		c0.4-0.3,0.4-0.6,0.2-0.9c-0.3-0.4-0.5-0.8-0.8-1.2c-0.6-1-1.5-1.2-2.6-0.9c-1.1,0.3-2.1,0.7-3.1,1.1c-0.8,0.3-1.6-0.1-2-1.2
		c-0.3-0.9,0.6-0.7,1-1c0.2-0.2,0.5-0.2,0.7-0.3c1.2-0.4,2.4-0.8,3.8-1.2c-1.2-0.8-2.4-1.4-3.3-2.3c-0.9-0.9-1.8-1.8-2.4-3.2
		c1.5,0.8,2.8,1.5,4.1,2.1c1.4,0.7,2.9,1.3,4.6,1.3c2.5-0.1,5.1,0,7.6,0.1c3.8,0.3,7.3-0.7,10.5-2.3c3.1-1.5,5.7-3.7,7.7-6.5
		c0.1-0.2,0.3-0.3,0.2-0.5c-0.1-0.2-0.4-0.1-0.6-0.1c-1.5,0-2.9-0.2-4.3-0.5c-2.5-0.5-5-1-7.2-2.5c-0.3-0.2-0.5-0.1-0.8,0.1
		c-1.3,0.9-2.6,1.6-4,2.3c-6.5,3.1-12.8,3.3-19.1-0.6c-2.5-1.6-4.9-3.3-6.5-5.8c-0.8-1.2-1.3-2.5-1.1-4c0.1-0.6,0.3-0.9,1-0.6
		c1.3,0.4,2.6,0.9,4,1.3c2,0.5,4,0.9,6.1,0.2c1.6-0.6,3.1-1.2,4.6-2c1.4-0.8,2.6-1.8,3.5-3.1c1.3-1.7,2.8-3.1,4.6-4.2
		c0.6-0.4,1.3-0.7,2-0.7c0.8-0.1,1.3,0.3,1.5,1.1c0.3,1.2,0.1,1.7-1.1,2.1c-1.2,0.4-2,1-2.7,2.1c-1.2,1.8-2.6,3.4-4.4,4.6
		c-3.6,2.3-7.3,4.1-11.7,4c-0.5,0-0.6,0.2-0.4,0.6c0.4,0.7,1.1,1.1,1.7,1.6c1.5,0.9,3.2,1.4,4.9,1.9c3.1,0.9,6.2,1,9.3-0.1
		c3.1-1.1,6.1-2.5,8.8-4.5c0.5-0.3,0.8-0.3,1.1,0.1c0.6,0.6,1.2,1.1,1.8,1.6c1.9,1.5,4.1,1.7,6.3,1.9c2.8,0.4,5.5-0.4,8-1.8
		c2.8-1.6,5.3-3.5,6.9-6.4c0.6-1.1,1.1-2.3,1.5-3.6c-0.4,0.2-0.6,0.3-0.8,0.4c-2.1,1.1-4.3,2.1-6.5,2.9c-0.4,0.1-0.8,0.2-1.3,0.2
		c-3.5,0-6.3-1.6-9-3.6c-0.8-0.6-1.4-1.4-1.7-2.4c-0.2-0.7,0.1-1.2,0.6-1.6c0.5-0.4,0.9-0.1,1.3,0.2c0.3,0.2,0.5,0.4,0.8,0.7
		c2.3,2,5,2.9,8,3.2c0.8,0.1,1-0.2,1.1-0.9c0.2-3,0.4-5.9,0.4-8.9c-0.1-5.7-1.3-11.2-4.1-16.3c-1.6-3-5.6-3-7.7-1.3
		c-0.9,0.8-1.9,1.6-3,2.3c-0.2,0.2-0.5,0.4-0.8,0.2c-0.3-0.2-0.2-0.6-0.1-0.9c0.5-1.4,1-2.8,2-3.9c1.1-1.2,2.3-2.3,4.1-2.5
		c1-0.1,1.1-0.2,0.8-1.2c-0.1-0.3-0.2-0.5-0.3-0.8c-0.8-1.8-0.8-1.8-2.7-1.3c-3.4,0.9-6.7,2.1-10.2,2.7c-4.4,0.7-8.9,1.4-13.3,2
		c-0.3,0-0.6,0-0.9,0.3c0.3,0.3,0.6,0.3,0.9,0.4c2.3,0.9,4.1,2.3,5,4.7c0.1,0.3,0.3,0.6,0,0.9c-0.3,0.3-0.6,0.2-0.9,0.1
		c-0.7-0.2-1.3-0.5-1.8-1.1c-1-1.4-2.3-2.5-4.2-2.3c-1.1,0.1-2.1,0.7-2.9,1.4c-1.8,1.4-3.1,3.2-4.4,5.1c-0.4,0.6-0.7,1.3-1.3,1.8
		c-0.3,0.2-0.6,0.6-1,0.3c-0.4-0.2-0.4-0.7-0.4-1.1c0.1-0.8,0.5-1.5,0.8-2.2C82,74.1,82.9,70.9,86,69.4z M34.5,155.2
		c0.3,0.5,0.7,0.8,1.1,0.9c0.8,0.2,1.6,0.3,2.4,0.5c5.5,0.9,10.8,0.6,15.9-1.9c4.8-2.3,8.3-6,10.8-10.7c2-3.8,3.5-7.7,3.4-12.1
		c-0.3-8.9-3.8-16.4-9.9-22.9c-4-4.3-8.8-7.6-14-10.3c-6.9-3.6-14.3-6-21.9-7.7c-2.3-0.5-4.6-0.9-7-1.3c-0.6-0.1-1.1,0-1.2,0.7
		c-0.1,0.8,0.6,0.6,1,0.6c1.1,0.1,2.2,0.1,3.3,0.4c2.5,0.6,4.7,1.6,6.3,3.8c1,1.5,1,3.2-0.2,4.4c-1,1.1-1.6,1-2.3-0.4
		c-0.8-1.7-1.7-3.2-3-4.5c-1.1-1.2-2.4-2.1-4.1-2.4c-1.7-0.3-1.8-0.2-2.4,1.4c-0.1,0.2-0.1,0.4-0.2,0.6c-0.3,0.6-0.1,0.8,0.4,1.2
		c1.6,1.1,3.1,2.3,4.1,4c1.5,2.6,0.7,6-0.8,8.1c-0.2,0.3-0.5,0.6-0.9,0.5c-0.4-0.1-0.3-0.5-0.3-0.8c-0.1-1.2-0.1-2.3-0.4-3.5
		c-0.5-2.1-1.3-4-3.2-5.3c-0.7-0.5-0.9-0.4-0.9,0.5c0,0.7,0,1.4,0,2.1c-0.1,0.7,0,1.2,0.5,1.8c0.7,0.8,1.2,1.8,1,2.9
		c-0.5,2.6-1.5,4.9-3.3,6.8c-0.4,0.4-0.5,0.8-0.3,1.3c0.7,2,1.2,4.1,1.9,6.1c1.3,3.6,2.8,7.1,4.6,10.6c0.2,0.4,0.4,0.6,0.8,0.6
		c3.3,0.3,6.6,0.5,9.9,0.4c3.7-0.2,7.3-0.5,10.9-1.4c0.5-0.1,0.8-0.1,1,0.6c0.3,1.4,0.4,2.9,0.3,4.3c-0.2,2.7-1.6,4.5-4,5.6
		c-2.2,1-4.6,1.3-7,1.6c-1.1,0.1-1.3,0.4-1.2,1.4c0.1,0.9,0.2,1.9,0.3,2.8c0,0.3,0.2,0.5,0.4,0.8c0.9,1.1,0.9,1.1,1.6-0.1
		c0.3-0.5,0.5-0.7,1-0.3c1.3,1,2.7,1.6,4.4,1.4c0.4,0,0.5,0.2,0.5,0.5c-0.1,1-0.6,1.5-1.6,1.6c-1.1,0.1-2.1-0.1-3.2-0.5
		c0.2,0.5,0.6,0.9,0.9,1.1c2.2,1.2,4.5,2,7,1.8c0.2,0,0.5-0.2,0.7,0.1c0.5,0.7,0.1,1.9-0.8,2.1C36.2,155.3,35.4,155.3,34.5,155.2z
		 M68.5,167.8c0,1.6-0.2,3.1-0.6,4.5c-0.5,1.6-0.5,1.6,1.2,2.1c9.5,2.8,19.3,3.9,29.2,3.5c7.2-0.3,14.2-1.4,21.1-3.4
		c8.9-2.5,17.2-6.3,24.9-11.4c0.6-0.4,0.6-0.6,0-1c-1.3-0.9-2.5-1.9-3.8-2.8c-5.5-4-11.4-7.3-17.9-9.4c-6.5-2.1-13.1-2.6-19.8-1.5
		c-7.8,1.2-14.9,4.3-21.9,7.8c-2.8,1.4-5.5,3-8.3,4.5c-0.5,0.3-0.9,0.3-1.4-0.1c-1.3-1.1-2.7-2-4.1-3c-0.4-0.3-0.7-0.3-1.2-0.1
		c-2.3,1.3-4.7,2.6-7,3.9c-2.1,1.1-4.2,2.2-6.3,3.1c-0.7,0.3-1,0-1.1-0.7c-0.1-0.8,0-1.7,0.1-2.5c0.1-1,0.1-1-0.8-0.8
		c-2.4,0.6-4.7,1-7.2,0.9c-0.4,0-0.8-0.2-1.3,0.1c0.2,0.1,0.2,0.2,0.3,0.3c3.6,2.5,7.4,4.8,11.3,6.7c3.6,1.8,7.3,3.3,11,4.6
		c0.4,0.1,0.7,0.2,1-0.1c0.6-0.8,1.3-1.5,1.5-2.5C67.6,169.5,67.9,168.6,68.5,167.8z M95.9,47.5c-0.3-0.7-0.6-1.4-0.8-2.1
		c-2.8-7-5.1-14.2-5.6-21.8c0-0.6-0.2-0.8-0.8-0.8c-3.9,0-7.7,0.2-11.6,0.9c-5.7,1.1-11,2.9-16,5.8c-0.6,0.4-0.8,0.6-0.3,1.3
		c1.8,2.2,3.5,4.5,5.1,6.8c3.1,4.5,5.8,9.3,8,14.3c0.3,0.6,0.5,0.7,1.1,0.4c4-1.9,8.3-2.9,12.6-3.6c2.4-0.4,4.9-0.7,7.4-0.9
		C95.5,47.8,95.8,47.9,95.9,47.5z M61.8,155.1c0.1,0.2,0.3,0.2,0.4,0.2c1.6-0.1,3.1-0.2,4.7-0.4c0.9-0.1,1.6,0.2,2.2,0.8
		c0.6,0.5,1.1,1,1.6,1.6c0.5,0.5,0.8,0.6,1.5,0.3c7.1-4,14.4-7.5,22.1-10.1c0.4-0.1,0.7-0.3,0.9-0.6c3.9-4.4,6.4-9.4,6.9-15.3
		c0-0.2,0.2-0.5-0.1-0.7c-0.2-0.2-0.4,0.1-0.6,0.2c-3.6,2.5-7.2,5-11.3,6.8c-1.5,0.6-2.9,1.1-4.6,1c-0.6,0-1-0.3-1.3-0.9
		c-0.9-2.1-1.9-4.1-3-6.1c-2.7-4.9-5.6-9.5-9-13.9c-3.3-4.3-6.9-8.3-10.8-11.9c-1.4-1.4-3-2.5-5-2.7c0,0.2,0.2,0.3,0.4,0.5
		c0.9,0.8,1.8,1.6,2.6,2.4c3.8,3.9,6.9,8.2,9,13.2c2.4,5.7,3.8,11.5,3.1,17.7c-0.7,6-3,11.2-7.3,15.5
		C63.6,153.5,62.7,154.3,61.8,155.1z M156.3,73c-0.1-0.1-0.1-0.2-0.1-0.3c-0.5-3.9-1.5-7.6-3.1-11.2c-2-4.8-4.9-8.9-9.2-11.9
		c-0.7-0.5-1.5-1.1-2.4-1.1c-1.8,0-3.6-0.2-5.4-0.8c-1.3-0.4-2.7-0.6-4,0.4c-1.9,1.5-3.8,3.1-5.6,4.7c-1.5,1.4-3,2.8-4.1,4.7
		c-0.3,0.5-0.3,0.9,0.4,1c0.5,0.1,1,0.3,1.5,0.3c1.9,0.3,3.9,0.5,5.5,1.9c0.7,0.6,1.7,0.7,2.6,0.3c4.1-1.7,7.9-3.9,10.9-7.2
		c0.2-0.2,0.3-0.6,0.7-0.6c-0.4,3-0.6,5.9-0.5,8.8c0,1.3,0.3,2.6,1.1,3.7c0.8,1.3,1.7,2.5,2.7,3.6c0.2,0.2,0.4,0.4,0.2,0.8
		c-0.2,0.3-0.5,0.2-0.8,0.1c-1.1-0.4-2.2-0.8-3-1.7c-2-2.1-3.1-4.7-3.1-7.6c0-0.2,0.1-0.5-0.1-0.6c-0.3-0.2-0.4,0.1-0.6,0.2
		c-1.7,1.1-3.4,2.3-5.3,3c-0.8,0.3-1.3,0.6-1,1.6c0.1,0.3,0,0.6,0,1c0,0.5-0.2,0.7-0.7,0.5c-1.3-0.4-2.6-0.7-3.9-1
		c-2.5-0.7-4.9-0.5-7.1,1c-0.5,0.4-1.3,0.7-1.2,1.5c0.2,0.8,1,0.6,1.6,0.6c2.6,0,5.1,0.6,7.5,1.8c2.9,1.4,5.7,2.9,8.4,4.6
		c0.5,0.3,0.9,0.5,1.5,0.4c1.2-0.2,2.3-0.1,3.5-0.2c1.1-0.1,1.8,0.5,2.2,1.5c0.3,0.8,0.6,1.6,0.9,2.4c0.2,0.7,0.5,0.8,1.1,0.7
		c2.7-0.4,5-1.6,7.4-2.8c1.3-0.7,2.7-1.5,3.7-2.6c0.2-0.2,0.5-0.5,0.4-0.8c-0.2-0.9-0.5-1.8-1-2.6c-0.3-0.5-0.6-0.4-0.8,0.1
		C157,71.9,156.8,72.5,156.3,73z M139.6,80.9c0.4-0.1,0.6,0,0.9,0c1,0.1,2.1,0.3,3.1,0.2c0.4,0,0.7-0.1,0.9-0.4
		c0.7-1.2-0.2-3.3-1.6-3.4c-1.1-0.1-2.2,0-3.2,0.1c-0.9,0.1-1.8,0-2.7-0.3c-1.6-0.6-3.2-1.3-4.8-2.2c-2-1.1-3.9-2.2-5.8-3.3
		c-0.5-0.2-1-0.7-1.5-0.3c-0.4,0.4,0,1,0.2,1.5c1.3,3.3,2.6,6.6,3.2,10.1c0.5,2.9,1,5.7,0.8,8.7c-0.2,2.2-0.1,4.4-0.1,6.5
		c0,1.1,0.1,1.2,1.2,0.8c2.1-0.7,4-1.9,5.6-3.5c0.2-0.2,0.3-0.6,0.6-0.5c0.3,0.1,0.3,0.5,0.4,0.8c0.6,1.9,0.1,3.7-0.5,5.5
		c-1.6,4.8-4.7,8.5-8.8,11.2c-0.3,0.2-0.7,0.3-0.9,0.9c2-0.1,3.8-0.7,5.4-1.9c5.8-4,8.9-9.5,9-16.5c0-1.7-0.2-3.4-0.2-5.1
		c0-0.3-0.1-0.7,0.4-0.7c0.7,0,0.9-0.5,0.9-1c0.1-1.8-0.4-3.4-1.2-4.9C140.5,82.3,140,81.6,139.6,80.9z M81.4,55.8
		c1.7-0.9,3.4-1.3,5.2-1.7c7.1-1.7,14.4-2.3,21.7-1.8c0.5,0,0.6-0.2,0.5-0.6c-0.2-0.7-0.7-1-1.3-1.2c-1.1-0.4-2.3-0.5-3.4-0.5
		c-3,0-6,0.3-9,0.5c-6.2,0.5-12.3,1.9-17.9,4.7c-3.4,1.7-6.8,3.4-10.2,5.1c-1,0.5-2,1-3,1.5c0.4,0.2,0.6,0.1,0.9,0
		c1.6-0.4,3.1-0.9,4.7-1.5c2.1-0.9,4.2-1.7,6.3-2.6c0.5-0.2,0.7-0.2,0.9,0.4c0.2,0.7,0.5,1.4,0.8,2.1c0.3,0.7,0.1,0.9-0.6,1
		c-5.8,0.5-11.3,1.8-16.7,4c-1.1,0.5-2.4,0.9-3.5,1.6c0.2,0,0.3,0,0.3,0c6.2-1.6,12.5-2.8,18.9-3.4c6.9-0.6,13.9-1,20.8-1.4
		c4.1-0.3,8.2-0.2,12.2-1.1c1.5-0.3,2.9-0.8,4.4-1.4c-0.4-0.3-0.7-0.2-1-0.2c-3.2,0.1-6.5,0.2-9.7,0.4c-0.5,0-0.8-0.1-1-0.6
		c-0.6-1.3-1.4-2.5-2-3.9c-0.4-1-1-1.2-1.9-1.1c-3.8,0.3-7.7,0.7-11.5,1.1C84.5,55.4,83,55.6,81.4,55.8z M120.3,140.3
		c2.3,0,4.5-0.1,6.8-0.3c2.3-0.2,4.6-0.5,6.8-1c8.1-1.6,15.6-4.6,22-9.8c5.5-4.5,9.4-10.1,11.9-16.8c2.3-6.1,3-12.5,3-19
		c0-1-0.5-1.4-1.4-1.4c-0.8,0-1.3,0.6-1.3,1.5c0.1,1.4,0,2.8,0,4.2c-0.4,8.4-2.9,16.1-8,22.8c-4.7,6.3-10.9,10.8-18.2,13.7
		c-8,3.2-16.4,4.2-25,3.7c-0.9-0.1-1,0.5-1.1,1.1c-0.1,0.8,0.2,1.3,0.9,1.4C117.9,140.3,119.1,140.3,120.3,140.3z M76.3,68.3
		c-0.1,0-0.2,0-0.3,0c-6,0.2-11.9,0.7-17.7,2.3c-3.8,1-7.4,2.4-10.3,5.1c-1.6,1.5-3,3.2-3.2,5.5c-0.3,3.4,2.1,6.9,5.2,8.2
		c0.4,0.2,0.7,0.2,0.9-0.3c0.5-1.3,1.5-2.1,2.6-2.7c0.7-0.4,0.6-0.6,0.3-1.2c-2.1-3.2-1.9-6.5,1.4-8.9c3.8-2.8,8-4.5,12.4-5.8
		C70.5,69.6,73.4,69,76.3,68.3z M146,88.1c0.8-0.1,1.5-0.2,2.3-0.2c0.2,0,0.5-0.1,0.7-0.1c6.3-1.3,11.6-4.4,16.7-8.1
		c0.4-0.3,0.5-0.6,0.4-1.1c-0.5-2-1-4.1-1.5-6.1c-0.1-0.2,0-0.5-0.3-0.6c-0.3,0-0.4,0.2-0.5,0.4c-0.8,1-1.6,1.9-2.6,2.7
		c-5.1,4.6-11,7.5-18,7.4c-0.6,0-0.7,0.2-0.5,0.7c0.4,1.2,0.9,2.4,1.3,3.6C144.5,88.1,144.5,88.1,146,88.1z M45.7,39.9
		c-0.2,0-0.3,0.1-0.5,0.2c-0.9,0.9-1.7,1.9-2.3,3.1c-0.3,0.6-0.2,1,0.2,1.5c3.5,4.4,6.1,9.3,8.3,14.4c0.9,2,1.7,4,2.3,6
		c0.2,0.6,0.4,0.8,0.9,0.3c0.6-0.7,1.3-1.4,2-1.9c1.3-0.9,1.2-1.8,0.7-3.1c-2.8-7.2-6.5-14-11.3-20.1C46,40.1,45.9,39.9,45.7,39.9z
		 M23.1,143.1c1-3.1,1.3-3.3,4.4-3.5c1.7-0.1,3.5-0.5,5.1-1.1c2.1-0.8,2.9-2.1,3-4.3c0-0.6-0.1-0.9-0.8-0.8
		c-1.1,0.2-2.2,0.4-3.3,0.5c-4.5,0.6-9,0.6-13.5,0.2c-0.2,0-0.5-0.1-0.7,0.1c-0.2,0.2,0.1,0.4,0.2,0.6c1,1.5,1.9,3.1,2.9,4.6
		C21.3,140.6,22.2,141.8,23.1,143.1z M109.4,144.5c0.9,0.1,1.5-0.3,2-1c0.5-0.7,1-1.4,1.5-2.1c0.5-0.6,0.4-1.2-0.1-1.7
		c-1-1.1-2-2.2-3.1-3.3c-0.4-0.4-0.4-0.6,0.1-0.9c1.4-1,2.7-2,4-3.1c0.6-0.5,0.7-1.1,0.3-1.8c-1.1-2.1-2.4-4.1-4-5.8
		c-0.2-0.2-0.4-0.4-0.6-0.5c-0.1-0.1-0.3-0.2-0.4-0.1c-0.1,0.1-0.1,0.3-0.1,0.4c0,0.5,0.2,1,0.5,1.5c0.6,1.3,1.3,2.6,1.9,3.9
		c0.6,1.2,0.5,1.4-0.6,2c-1.7,1-3.4,2.1-5,3.3c-1.4,1.1-1.4,1.1,0.2,2c1.5,0.8,2.9,1.7,4.4,2.5c0.6,0.3,0.9,0.6,0.2,1.2
		c-0.9,0.7-1.5,1.8-2.1,2.8c-0.2,0.4-0.2,0.6,0.3,0.7C109,144.4,109.2,144.5,109.4,144.5z M116,46.3c-0.5,0-1,0-1.5,0
		c-0.1,0-0.2,0-0.3,0c-0.7,0.2-0.9,0.7-0.5,1.3c0.3,0.5,0.9,0.8,1.4,1c1.8,0.8,3.8,1.1,5.7,1.7c0.7,0.3,1.6,0.5,2,1.2
		c0.3,0.5,0.6,0.4,1,0.1c0.2-0.2,0.5-0.4,0.6-0.6c1.6-2.1,2.1-2.5-1.1-3.6C120.9,46.6,118.5,46.4,116,46.3z M5.9,86
		c-0.1,1.5-0.1,1.4,1.4,1.9c0.8,0.3,1.5,0.5,2.2,1c0.3,0.2,0.7,0.5,0.9,0.1c0.2-0.5,0.9-0.9,0.3-1.5c-1.2-1.3-2.6-2.5-4-3.6
		c-0.4-0.4-0.6-0.2-0.6,0.3C6,84.7,5.9,85.4,5.9,86z M6.3,90.4c-0.7,0-0.8,0-0.7,0.6c0,0.2,0,0.4,0,0.6c0.1,1.5,0.1,1.5,1.5,1.8
		c1.7,0.4,1.7,0.4,2.1-1.3c0-0.1,0.1-0.2,0.1-0.2c0.1-0.3,0-0.5-0.3-0.7C8.1,90.8,7.2,90.5,6.3,90.4z"/>
	<path d="M107.7,94.3c0.5,0,1,0,1.6,0c1.7-0.1,2.4-1,2.1-2.7c-0.2-1.3-1-2.2-1.8-3.1c-0.1-0.1-0.3-0.3-0.4-0.4
		c-0.3-0.5-0.4-1-0.2-1.5c0.3-0.5,0.8-0.4,1.3-0.3c1,0.2,1.9,0.8,2.5,1.7c1.3,1.8,2.1,3.7,1.5,6c-0.5,1.7-1.5,2.7-3.3,2.9
		c-1.5,0.2-3,0-4.4-0.4c-0.4-0.1-0.8-0.4-1.1-0.7c-0.3-0.3-0.3-0.7-0.2-1.2c0.2-0.4,0.6-0.3,0.9-0.4
		C106.7,94.3,107.2,94.3,107.7,94.3C107.7,94.3,107.7,94.3,107.7,94.3z"/>
	<path d="M64.3,77c0.5,0.2,1.2,0.4,1.8,0.6c1,0.3,1.9,0.6,2.9,0.9c0.7,0.2,0.8,0.8,0.7,1.4c-0.2,0.6-0.6,1-1.3,0.8
		c-1.5-0.5-3-0.9-4.5-1.4c-0.6-0.2-0.8-0.7-0.7-1.2C63.2,77.5,63.6,77.1,64.3,77z"/>
	<path d="M94.3,81.1c0,1.1-0.9,2-2,2.1c-1.1,0-2.1-0.9-2-2.1c0-1.1,0.9-2.1,2-2.1C93.3,79,94.3,80,94.3,81.1z"/>
	<path d="M116.2,78.1c1.1,0,2,0.8,2,2c0,1.2-0.8,2.1-2,2.1c-1.1,0-2-0.9-2-2C114.2,79,115.1,78.1,116.2,78.1z"/>
	<path d="M66.3,82.9c0,1-0.6,1.5-1.5,1.1c-1.2-0.4-2.3-0.8-3.5-1.2c-0.7-0.2-0.7-0.8-0.6-1.4c0.2-0.6,0.6-1,1.2-0.8
		c1.3,0.4,2.6,0.9,3.9,1.4C66.2,82.2,66.3,82.5,66.3,82.9z"/>
	<path d="M63.9,133.9c0.1,2.4,0.1,4.7-1.1,6.7c-0.5,0.8-1.3,1.2-2.2,1.4c-1.1,0.3-2.3,0.5-3.4,0.5c-0.5,0-0.7,0.2-0.8,0.7
		c-0.3,1-0.9,1.5-1.9,1.5c-0.8,0-1-0.3-0.7-1c0.1-0.3,0.6-0.8-0.1-1c-0.5-0.1-1.2-0.4-1.4,0.5c-0.2,0.8-1.4,1.4-2.2,1.2
		c-0.5-0.2-0.7-0.4-0.4-1c0.4-0.9,0.4-1-0.6-0.9c-2.1,0.1-3.3-1.1-4-2.9c-1.5-3.5-0.7-7.8,2.1-10c1-0.8,2.2-1.4,3.5-1.8
		c0.6-0.2,0.8-0.5,0.8-1.2c0-1.5,0-2.9-0.2-4.4c-0.1-0.5-0.2-0.7-0.7-0.3c-1.1,0.7-2.3,1-3.3,1.8c-0.4,0.3-0.8,0.6-1,1.1
		c-0.1,0.2-0.2,0.4-0.4,0.4c-0.2-0.1-0.2-0.3-0.3-0.5c-0.2-0.9-0.2-1.7-0.1-2.6c0-1.3,0.1-2.7,0.5-4c0.2-0.6,0.5-1,1.2-0.9
		c1,0,1.9-0.2,2.9-0.3c0.4,0,0.4-0.3,0.4-0.6c-0.2-0.7-0.4-1.4-0.8-2c-0.2-0.3-0.2-0.6,0.2-0.8c0.8-0.4,2.1,0.1,2.4,0.9
		c0.2,0.5,0.3,1.1,0.4,1.7c0.1,0.4,0.2,0.6,0.7,0.6c1.1,0.1,1.2-0.1,0.8-1.1c-0.1-0.3-0.3-0.6-0.4-0.9c-0.3-0.7,0-1.1,0.7-1.1
		c0.9,0,1.7,0.5,1.9,1.4c0.2,1.4,1,2.1,2.4,2.6c2,0.7,3.7,2.1,4.7,4.1c1.2,2.4,0.6,6.2-1.3,7.9c-0.7,0.7-1.7,0.8-2.5,1.1
		c-1.7,0.5-1.7,0.5-1.8,2.3c-0.1,1.3-0.2,2.6-0.4,3.9c-0.1,0.6,0.1,0.7,0.7,0.8c2.2,0.2,3.4-1.3,4.8-2.6
		C63.1,134.6,63.3,134.2,63.9,133.9z M55.1,133.6C55.1,133.6,55.1,133.6,55.1,133.6c0-0.3,0-0.7,0-1c0-0.2,0-0.3-0.3-0.4
		c-0.5-0.1-1.4,0.5-1.4,1c-0.1,1.2-0.2,2.4-0.4,3.6c0,0.4-0.1,0.8,0.5,0.8c0.5-0.1,1.2,0.3,1.3-0.6C55,135.9,55,134.7,55.1,133.6z
		 M55.2,123.9C55.2,123.9,55.2,123.9,55.2,123.9c-0.1-0.6-0.1-1.2-0.1-1.7c0-0.7-0.4-0.7-0.9-0.7c-0.5,0-0.7,0.2-0.7,0.7
		c0.1,1.1,0.1,2.1,0.1,3.2c0,1,0.2,1.2,1.2,0.8c0.4-0.2,0.5-0.4,0.5-0.7C55.2,124.9,55.2,124.4,55.2,123.9z M50.9,135.3
		c0-0.5,0.1-0.9,0.1-1.4c0-0.2-0.1-0.4-0.4-0.3c-0.6,0.1-1.6,1.2-1.7,1.9c-0.1,0.8,0.5,1.8,1.1,2.1c0.4,0.2,0.6,0.1,0.6-0.4
		C50.8,136.5,50.9,135.8,50.9,135.3z M57.5,121.9c0.1,1.2,0.1,2.2,0.2,3.4C58.9,124.1,58.9,122.9,57.5,121.9z"/>
	<path d="M41.5,149.1c-2.3-0.2-4.5-0.7-6.4-2c-0.8-0.6-1-1.5-0.5-2.4c0.3-0.5,0.5-0.3,0.9-0.1c2,1.1,4.1,1.8,6.3,2.1
		c0.4,0.1,0.9,0.1,1.3,0c0.4,0,0.9-0.2,0.9,0.4c0,0.6,0.4,1.4-0.5,1.7C42.9,149.1,42.2,149.1,41.5,149.1z"/>
	<path d="M46.2,153.2c-0.9,0-1.9,0-2.8-0.4c-0.8-0.3-1.2-1.2-1-2.1c0.1-0.5,0.5-0.4,0.8-0.3c2.1,0.4,4.2,0.4,6.3-0.1
		c0.4-0.1,0.7-0.2,1.1-0.3c0.4-0.1,0.8-0.5,1.1,0.1c0.3,0.6,0.6,1.3-0.1,1.8c-1.3,0.9-2.8,1.2-4.3,1.3
		C47,153.2,46.6,153.2,46.2,153.2z"/>
	<path d="M17.3,125.3c0.4,0,0.5,0.2,0.5,0.5c0,1.4,0.3,2.7,1.3,3.8c0.1,0.1,0.3,0.3,0.1,0.5c-0.3,0.3-0.7,0.5-1.2,0.4
		c-0.2-0.1-0.5-0.2-0.7-0.4c-0.9-0.9-1.4-2.1-1.4-3.4C15.8,125.8,16.4,125.3,17.3,125.3z"/>
	<path d="M76.4,145.1c0.9,0,1.7,0.9,1.7,1.9c0,1-0.8,1.8-1.7,1.8c-0.9,0-1.8-0.9-1.7-1.9C74.7,145.8,75.5,145,76.4,145.1z"/>
	<path d="M70,151.4c0-1.1,0.7-1.8,1.7-1.8c0.9,0,1.7,0.9,1.7,1.9c0,1-0.7,1.8-1.7,1.8C70.7,153.3,70,152.6,70,151.4z"/>
	<path d="M79.7,141.7c0-1,0.8-1.8,1.7-1.8c0.9,0,1.7,0.9,1.6,1.9c0,1-0.8,1.8-1.7,1.8C80.5,143.7,79.7,142.8,79.7,141.7z"/>
	<path d="M128.6,57.6c1.5-1.6,2.8-3.1,4.1-4.7c0.5-0.6,1-1.2,1.5-1.9c0.5-0.7,2-0.7,2.5-0.1c0.3,0.4,0.1,0.7-0.1,1
		c-0.9,1.4-2.2,2.4-3.4,3.3c-0.9,0.7-1.9,1.4-3,1.9C129.7,57.5,129.3,57.7,128.6,57.6z"/>
	<path d="M163.4,79.8c-0.8,0-1.6-0.8-1.6-1.6c0-0.8,0.8-1.6,1.6-1.6c0.9,0,1.6,0.7,1.6,1.6C165,79.1,164.3,79.8,163.4,79.8z"/>
</g>
</svg>
