<?xml version="1.0" encoding="utf-8"?>
<!-- Generator: Adobe Illustrator 22.0.1, SVG Export Plug-In . SVG Version: 6.00 Build 0)  -->
<svg version="1.1" id="Layer_1" xmlns="http://www.w3.org/2000/svg" xmlns:xlink="http://www.w3.org/1999/xlink" x="0px" y="0px"
	 viewBox="0 0 148 167.9" style="enable-background:new 0 0 148 167.9;" xml:space="preserve">
<g>
	<path d="M109.5,47.2c14.2,9.4,19,23.6,21.3,39.2c0.4,2.5,0.5,5.1,0.5,7.6c0,2,0.8,1.7,2,1.1c2.3-1.2,4.3-2.7,6.2-4.5
		c0.5-0.5,1.1-1,1.8-0.6c0.7,0.4,0.9,1.1,0.8,1.8c-1.3,7.2-3.3,14-8.5,19.5c-0.5,0.6-1.1,1.3-1.8,1.6c-6.2,2.4-7.7,8.7-11.3,13.3
		c-1.2,1.5,0.5,1.5,1.2,1.8c6,2.4,11.1,6,15.3,11c6.2,7.5,9.5,16.1,10.7,25.7c0.4,3.2,0.2,3.3-3,3.3c-37.6,0-75.1,0-112.7,0
		c-1.1,0-2.3,0-3.4,0c-8.5,0.1-6.4,0.4-5.8-6.9c0.6-6.6,4.3-11.8,9.1-16.1c7.2-6.5,15.8-10.7,24.9-13.9c2.3-0.8,2.3-1.4,0.6-2.9
		c-2.8-2.5-5.1-5.3-7.1-8.5c-0.8-1.3-1.4-1.7-3.1-1.1c-7.2,2.9-12.4,0.3-14.5-7.2c-0.5-1.7-1-3.4-1-5.2c0-2.3-0.7-2.8-2.9-2.2
		c-3.7,1-7.6,1.1-10.2-2.1c-2.9-3.5-3.2-7.7-1.7-12c1.4-4,3.8-7.5,6.3-10.9c0.8-1,1.1-1.7,0.1-2.9C16.3,67,9.5,57.6,1.2,49.4
		c-1.4-1.4-1.4-3-0.8-4.6c0.7-2.2,1.9-4.2,3.4-5.9C19.3,20.8,38.1,7.6,61.4,1.4C64.5,0.6,67.7,0.3,71,0c2.3-0.2,3.6,0.6,4.8,2.6
		c6.6,11,13.6,21.8,21.1,32.2c2.1,2.9,4.4,5.7,6.8,8.4c1.1,1.2,1.9,1.4,3.3,0.2c3.8-3.2,7.2-6.7,9.9-10.9c0.5-0.8,0.8-1.9,2.1-1.7
		c1.4,0.3,1.6,1.5,1.7,2.7c0.2,2.3-1,4-2.4,5.7C115.9,42.3,112.8,44.6,109.5,47.2z M122.9,117.3c-1.9,0.1-3.4,0.3-5,0.2
		c-1.6,0-3.2-0.2-4.7-0.5c-3.3-0.6-3.2-0.6-3.4,2.6c-0.2,4.1-2,5.7-6.1,5.1c-0.9-0.1-1.5,0.1-2.1,0.7c-2.6,2.2-5.7,3.4-8.9,4.4
		c-11.4,3.8-25.9-2.6-30.8-13.8c-0.3-0.7-0.5-1.3,0.1-1.9c0.7-0.8,1.4-0.4,2.1,0c0.4,0.2,0.7,0.5,1.1,0.7c7.2,4.4,14.1,2.4,17.6-5.2
		c1.5-3.2,3.4-6,6.2-8c2.5-1.9,5.4-2.9,8.6-2.8c0.9,0,1.6,0.4,1.6,1.4c0,0.9-0.7,1.2-1.4,1.2c-6.6,0.2-10.3,4.3-12.8,9.8
		c-2.8,6.2-8.4,9.3-15.1,8.2c-0.5-0.1-1.1-0.4-1.6,0.1c0.1,0.2,0.1,0.4,0.2,0.6c12.9,15.1,33.2,7,37.8-5.1c0.8-2.2,1.8-2.3,3.9-1.6
		c13.5,4.3,25.6-1.1,28.4-18c-1,0-1.6,0.7-2.3,1.2c-4.8,2.9-9.8,3.8-15.1,1.3c-1.5-0.7-3.1-1.1-4.8-1.5c-3.2-0.7-6.3-0.9-8.8,1.8
		c-0.9,0.9-2.1,1.3-3.3,1.6c-1,0.2-2.5,0.9-2.8-0.8c-0.3-1.5,1.1-1.5,2.1-1.7c3.6-0.9,4.4-2.7,2.6-6c-1.4-2.7-3.4-4.9-5.6-6.9
		c-0.7-0.7-1.2-1.5-0.4-2.3c0.8-0.9,1.6-0.3,2.3,0.4c2.8,2.8,5.6,5.6,6.9,9.5c0.4,1.2,0.8,1.7,2.2,1.6c3.9-0.4,7.5,0.6,11,2
		c1.3,0.5,2.6,1,4,1.2c1.5,0.2,2.3-0.3,2.3-2c0.1-2.5-0.2-4.9-0.5-7.4c-1.3-10.2-4-20-10.2-28.5c-4.2-5.8-6.1-5.8-10.4,0
		c-0.1,0.1-0.1,0.2-0.1,0.2c-0.5,0.7-1,1.3-1.9,0.7c-0.8-0.6-0.7-1.3-0.3-2.1c1.1-2,2.6-3.8,4.5-5c0.4-0.2,1.1-0.3,0.8-1.1
		c-0.6-1.6-5.8-3.4-7.3-2.5c-4.6,2.7-9.6,4.7-14.8,6C72.5,59.3,58,66.8,44.8,76.9c-7.6,5.9-9,13.7-3.8,21.3c0.6,0.8,1.7,1.6,0.9,2.7
		c-0.8,1.1-1.9,0.3-2.9,0.1c-3.2-0.8-4.9,0.6-4.6,3.9c0.1,1.5,0.4,3,0.7,4.4c1.9,7.9,5.6,9.6,12.8,6c0.2-0.1,0.3-0.2,0.5-0.2
		c1.4-0.9,2.2-0.4,3.1,1c9.3,15,22.6,22.8,40.6,22.3c8.8-0.2,16.2-3.5,22.5-9.6C118,125.6,120.9,121.9,122.9,117.3z M70.9,2.6
		c-4,0.4-7.7,0.8-11.3,1.9C37.9,11.1,20.2,23.7,5.6,40.9c-1.1,1.3-1.9,2.7-2.8,4.2c-0.5,0.9-0.5,1.7,0.4,2.6
		c6.5,6.4,12,13.6,17.6,20.7c1.4,1.7,1.9,1.2,3-0.1c5-6.1,10.5-11.6,16.5-16.7C54,40,69.1,31.1,87.2,28.5c2.1-0.3,1.3-1.2,0.7-2.2
		C83.1,19,78.4,11.7,73.7,4.4C72.9,3.1,72.1,2.3,70.9,2.6z M76.1,142.9c-0.4-1.2,1.3-3.3-1.4-4.2c-4.1-1.3-7.9-3.4-11.4-5.9
		c-0.7-0.5-1.3-0.7-2.2-0.4c-11,3.6-21.5,8.2-29.7,16.9c-3.5,3.7-5.4,8.1-6,13.2c-0.3,2.2,0.3,2.8,2.6,2.8c18.7-0.1,37.5,0,56.2,0
		c19.5,0,39.1,0,58.6,0c1.9,0,2.7-0.3,2.2-2.5c-0.7-3-1.3-6-2.4-8.9c-4.1-11.1-11-19.5-22.4-23.7c-2.9-1.1-6.6,1.9-6.2,5
		c0.8,6,1.7,12,2.6,18c0.5,3.4,0,3.9-3.2,2.8c-5-1.7-10-3.3-14.9-5.1c-1.6-0.6-2.8-0.4-4.2,0.5c-5,3-10.2,6-15.3,8.8
		c-2.8,1.6-3.8,1-3.7-2.3C75.4,153,75.8,148.1,76.1,142.9z M72.7,53.9c1.7,0,3.3,0.1,5,0c8.3-0.5,16.3-2.4,23.6-6.6
		c0.7-0.4,2.1-0.6,0.8-2c-3.9-4.1-7.1-8.7-10.4-13.3c-0.6-0.9-1.3-1.2-2.4-1c-4.3,0.5-8.5,1.4-12.6,2.7C55.4,40.5,39.1,54.1,25,70.8
		c-1.4,1.7-0.2,2.6,0.7,3.6c1.3,1.5,1.8-0.3,2.3-0.9C40.2,60.9,54.8,53.6,72.7,53.9z M73.9,57.1c-0.1-0.2-0.1-0.3-0.2-0.5
		c-0.4,0-0.9-0.1-1.3-0.1c-21.6,0-37.6,10.2-49.6,27.6c-1.5,2.2-2.8,4.5-3.4,7.1c-0.8,3.3-0.8,6.6,1.7,9.2c2.3,2.4,5.1,1.6,7.9,1
		c3-0.7,5.4-2.9,8.5-3.3c-3.8-12.7-2.1-17.6,8.7-25.5c7.2-5.3,14.9-9.6,23-13.3C70.7,58.5,72.3,57.8,73.9,57.1z M78.1,152.7
		C78.1,152.7,78.1,152.7,78.1,152.7c-0.1,0.8-0.1,1.6-0.1,2.4c0,0.7-0.2,1.7,0.2,2c0.7,0.6,1.4-0.3,2.1-0.6c4.6-2.6,9.1-5.3,13.6-8
		c1.4-0.8,2.5-1.1,4.1-0.4c4.4,1.7,9,3,13.4,4.7c1.9,0.7,2.3,0.2,2-1.6c-0.7-4.6-1.4-9.2-2-13.8c-0.2-1.8-0.9-1.8-2.2-1
		c-3.1,1.9-6.4,3.5-9.9,4.1c-6,1.1-12.1,1.2-18.1,0.1c-1.8-0.4-2.5,0.1-2.6,2C78.6,145.8,78.3,149.2,78.1,152.7z"/>
	<path d="M75.6,67.8c-5.2-0.4-9.3,3.3-9.7,8.8c0,0.3,0,0.7,0,1c-0.3,1.2,1,3.4-1.1,3.4c-2.4,0-1.5-2.4-1.5-3.8
		c0.1-8,6.1-13.3,13.4-12.1c1,0.2,2.4,0,2.3,1.5c-0.1,1.7-1.6,1.2-2.7,1.1C76.1,67.9,75.9,67.9,75.6,67.8z"/>
	<path d="M46,108.8c-0.2-1.3-0.4-2.4,0.9-2.5c1.4-0.1,1.5,1.2,1.6,2.2c0.3,3-1.2,5.2-4.1,6.1c-2.9,0.9-5,0-6.5-2.8
		c-1.2-2.3-1.8-4.7-2-7.3c-0.1-0.9,0-1.9,1.2-1.9c1.1,0,1.4,0.9,1.4,1.8c0.1,1.9,0.5,3.8,1.3,5.6c0.7,1.5,1.6,2.7,3.7,2.1
		C45.3,111.6,46.4,110.6,46,108.8z"/>
	<path d="M82.4,86.3c0,2-1.9,3.9-3.9,3.9c-2,0-3.9-1.9-4-3.8c-0.1-2.1,1.9-4.1,4-4C80.6,82.4,82.4,84.3,82.4,86.3z"/>
	<path d="M118.9,73.6c0,2-2,3.9-3.9,3.9c-1.9,0-3.9-2-4-3.9c0-2,2-4,4.1-3.9C117.2,69.7,118.9,71.5,118.9,73.6z"/>
	<path d="M50.7,84.2c-0.1,0.9-0.7,1.1-1.4,1.4c-2.7,1-5.3,2.3-7.2,4.5c-0.6,0.7-1.3,0.9-2,0.2c-0.6-0.6-0.4-1.3,0.1-1.9
		c2.4-2.8,5.5-4.5,9-5.5C50,82.7,50.6,83.3,50.7,84.2z"/>
	<path d="M44.4,94.5c-1.2-0.4-1.9-1-1.2-2.1c1.1-1.7,2.8-2.9,4.7-3.6c1.2-0.4,2.3,0.7,1.6,1.5C48.1,92,46.1,93.1,44.4,94.5z"/>
	<path d="M16.6,51.4c0.7,0,1.2,0.4,1.5,0.9c2.5,3.2,5,6.3,7.4,9.5c0.6,0.7,1,1.6,0.2,2.3c-0.8,0.7-1.6,0.2-2.2-0.6
		c-2.5-3.2-5-6.5-7.6-9.7C15.1,52.7,15.3,51.9,16.6,51.4z"/>
	<path d="M13.6,47.7c-0.1,0.6-0.4,1-0.9,1.2c-0.6,0.2-1.1,0-1.4-0.4C10.1,47,9,45.6,7.8,44.2c-0.4-0.4-0.4-1-0.1-1.5
		C8,42.2,8.5,42,9,42.1C9.8,42.3,13.6,46.9,13.6,47.7z"/>
	<path d="M34.6,162c-1-0.2-1.4-0.9-1.1-1.9c2.3-6.5,6.4-11.6,12.3-15.3c0.7-0.4,1.6-0.5,2.1,0.3c0.5,0.9,0,1.5-0.7,2
		c-5.3,3.3-8.9,7.8-11.1,13.6C35.8,161.4,35.5,162,34.6,162z"/>
	<path d="M53.3,143.1c-0.9,0-1.4-0.1-1.7-0.6c-0.3-0.6-0.1-1.1,0.3-1.4c2-1.8,4.4-3.1,7.1-3.7c0.5-0.1,1,0,1.3,0.6
		c0.3,0.6,0.2,1.2-0.2,1.4C57.7,140.6,55.2,141.6,53.3,143.1z"/>
</g>
</svg>
