<svg xmlns="http://www.w3.org/2000/svg" viewBox="0 0 91.78 99.18"><title>currency</title><polyline points="10.12 36 35 36 35 51 5.71 51"/><polyline points="2.16 60 45.84 60 45.84 75 0 75"/><line y1="60" x2="4.33" y2="60"/><polyline points="82.02 36 57.14 36 57.14 51 86.43 51"/><polyline points="89.61 60 45.66 60 45.66 75 91.78 75"/><polyline points="43.4 99.18 26.07 51.8 16.85 98.09 2.15 98.11 19.36 12.19 27.44 12.19 46.07 70 64.18 12.16 72.21 12.15 89.8 98.03 75.04 98.04 66.09 51.76 48.85 99.18"/><polyline points="17.86 19.68 21.85 19.68 21.85 0"/><polyline points="23.78 0 23.78 12.19 27.44 12.19"/><rect x="21.85" width="1.93" height="12.19"/><polyline points="73.75 19.68 69.83 19.68 69.83 0"/><polyline points="67.89 0 67.89 12.16 64.18 12.16"/><rect x="67.89" width="1.93" height="12.19" transform="translate(137.72 12.19) rotate(180)"/></svg>