<?xml version="1.0" encoding="utf-8"?>
<!-- Generator: Adobe Illustrator 22.0.1, SVG Export Plug-In . SVG Version: 6.00 Build 0)  -->
<svg version="1.1" id="Layer_1" xmlns="http://www.w3.org/2000/svg" xmlns:xlink="http://www.w3.org/1999/xlink" x="0px" y="0px"
	 viewBox="0 0 384.5 104.2" style="enable-background:new 0 0 384.5 104.2;" xml:space="preserve">
<g>
	<path d="M179.7,70.8c0.1-2.1,0-4.2,0.2-6.4c-1.2,0-2.4-0.1-3.6-0.3c0.2,0.2,0.1,0.6,0,1.2c-1.2,4.8-0.7,9.2,1.6,13
		C178.9,75.9,179.6,73.4,179.7,70.8z"/>
	<path d="M381.7,35.8c-1.6-1.2-3.4-1.7-5.3-1.7c-2.7,0-5.3,0-8,0c-37.7,0-75.4,0-113.2,0c-1.1,0-2.2,0.1-3-1
		c-0.2-0.3-0.5-0.5-0.5-0.9c0.3-1.7-0.7-3.2-0.8-4.8c-0.1-1-0.6-1.9-1.5-2.4c-0.3-0.2-0.6-0.4-0.8-0.6c-1.6-2.1-3.2-2.6-5.6-1.5
		c-0.8,0.4-1.3,0.3-1.9-0.3c-4.8-4.6-9.6-9.1-14.4-13.6c-0.7-0.6-1.1-1.3-0.6-2.2c0.5-0.9,1.3-1.1,2.3-0.8c2.4,0.6,3.9,0.1,4.3-1.4
		c0.5-1.8-0.5-3.4-2.6-4.3c-0.3-0.1-0.7,0-0.9-0.4h-3c-0.2,0.4-0.7,0.3-1.1,0.5c-5.5,2-6.9,8.5-2.8,12.5c4.5,4.4,9,8.7,13.6,13
		c0.7,0.6,1.1,1.2,0.6,2.2c-0.3,0.6,0,1.3,0,1.9c0.1,0.6,0.9,1.4,0.2,1.8c-1.2,0.7-1.8,2-3.5,2.3c-4,0.7-6.6-1.1-9.4-3.5
		c-4.2-3.7-9.2-6.2-14.5-8.2c1.1-1.3,2.4-2.4,2.9-4.1c0.2-0.8,0.1-1.4-0.6-1.8c-0.8-0.4-1.5-0.2-2,0.5c-0.2,0.2-0.3,0.5-0.5,0.8
		c-0.6,1-1.4,1.8-2.2,2.6c-1,1-2.1,0.9-3.1,0.2c-0.8-0.6-1.6-1.4-2.3-2.1c-2.8-3.2-5.3-6.5-7.1-10.4c-0.8-1.6-1.9-2.4-3.7-2.5
		c-4.1-0.2-7.8,1-11.4,2.8c-5.5,2.8-10.1,6.5-13.4,11.7c-1.5,2.4-3.1,4.7-2.3,7.8c0.1,0.5-0.3,0.7-0.6,0.9c-2,1.5-4,3-5.8,4.8
		c-0.5,0.5-1.2,0.5-1.8,0.5c-4.3,0-8.6,0-12.9,0c-44.3,0-88.7,0-133,0c-1.2,0-2.4-0.1-3.6,0.2c-2.8,0.8-4.7,2.6-5.6,5.3
		c-0.1,0.4-0.1,0.8-0.4,1.1v56.8c0.3,0.2,0.3,0.6,0.4,0.9c1,3.4,3.9,5.6,7.4,5.7c0.6,0,1.1,0,1.7,0c121.8,0,243.6,0,365.4,0
		c1.3,0,2.7,0.1,4-0.2c2.7-0.7,4.3-2.6,5.5-4.9V39.3C383.6,38.1,383,36.7,381.7,35.8z M250.1,35.2c0.7-0.7,1.2-0.3,1.7,0.2
		c5.7,5.3,11.3,10.6,17,15.8c0.4,0.4,0.9,0.7,0.9,1.2c0,0.9-0.9,1.4-1.6,0.9c-0.2-0.1-0.4-0.3-0.6-0.5c-5.7-5.3-11.3-10.7-17-16
		C250.1,36.4,249.2,36.1,250.1,35.2z M265.3,80.1c5.3,6.9,14.6,8.7,22.2,4.3c7.2-4.2,10.2-13.4,6.9-21.1c-2-4.6-5.3-7.7-10-9.4
		c-4.6-1.6-9.1-1.2-13.9,1c1.8-2.6,1.7-3-0.3-4.9c-2.2-2.1-2.2-2.1,0.7-3.1c15.6-5.3,31.6,5.9,32.1,22.4
		c0.4,12.7-9.6,23.5-22.8,24.6c-11.9,1-23.5-8.3-25.3-20.3c-1.2-8.4,1.3-15.5,7.2-21.4c0.7-0.7,1.2-0.8,2,0c1.4,1.4,2.6,3,4.5,3.8
		C259.9,63,260.5,73.9,265.3,80.1z M251,40.1h-6.9c0.9-1.6,2.5-1.8,3.7-2.6c0.3-0.2,0.6,0.1,0.8,0.3C249.3,38.5,250,39.1,251,40.1z
		 M244.8,25.4c-0.1-0.5-0.6-1,0.3-1.3c0.7-0.2,1.5-0.2,1.9,0.5c0.5,1,1.4,1.4,2,2.1c1.2,1.5,1.2,3.6,1,5.5c-0.1,1.7-1.5,2.5-3,2.9
		c-0.1,0-0.2,0-0.4-0.1c0.4-1.1,1.3-2.1,1.3-3.5c-0.8,0.4-1.1,1.3-1.6,1.8c-0.4,0.4-0.9,0.8-1.4,1.2c-0.4,0.3-1,0.4-1.3-0.1
		c-0.3-0.5-0.1-0.8,0.2-1.2c1.1-1.1,1.9-2.3,2.2-3.8c-0.1-0.1-0.3-0.3-0.4-0.4c-0.6,0.7-1.2,1.5-1.8,2.2c-0.3,0.3-0.7,0.7-1.2,0.3
		c-0.4-0.3-0.4-0.8-0.3-1.2c0.2-1.1,0.9-1.9,1.6-2.6C244.4,27,244.9,26.3,244.8,25.4z M242.3,25.8c0.3,0.1,0.7-0.2,0.9,0.2
		c0.2,0.4-0.2,0.6-0.5,0.9c-2.4,2.7-2.5,5.2-0.4,8.1c0.5,0.7,1.3,0.8,1.9,1.4c0.6,0.5,0.7,0.8-0.1,1.3c-2.2,1.4-2.2,1.4-3.8-0.8
		c-0.4-0.6-0.8-1.1-1.3-1.7c-0.5-0.7-1-1.4-0.4-2.3c0.3-0.5,0.2-1,0-1.6C237.4,28.4,239,25.9,242.3,25.8z M235,22.3
		c-3.9-3.6-7.7-7.3-11.6-10.9c-1.7-1.6-2.2-4-1.2-6.2c0.9-2.2,2.7-3.4,5.2-3.4c1,0.1,2.1,0.3,3,1c0.5,0.4,0.8,0.9,0.4,1.4
		c-0.3,0.5-0.8,0.5-1.3,0.3c-0.9-0.4-1.9-0.7-2.9-0.4c-2.3,0.5-3.4,3.1-2.2,5c0.6,1,1.4,1.8,2.3,2.6c4.2,4,8.4,7.9,12.5,11.9
		c0.3,0.3,1.3,0.6,0.6,1.3c-0.6,0.5-1.4,0.8-2.1,0C236.9,24,235.9,23.2,235,22.3z M235.5,35.3c0.4-0.4,0.8-0.6,1.3-0.1
		c1.2,1.7,2.6,3.3,3.6,5.1c0.1,0.1,0.1,0.3,0.2,0.4c-0.1,0.6-0.5,1-1,1.2c-0.5,0.3-0.7-0.1-1-0.4c-1.2-1.6-2.3-3.2-3.5-4.8
		C234.6,36,235.1,35.7,235.5,35.3z M239.1,46c0.6-0.8,0.7-1.8,1.2-2.7c0.6-1.1,1.5-1.9,2.2-2.9c0.3-0.4,1,0,0.7,0.4
		c-0.9,1.3-2,2.3-2.6,3.8c-0.3,0.8-0.6,1.6-1.2,2.2c-0.1,0.1-0.3,0.3-0.4,0.4c0.2,0.1,0.5,0.1,0.7,0.2c5.9,1.9,9.6,7.6,9.3,14
		c-0.4,5.9-5,11.1-10.9,12.2c-2.4,0.5-4.8,0.2-7.2,0.2c-1,0-1.3,0.3-1.3,1.3c0,5,0,10,0,15c0,0.9-0.2,1.4-1.3,1.5
		c-1.6,0.1-3.2,0.5-4.7,0.8c-1,0.2-1.3,0-1.3-1.1c0.1-3.5,0-7,0-10.5c0-7.8,0-15.6,0-23.4c0-0.2,0-0.4,0-0.6c-2.5,1.1-5.1,1.9-7.9,2
		c-0.5,0-0.5-0.8,0-0.8c3.4-0.1,6.5-1.3,9.5-2.8c2.6-1.3,5.1-2.6,7.6-4C234.2,49.9,237.4,48.3,239.1,46z M169.1,63.1
		c0-0.1,0-0.1,0-0.1c-2.2-0.4-4.4-0.8-6.6-1.2c-2.9-0.6-5.8-1.6-8.5-2.7c-2.4-1-4.6-2.5-7-3.6c-0.5-0.2-0.1-0.9,0.4-0.7
		c2.5,1.2,4.7,2.7,7.3,3.8c2.6,1.1,5.3,1.9,8,2.5c2.7,0.6,5.5,1,8.3,1.5c3,0.5,5.9,1,9,1.1c0,0,0.1,0,0.1,0c0.2-0.3,0.8-0.1,0.7,0.4
		c-0.4,2.8-0.1,5.7-0.4,8.5c-0.3,2.3-1.1,4.6-2,6.7c0,0,0,0.1,0,0.1c0.8,1.2,1.7,2.3,2.8,3.4c5.8,5.6,15.4,6,21.6,0.9
		c3.2-2.6,5.5-5.9,6.3-9.9c0.3-1.4,0.8-2.7,1.4-3.9c1.4-3.1,2.7-6.3,3.4-9.7c0-0.2,0.2-0.3,0.4-0.7c1.9,3.9,2.8,7.8,2.5,11.9
		c-0.8,11.6-8.5,20.3-19.9,22.6c-12.8,2.6-26.2-6.9-28.1-19.8c-0.5-3.1-0.4-6.2,0.2-9.2c0-0.2,0.1-0.3,0.1-0.5
		C169.1,63.8,169.2,63.4,169.1,63.1z M131.3,73.6c0,5.6,0,11.1,0,16.7c0,1.1-0.3,1.5-1.4,1.6c-1.6,0.2-3.2,0.4-4.7,0.8
		c-0.9,0.2-1.2-0.1-1.1-1c0-0.3,0-0.6,0-0.9c0-14.4,0-28.7,0-43.1c0-0.6-0.1-1.2,0.4-2c0.9,1,1.7,1.9,2.5,2.7
		c0.3,0.3,0.3,0.7,0.1,1.1c-0.5,1-0.6,2.2-0.7,3.3c-0.1,1.2,0.3,1.8,1.1,2.7c1.3,1.3,2.4,1,3.6,0.2c1.4-1,2.2-0.7,3.4,0.5
		c6.3,6.6,12.7,13.1,19.1,19.7c0.2,0.2,0.4,0.6,0.8,0.6c0.3-0.5,0.1-1.1,0.1-1.6c0-4.8,0-9.5,0-14.3c0-1,0.3-1.2,1.2-0.8
		c1.7,0.6,3.4,1.1,5.1,1.6c0.6,0.2,0.9,0.4,0.9,1.1c0,10.5,0,20.9,0,31.4c0,0.1-0.1,0.2-0.2,0.5c-10.1-10.3-20-20.6-30.4-31.1
		C131.3,67,131.3,70.3,131.3,73.6z M147.6,49.8c0.7-1.7,1.3-3.3,2-5c0.2-0.4,0.5-0.7,0.9-0.4c0.4,0.2,0.8,0.4,0.6,0.9
		c-0.7,1.8-1.5,3.6-2.2,5.4c-0.1,0.2-0.3,0.3-0.4,0.4C147.9,50.9,147.3,50.6,147.6,49.8z M169.7,45.7c-0.7-2.7-0.8-6.1,1.8-7.8
		c0.4-0.3,0.8,0.4,0.4,0.7c-4,2.6-1.2,12.3,3.6,12.3c0.2,0,0.3,0.1,0.4,0.3c0.2,0,0.4,0,0.6,0c0.5,0,0.5,0.8,0,0.8
		c-4.9-0.1-9.4-2.1-13.9-4c-2.1-0.9-4.4-1.6-6.3-2.8c-0.4-0.3-3.2-2.3-3.5-1.8c-0.2,0.5-0.9,0.1-0.7-0.4c0.5-1,1.8-0.3,2.4,0.1
		c1.7,1,3.2,2.1,5.1,2.8c4.3,1.7,8.6,4,13.2,4.9C171.2,49.6,170.2,47.5,169.7,45.7z M188.7,59.8c-0.1-0.5-0.3-1.1,0.1-1.4
		c0.5-0.4,0.9,0.2,1.3,0.5c6.9,3.7,13.8,4.2,20.5-0.4c0.3-0.2,0.5-0.5,1-0.4c0.1,1.1-0.3,2-0.6,3c-1.8,6.7-5,12.7-8.7,18.5
		c-0.5,0.7-0.9,1-1.6,0.3c-0.2-0.2-0.6-0.3-0.7-0.5c-2-2.5-4.2-2.5-6.6-0.6c-1.4,1.1-2.5,0.5-3.8-0.5c-1.8-1.4-2.5-2.9-1.8-5.3
		C188.9,68.8,189.2,64.3,188.7,59.8z M212.2,25.6c5.3,2.3,9.9,5.5,14.1,9.5c0.5,0.4,0.9,1,1.6,0.9c0.6-0.1,1.3,0,2.3,0
		c-1.4,1.4-2.8,2.2-4.1,3.1c-1.4,1.3-3.1,2.5-5,2.8c-0.5,0.1-0.7-0.7-0.2-0.8c1.4-0.3,2.6-1,3.8-1.9c0,0-0.1-0.1-0.1-0.1
		c-2.9-2.9-6.1-5.5-9.6-7.6c-0.3-0.1-0.5-0.3-0.7-0.6c-1.6-2.5-3.4-4.7-6-6.7C209.9,24.5,211,25.1,212.2,25.6z M204.2,25.1
		c0.8-0.4,1.5-0.3,2.2,0.3c0.5,0.4,0.7,0.7,0,1.1c-0.5,0.2-0.9,0.6-0.6,1.2c0.3,0.6,0.7,0.2,1.2,0.1c1.1-0.3,2.1,0,2.8,0.9
		c3.3,3.8,5.1,8.2,5.5,13.2c0,0.7-0.3,0.9-0.9,0.8c-1.8-0.3-3.5-0.9-5.3-0.9c-0.6,0-0.6-0.7-0.9-1.1c-1-1.8-1.8-2.2-3.6-1.7
		c0.1,0.7,0.7,0.9,1.1,1.3c1,1.2,0.9,1.9-0.3,2.8c-0.3,0.2-0.8,0.4-0.6,0.9c0.2,0.5,0.7,0.8,1.2,0.6c0.5-0.1,1-0.2,1.4-0.5
		c1.4-1.2,3.1-1.2,4.5-0.7c2.9,1,5.5,0.8,8.1-1.2c-0.2,2.3-1.1,3.9-2.4,5.2c-2.4,2.4-5.3,3.4-8.6,2.2c-1-0.3-1.3-0.1-1.8,0.7
		c-2.4,4.1-6.8,6-11.4,4.9c-1.2-0.3-2.3-0.7-3.1-1.6c0.2-0.5,0.6-0.3,0.9-0.3c2.1-0.1,3.7-1,4.6-2.8c1.2-2.2,2.8-3.9,5.1-4.8
		c0.4-0.1,0.7-0.3,0.6-0.7c-0.1-0.5-0.5-0.6-0.9-0.5c-2.4,0.1-3.8,1.8-5.2,3.4c-0.2,0.2-0.4,0.5-0.5,0.8c-1,4-6,4-8.3,0.8
		c-0.1-0.1-0.2-0.4-0.6-0.3c0.5,2.8,1.9,5,4.4,6.4c4.3,2.5,9.9,1.8,13.8-1.7c0.6-0.5,1-1.1,1.9-0.9c0.2,0,0.6-0.1,0.7-0.3
		c0.6-1.3,1.8-1.1,2.9-1.1c0.4,0,1-0.3,1.3,0.1c0.3,0.5-0.2,0.9-0.4,1.3c-2.7,4.3-6.5,6.5-11.5,6.8c-5.9,0.3-10.8-2.2-14.9-6.2
		c-1.2-1.1-1.1-1.1-2.9-0.8c-1.6,0.3-3.1-0.1-4.2-1.3c-1.5-1.7-1.2-3.5,0.9-4.4c0.3-0.1,0.9-0.1,0.8-0.7c-0.1-0.5-0.6-0.6-1-0.7
		c-1.4-0.2-1.8-0.9-1.5-2.4c0.5-2.5,1.8-4.4,3.5-6.2c2.8-2.8,6-5.1,9.7-6.9c-0.3,0-0.6,0-0.9,0.1c-6.2,2.2-11.7,5.4-15,11.5
		c-1.1,2.1-1.3,4.2,0.1,6.2c0.2,0.2,0.5,0.5,0.2,0.8c-0.3,0.3-0.6,0.1-1-0.1c-1.8-0.8-2.8-3.2-2.3-5.5c0.5-2.2,1.6-4,3.1-5.6
		c4-4.2,9-6.8,14.4-8.6c3.7-1.2,7.6-1.9,11.3-3C202.5,25.8,203.4,25.5,204.2,25.1z M197.4,18.2l0.2,0.4c-1,0.2-1.9,0.5-2.9,0.7
		c-0.8,0.2-1.1,0.5-0.4,1.2c1.1,1,2.1,2,3.1,3c0.4,0.4,0.9,0.6,1.5,0.4c1.1-0.3,2.2-0.5,3.4-0.7c-0.9,0.8-2,1.2-3.2,1.5
		c-2.8,0.7-5.6,1.3-8.3,2.1c-6.8,2-13.1,4.8-17.9,10.4c-0.1,0.1-0.3,0.1-0.6,0.3C177.9,26.9,185.6,19.8,197.4,18.2z M174.7,14
		c3.2-2.5,6.7-4.5,10.6-5.7c0.6-0.2,1.1-0.2,1.3,0.5c1.3,3,3.1,5.6,5,8.1c0.1,0.2,0.3,0.4,0.4,0.6c0,0.5-0.4,0.5-0.6,0.6
		c-3.3,1.1-6.3,2.7-9.1,4.7c-0.6,0.5-1.1,0.3-1.5-0.3c-1.9-2.4-4-4.6-6.2-6.7C173.9,15.1,173.9,14.6,174.7,14z M166,26
		c0.1-0.5,0.2-1,0.6-1.2c0.4-0.1,0.6,0.2,0.9,0.5c2.1,1.8,3.9,3.8,5.6,6c0.4,0.6,0.5,1,0.1,1.6c-0.4,0.6-0.7,0.7-1.2,0.1
		c-1.7-2.1-3.5-4.1-5.5-5.9C166.1,26.8,165.8,26.4,166,26z M146.6,36.6c0.2-0.6,0.6-0.6,1.1-0.6c1.6,0,3.1,0,5.4,0
		c2.8,0.8,5.6-0.4,8-3.1c0.9-1,2.1-1.7,3.2-2.5c0.3-0.2,0.5-0.4,0.8-0.5c0.1-0.2,0.2-0.4,0.5-0.3c2.9,1.2,4.3,4.1,6,6.6
		c0.3,0.4-0.4,0.9-0.7,0.4c-0.9-1.4-1.7-3-2.8-4.2c0,0.4-0.5,0.8-1.6,1.6c-2.1,1.5-4,3.2-5.8,5c-0.7,0.8-1.6,1.2-2.6,1.2
		c-2.9,0-5.7,0-8.6,0C147.7,40.2,146.2,38.1,146.6,36.6z M143,45.4c0.9-0.3,0-1.2-0.1-1.9c-0.1-1.7,0.1-3.4,0.4-5.1
		c0.1-0.6,0.4-1.2,1.4-1.6c0.2,2.3,1.3,4.1,2.4,5.8c0.7,1,0.5,2,0.1,3.1c-0.7,2.6-2,3.7-4.8,3.9c-4.1,0.3-7.9,2.1-11.5,4.2
		c-0.6,0.3-1.2,0.9-2,0.4c-0.9-0.5-0.7-1.3-0.8-2.1c-0.1-1.2,0.4-2.2,1.3-3.1c3.1-2.9,6.7-5.1,10.6-6.6c0.7-0.3,1.2-0.2,1.3,0.6
		c0,0.2,0.1,0.4,0.2,0.6C141.9,44.4,142.3,45.6,143,45.4z M375.6,102.4c-122.3,0-244.6,0-366.8,0c-4.3,0-6.7-2.3-6.7-6.6
		c0-17.7,0-35.4,0-53.2C2,38.4,4.4,36,8.6,36c44,0,88.1,0,132.1,0c0.4,0,0.9,0,1.4,0.1c-0.4,1.1-0.9,2.1-1,3.2
		c-0.1,0.6-0.6,0.7-1,0.7c-0.9,0.1-1.8,0.1-2.7,0.1c-42.4,0-84.9,0-127.3,0c-0.6,0-1.2,0-1.8,0c-1.6,0.1-2.2,0.7-2.3,2.3
		c0,3.6,0,7.2,0,10.8c0,14,0,27.9,0,41.9c0,2.7,0.4,3,3,3c122.2,0,244.4,0,366.5,0c2.8,0,3.1-0.2,3.1-3.1c0-17.3,0-34.5,0-51.8
		c0-2.9-0.3-3.2-3.2-3.2c-37.3,0-74.7-0.1-112,0.1c-3.6,0-5.7-1.6-7.8-4c0.5-0.4,1.1-0.2,1.6-0.2c39.5,0,79,0,118.5,0
		c4.8,0,7.1,2.3,7.1,7.1c0,17.3,0,34.6,0,52C382.9,100.2,380.7,102.4,375.6,102.4z M118.2,69.7c0,13.3-10.8,24.2-24.1,24.3
		c-13.3,0.1-24.3-10.8-24.3-24.2c0-13.4,10.8-24.2,24.1-24.2C107.3,45.6,118.2,56.4,118.2,69.7z M64.5,92c-1.4,0.1-2.8,0.3-4.1,0.7
		c-1.2,0.3-1.7,0-1.8-1.3c-0.4-3.7-0.8-7.5-1.3-11.2c-0.5-4.4-1-8.8-1.6-13.6c-5.6,8.9-11,17.5-16.6,26.3
		C33.6,84.1,28.2,75.5,22.8,67c-0.1,0-0.2,0.1-0.3,0.1c-0.5,4-0.9,8-1.4,12c-0.5,4.3-1,8.5-1.5,12.8c-0.1,0.7-0.3,0.9-1.1,0.8
		c-1.7-0.3-3.5-0.6-5.2-0.8c-0.7-0.1-1-0.4-0.9-1.2c1-8.5,2-17.1,3-25.6c0.7-6.2,1.4-12.3,2.2-18.5c0-0.2,0.1-0.4,0.2-1
		C25,57,32,68.1,39.1,79.4C46.2,68.1,53.2,57,60.2,45.9c0.1,0,0.3,0.1,0.4,0.1c0.2,1.9,0.5,3.9,0.7,5.8c1.2,10.7,2.5,21.5,3.7,32.2
		c0.2,2.1,0.5,4.2,0.8,6.2C66,91.4,65.7,91.9,64.5,92z M316.3,63.1c0,6.9,0,13.7,0,20.6c0,2,0,2,1.9,2c5.9,0,11.8,0,17.7,0
		c1.2,0,1.6,0.3,1.1,1.5c-0.6,1.5-1.1,3.1-1.6,4.7c-0.2,0.8-0.6,1.1-1.5,1.1c-7.9,0-15.8,0-23.7,0c-1.2,0-1.2-0.6-1.2-1.5
		c0-7,0-14,0-21c0-7,0-13.9,0-20.9c0-1.3,0.5-1.7,1.7-1.8c1.4-0.1,2.9-0.3,4.3-0.7c1.2-0.3,1.4,0.2,1.4,1.2
		C316.2,53.2,316.3,58.1,316.3,63.1z M354.1,72c-5.3-6.4-10.4-12.9-15.7-19.3c-0.9-1-0.8-1.6,0.3-2.3c1-0.7,2-1.5,2.9-2.4
		c1-1.1,1.6-1.1,2.6,0.2c4.3,5.5,8.8,10.9,13.2,16.3c0.3,0.4,0.6,0.7,1.1,1.3c2.8-6,5.5-11.8,8.1-17.6c0.5-1.2,1-1.4,2.1-0.8
		c1.1,0.6,2.2,1.1,3.4,1.5c1.4,0.5,1.6,1,1,2.4c-5.2,11.1-10.3,22.3-15.4,33.5c-1,2.2-2.1,4.4-3,6.7c-0.4,1-0.9,1.5-2.1,1.1
		c-1.4-0.4-2.8-0.6-4.3-0.7c-1.2-0.2-1.6-0.5-1-1.8c2.4-5.1,4.7-10.4,7.2-15.5C355,73.5,354.8,72.9,354.1,72z"/>
	<path d="M230.7,52.8C230.7,52.8,230.7,52.8,230.7,52.8c-0.4,0.2-0.7,0.4-1,0.5c0.1,0.2,0.1,0.5,0.1,0.9c-0.1,4.1,0,8.1,0,12.2
		c0,1.1,0.2,1.5,1.4,1.4c1.5-0.1,3,0,4.5,0c4.1-0.1,7.3-3.2,7.4-7.3c0.2-3.9-2.9-7.4-6.9-7.7C234.4,52.7,232.6,52.8,230.7,52.8z"/>
	<path d="M94.1,52.9c9.4,0,17,7.7,16.9,17c-0.1,9.3-7.8,16.9-17.2,16.8c-9.2,0-16.9-7.7-16.8-17C77.1,60.4,84.7,52.8,94.1,52.9z"/>
	<path d="M190,36.5c-0.4-1.9-0.3-3.4,0.9-4.6c0.6-0.6,1.2-0.9,2-0.8c0.6,0,1.3,0.2,1.3,0.9c0,0.8-0.7,0.4-1.2,0.4
		c-1.4,0-1.9,1-2.3,2C190.4,34.9,190.3,35.5,190,36.5z"/>
	<path d="M195.8,40.8c-0.9-0.2-1.6-0.5-1.6-1.5c0-0.8,0.6-1.2,1.4-1.2c0.8,0,1.4,0.5,1.4,1.4C197.1,40.3,196.5,40.7,195.8,40.8z"/>
	<path d="M209.9,32.4c0.6,0.1,1.1,0.5,1,1.2c0,0.8-0.6,1.1-1.3,1.1c-0.7-0.1-1.1-0.5-1-1.2C208.6,32.7,209.1,32.4,209.9,32.4z"/>
	<path d="M183.7,42.2c0.1,0.1,0.3,0.2,0.4,0.3c0.1,0.2,0.1,0.4-0.1,0.5c-0.8,0.5-1.6,1-2.4,1.4c-0.1,0.1-0.4,0-0.5-0.1
		c-0.2-0.1-0.2-0.4,0-0.5C181.7,43,182.6,42.6,183.7,42.2z"/>
	<path d="M182.5,40.7c0.4,0,0.7,0.2,0.7,0.4c-0.4,0.9-1.4,1.1-2.2,1.6c-0.3,0.1-0.6-0.2-0.5-0.4C180.9,41.3,181.9,41.1,182.5,40.7z"
		/>
	<path d="M193.7,67.7c0.3-1.9,0.6-3.4,0.9-5c0.1-0.3-0.1-0.9,0.6-0.7c0.5,0.1,1,0.2,0.9,0.9c-0.1,0.7-0.1,1.4-0.2,2.2
		c1.5-0.7,2.9-1.2,4.2-1.9c0.9-0.4,1.5-0.4,2.3,0.2c1,0.7,2,1.3,3.1,1.9c1.2-1.3,0.6-3.9,3.3-4.4c-0.9,2.4-1.7,4.6-2.5,6.9
		c-1.4-1-2.8-1.8-4.1-2.7c-0.7-0.5-1.3-0.6-2.2-0.2C198,65.9,196,66.7,193.7,67.7z"/>
	<path d="M198.9,73c-0.1,0.8-0.4,1.6-1.4,1.8c-0.7,0.1-0.9-0.6-0.9-1.1c0-0.9,0.3-1.7,1.4-1.8C198.7,71.7,198.8,72.3,198.9,73z"/>
	<path d="M200.7,68.7c-0.1,0.8-0.4,1.6-1.3,1.7c-0.8,0.1-0.9-0.6-0.9-1.2c0.1-0.8,0.3-1.6,1.3-1.7C200.6,67.4,200.7,68.1,200.7,68.7
		z"/>
	<path d="M130.9,52.3c1.3-1.6,2.9-2.6,4.6-3.5c0.3-0.2,0.6-0.2,0.8,0.1c0.2,0.3,0,0.6-0.3,0.7C134.3,50.5,132.6,51.4,130.9,52.3z"/>
	<path d="M130.2,50.6c1.2-1.6,2.7-2.9,4.3-4.1c0.3-0.2,0.6-0.5,0.9-0.1c0.2,0.4-0.2,0.6-0.4,0.8C133.3,48.4,131.7,49.5,130.2,50.6z"
		/>
	<path d="M176.2,32.9c1.6-2.8,3.8-5,6.3-7c0.1-0.1,0.3-0.3,0.5-0.2c0.7,0.6,1.1,1.4,1.4,2.2c0.2,0.7-0.6,0.7-1,0.8
		C180.8,29.9,178.5,31.4,176.2,32.9z"/>
</g>
</svg>
